<?xml version="1.0" encoding="UTF-8"?>
<svg width="1124px" height="621px" viewBox="0 0 1124 621" version="1.1" xmlns="http://www.w3.org/2000/svg" xmlns:xlink="http://www.w3.org/1999/xlink">
    <!-- Generator: Sketch 57.1 (83088) - https://sketch.com -->
    <title>biometrics_auth_flow</title>
    <desc>Created with Sketch.</desc>
    <g id="Page-1" stroke="none" stroke-width="1" fill="none" fill-rule="evenodd">
        <g id="biometrics_auth_flow" transform="translate(-1.000000, 0.777344)">
            <g id="file-outline" transform="translate(743.592593, 29.222656)" fill="#000000">
                <g id="Shape">
                    <path d="M50,0 L10,0 C4.4771525,0 0,4.4771525 0,10 L0,90 C0,95.5228475 4.4771525,100 10,100 L70,100 C75.5228475,100 80,95.5228475 80,90 L80,30 L50,0 L50,0 Z M70,90 L10,90 L10,10 L45,10 L45,35 L70,35 L70,90 Z" fill-rule="nonzero"></path>
                </g>
            </g>
            <g id="file" transform="translate(533.592593, 29.222656)" fill="#000000">
                <g id="Shape">
                    <path d="M45,35 L45,7.5 L72.5,35 L45,35 Z M10,0 C4.45,0 0,4.45 0,10 L0,90 C0,95.5228475 4.4771525,100 10,100 L70,100 C75.5228475,100 80,95.5228475 80,90 L80,30 L50,0 L10,0 Z" fill-rule="nonzero"></path>
                </g>
            </g>
            <g id="arrow-decision" transform="translate(634.000000, 486.222656)" fill="#000000">
                <g transform="translate(-0.000000, 0.000000)" id="Shape">
                    <path d="M40.9090909,18.1818182 L27.2727273,18.1818182 L45.4545455,0 L63.6363636,18.1818182 L50,18.1818182 L50,38.3181818 C46.5909091,40.4090909 43.5454545,43 40.9090909,46 L40.9090909,18.1818182 L40.9090909,18.1818182 Z M90.9090909,45.4545455 L72.7272727,27.2727273 L72.7272727,40.9090909 C56.3181818,40.2272727 42.3181818,52.5909091 40.9090909,68.9545455 C33.8181818,71.4545455 30.0909091,79.2727273 32.5909091,86.3636364 C35.0909091,93.4545455 42.9090909,97.1818182 50,94.6818182 C57.0909091,92.1363636 60.8181818,84.3636364 58.3181818,77.2727273 C56.9545455,73.3636364 53.8636364,70.3181818 50,68.9545455 C52.1363636,50.7727273 70.3181818,49.8636364 72.5,49.8636364 L72.5,63.5 L90.9090909,45.4545455 L90.9090909,45.4545455 Z M39.2272727,48.1363636 C33.1818182,43.5 25.7727273,40.9090909 18.1818182,40.9090909 L18.1818182,27.2727273 L0,45.4545455 L18.1818182,63.6363636 L18.1818182,50 C24.2727273,50.1363636 30.1363636,52.2727273 34.7272727,56.3636364 C35.8636364,53.4545455 37.3636364,50.6818182 39.2272727,48.1363636 Z" fill-rule="nonzero"></path>
                </g>
            </g>
            <g id="account-alert" transform="translate(380.000000, 482.222656)" fill="#000000">
                <g id="Shape">
                    <path d="M50,0 C63.8071187,0 75,11.1928813 75,25 C75,38.8071187 63.8071187,50 50,50 C36.1928813,50 25,38.8071187 25,25 C25,11.1928813 36.1928813,0 50,0 L50,0 Z M50,62.5 C77.625,62.5 100,73.6875 100,87.5 L100,100 L0,100 L0,87.5 C0,73.6875 22.375,62.5 50,62.5 L50,62.5 Z M112.5,50 L112.5,18.75 L125,18.75 L125,50 L112.5,50 L112.5,50 Z M112.5,75 L112.5,62.5 L125,62.5 L125,75 L112.5,75 Z" fill-rule="nonzero"></path>
                </g>
            </g>
            <g id="account-check" transform="translate(854.000000, 482.222656)" fill="#000000">
                <g id="Shape">
                    <path d="M106.470588,50 L114.705882,58.2941176 L76.2941176,97.0588235 L55.8823529,76.4705882 L64.1176471,68.1764706 L76.2941176,80.4117647 L106.470588,50 L106.470588,50 Z M41.1764706,76.4705882 L58.8235294,94.1176471 L0,94.1176471 L0,82.3529412 C0,69.3529412 21.0588235,58.8235294 47.0588235,58.8235294 L58.1764706,59.4705882 L41.1764706,76.4705882 L41.1764706,76.4705882 Z M47.0588235,0 C60.0537588,0 70.5882353,10.5344765 70.5882353,23.5294118 C70.5882353,36.5243471 60.0537588,47.0588235 47.0588235,47.0588235 C34.0638882,47.0588235 23.5294118,36.5243471 23.5294118,23.5294118 C23.5294118,10.5344765 34.0638882,0 47.0588235,0 Z" fill-rule="nonzero"></path>
                </g>
            </g>
            <g id="fingerprint" transform="translate(228.000000, 29.222656)">
                <g id="baseline-fingerprint-24px" transform="translate(0.000000, 0.000000)">
                    <path d="M68.3066311,18.625 C67.9979259,18.625 67.6892208,18.5416667 67.4191038,18.375 C60.0101807,14.25 53.6045492,12.5 45.9255091,12.5 C38.2850571,12.5 31.0304866,14.4583333 24.4319144,18.375 C23.505799,18.9166667 22.3481548,18.5416667 21.8079208,17.5416667 C21.3062749,16.5416667 21.6535682,15.25 22.5796836,14.7083333 C29.7570779,10.5 37.6290587,8.33333333 45.9255091,8.33333333 C54.1447832,8.33333333 61.3221775,10.2916667 69.1941583,14.6666667 C70.1588618,15.2083333 70.5061551,16.4583333 70.0045093,17.4583333 C69.657216,18.2083333 69.0012176,18.625 68.3066311,18.625 L68.3066311,18.625 Z M13.0870008,40.5 C12.7011194,40.5 12.315238,40.375 11.9679447,40.125 C11.0804175,39.4583333 10.8874768,38.1666667 11.504887,37.2083333 C15.325113,31.375 20.1872188,26.7916667 25.97544,23.5833333 C38.0921164,16.8333333 53.6045492,16.7916667 65.7598137,23.5416667 C71.5480349,26.75 76.4101407,31.2916667 80.2303667,37.0833333 C80.847777,38 80.6548363,39.3333333 79.767309,40 C78.8797818,40.6666667 77.6835494,40.4583333 77.0661391,39.5 C73.5932064,34.25 69.1941583,30.125 63.9847592,27.25 C52.9099627,21.125 38.7481148,21.125 27.7119064,27.2916667 C22.4639192,30.2083333 18.0648711,34.375 14.5919384,39.625 C14.2832332,40.2083333 13.7044111,40.5 13.0870008,40.5 L13.0870008,40.5 Z M37.2045892,90.7916667 C36.7029433,90.7916667 36.2012975,90.5833333 35.8540042,90.1666667 C32.4968359,86.5416667 30.6831933,84.2083333 28.0977878,79.1666667 C25.4352061,74.0416667 24.046033,67.7916667 24.046033,61.0833333 C24.046033,48.7083333 33.8474209,38.625 45.886921,38.625 C57.926421,38.625 67.7278089,48.7083333 67.7278089,61.0833333 C67.7278089,62.25 66.8788698,63.1666667 65.7984019,63.1666667 C64.7179339,63.1666667 63.8689948,62.25 63.8689948,61.0833333 C63.8689948,51 55.8040733,42.7916667 45.886921,42.7916667 C35.9697686,42.7916667 27.9048471,51 27.9048471,61.0833333 C27.9048471,67.0833333 29.1396676,72.625 31.4935442,77.125 C33.9631853,81.9166667 35.6610635,83.9583333 38.6323504,87.2083333 C39.3655251,88.0416667 39.3655251,89.3333333 38.6323504,90.1666667 C38.2078808,90.5833333 37.706235,90.7916667 37.2045892,90.7916667 Z M64.8722865,83.0833333 C60.2802977,83.0833333 56.2285428,81.8333333 52.9099627,79.375 C47.1603296,75.1666667 43.725985,68.3333333 43.725985,61.0833333 C43.725985,59.9166667 44.5749242,59 45.6553921,59 C46.7358601,59 47.5847992,59.9166667 47.5847992,61.0833333 C47.5847992,66.9583333 50.3631453,72.5 55.0708986,75.9166667 C57.8106566,77.9166667 61.0134724,78.875 64.8722865,78.875 C65.7984019,78.875 67.3419275,78.75 68.8854532,78.4583333 C69.927333,78.25 70.9306247,79 71.1235654,80.1666667 C71.3165061,81.2916667 70.6219195,82.375 69.5414516,82.5833333 C67.3419275,83.0416667 65.4125205,83.0833333 64.8722865,83.0833333 L64.8722865,83.0833333 Z M57.1160701,91.6666667 C56.9617175,91.6666667 56.7687768,91.625 56.6144242,91.5833333 C50.4789098,89.75 46.4657431,87.2916667 42.2596357,82.8333333 C36.8572959,77.0416667 33.886009,69.3333333 33.886009,61.0833333 C33.886009,54.3333333 39.2111725,48.8333333 45.7711565,48.8333333 C52.3311406,48.8333333 57.6563041,54.3333333 57.6563041,61.0833333 C57.6563041,65.5416667 61.2450012,69.1666667 65.6826374,69.1666667 C70.1202737,69.1666667 73.7089708,65.5416667 73.7089708,61.0833333 C73.7089708,45.375 61.1678249,32.625 45.7325684,32.625 C34.7735363,32.625 24.7406195,39.2083333 20.225807,49.4166667 C18.7208695,52.7916667 17.9491066,56.75 17.9491066,61.0833333 C17.9491066,64.3333333 18.2192236,69.4583333 20.5345121,76.125 C20.9203935,77.2083333 20.4187477,78.4166667 19.415456,78.7916667 C18.4121643,79.2083333 17.2931082,78.625 16.945815,77.5833333 C15.0549961,72.125 14.1288807,66.7083333 14.1288807,61.0833333 C14.1288807,56.0833333 15.0164079,51.5416667 16.7528743,47.5833333 C21.8850971,35.9583333 33.2685987,28.4166667 45.7325684,28.4166667 C63.2901727,28.4166667 77.567785,43.0416667 77.567785,61.0416667 C77.567785,67.7916667 72.2426215,73.2916667 65.6826374,73.2916667 C59.1226534,73.2916667 53.7974899,67.7916667 53.7974899,61.0416667 C53.7974899,56.5833333 50.2087928,52.9583333 45.7711565,52.9583333 C41.3335203,52.9583333 37.7448231,56.5833333 37.7448231,61.0416667 C37.7448231,68.1666667 40.2916405,74.8333333 44.9608056,79.8333333 C48.626679,83.75 52.1381998,85.9166667 57.5791278,87.5416667 C58.6210076,87.8333333 59.1998297,89 58.9297127,90.0833333 C58.736772,91.0416667 57.926421,91.6666667 57.1160701,91.6666667 L57.1160701,91.6666667 Z" id="Shape" fill="#000000" fill-rule="nonzero"></path>
                    <polygon id="Path" points="0 0 92.5925926 0 92.5925926 100 0 100"></polygon>
                </g>
            </g>
            <g id="file-compare" transform="translate(643.000000, 261.222656)" fill="#000000">
                <g transform="translate(0.000000, 0.000000)" id="Shape">
                    <path d="M27.2727273,77.2727273 L9.09090909,77.2727273 L9.09090909,68.1818182 L27.2727273,68.1818182 L27.2727273,77.2727273 L27.2727273,77.2727273 Z M27.2727273,59.0909091 L9.09090909,59.0909091 L9.09090909,50 L27.2727273,50 L27.2727273,59.0909091 L27.2727273,59.0909091 Z M27.2727273,0 L27.2727273,4.54545455 L9.09090909,4.54545455 C4.04545455,4.54545455 0,8.59090909 0,13.6363636 L0,86.3636364 C0,91.3844068 4.07013864,95.4545455 9.09090909,95.4545455 L27.2727273,95.4545455 L27.2727273,100 L36.3636364,100 L36.3636364,0 L27.2727273,0 L27.2727273,0 Z M72.7272727,31.8181818 L72.7272727,86.3636364 C72.7272727,91.4090909 68.6818182,95.4545455 63.6363636,95.4545455 L45.4545455,95.4545455 L45.4545455,86.3636364 L63.6363636,86.3636364 L63.6363636,45.4545455 L45.4545455,45.4545455 L45.4545455,36.3636364 L65.9090909,36.3636364 L45.4545455,15.9090909 L45.4545455,4.54545455 L72.7272727,31.8181818 L72.7272727,31.8181818 Z M54.5454545,59.0909091 L45.4545455,59.0909091 L45.4545455,50 L54.5454545,50 L54.5454545,59.0909091 L54.5454545,59.0909091 Z M54.5454545,77.2727273 L45.4545455,77.2727273 L45.4545455,68.1818182 L54.5454545,68.1818182 L54.5454545,77.2727273 Z" fill-rule="nonzero"></path>
                </g>
            </g>
            <g id="touch" transform="translate(5.000000, 30.222656)">
                <g id="baseline-touch-24px">
                    <path d="M32.84,40.515 L32.84,24.849 C32.84,19.069 37.541,14.377 43.334,14.377 C49.126,14.377 53.828,19.069 53.828,24.849 L53.828,40.515 C58.907,37.122 62.223,31.384 62.223,24.849 C62.223,14.419 53.786,6 43.333,6 C32.882,6 24.445,14.42 24.445,24.85 C24.445,31.384 27.761,37.122 32.84,40.515 Z M74.144,59.909 L55.086,50.442 C54.3679182,50.1411367 53.5975578,49.9848218 52.819,49.982 L49.629,49.982 L49.629,24.849 C49.6295361,23.1802265 48.9659656,21.5798378 47.7847457,20.4010568 C46.6035257,19.2222758 45.0017688,18.5620146 43.333,18.5659796 C41.6640581,18.5617485 40.0620439,19.2218921 38.8806074,20.400702 C37.6991709,21.5795119 37.0354632,23.1800528 37.036,24.849 L37.036,69.836 L22.64,66.82 C22.304,66.778 22.01,66.694 21.633,66.694 C20.3877828,66.6973936 19.194804,67.1947978 18.316,68.077 L15,71.427 L35.736,92.121 C36.9183797,93.2978141 38.5177964,93.9598648 40.186,93.963 L68.686,93.963 C71.835,93.963 74.27,91.659 74.731,88.601 L77.879,66.527 C77.921,66.234 77.963,65.941 77.963,65.689 C77.963,63.092 76.368,60.83 74.143,59.909 L74.144,59.909 Z" id="Shape" fill="#000000" fill-rule="nonzero"></path>
                    <polygon id="Path" points="0 0 92.5925926 0 92.5925926 100 0 100"></polygon>
                </g>
            </g>
            <g id="database" transform="translate(1036.000000, 29.222656)" fill="#000000">
                <g transform="translate(0.000000, 0.000000)" id="Shape">
                    <path d="M44.4444444,0 C19.8888889,0 0,9.94444444 0,22.2222222 C0,34.5 19.8888889,44.4444444 44.4444444,44.4444444 C69,44.4444444 88.8888889,34.5 88.8888889,22.2222222 C88.8888889,9.94444444 69,0 44.4444444,0 L44.4444444,0 Z M0,33.3333333 L0,50 C0,62.2777778 19.8888889,72.2222222 44.4444444,72.2222222 C69,72.2222222 88.8888889,62.2777778 88.8888889,50 L88.8888889,33.3333333 C88.8888889,45.6111111 69,55.5555556 44.4444444,55.5555556 C19.8888889,55.5555556 0,45.6111111 0,33.3333333 L0,33.3333333 Z M0,61.1111111 L0,77.7777778 C0,90.0555556 19.8888889,100 44.4444444,100 C69,100 88.8888889,90.0555556 88.8888889,77.7777778 L88.8888889,61.1111111 C88.8888889,73.3888889 69,83.3333333 44.4444444,83.3333333 C19.8888889,83.3333333 0,73.3888889 0,61.1111111 Z" fill-rule="nonzero"></path>
                </g>
            </g>
            <path id="Line" d="M219.482689,74.7555081 L228.499996,79.2207258 L219.517438,83.755441 L219.501,79.755 L98.0019342,80.224583 L97.9980732,79.2245905 L219.498,78.755 L219.482689,74.7555081 Z" fill="#000000" fill-rule="nonzero"></path>
            <path id="Line" d="M518.97836,74.2637711 L527.999994,78.7202408 L519.021838,83.2636661 L519.002,79.263 L320.002421,80.2250658 L319.99759,79.2250775 L518.997,78.263 L518.97836,74.2637711 Z" fill="#000000" fill-rule="nonzero"></path>
            <path d="M573.592593,137.222656 C573.592593,171.889323 573.592593,189.222656 573.592593,189.222656 C573.592593,189.222656 643.592593,189.222656 783.592593,189.222656 L783.592593,137.222656" id="Line-2" stroke="#000000" stroke-linecap="square"></path>
            <path id="Line-3" d="M679.007406,189.215358 L680.007298,189.230062 L679.125,249.23 L683.1245,249.289745 L678.492648,258.222602 L674.125473,249.157406 L678.125,249.216 L679.007406,189.215358 Z" fill="#000000" fill-rule="nonzero"></path>
            <path id="Line-4" d="M522,527.222656 L522,531.222 L630,531.222656 L630,532.222656 L522,532.222 L522,536.222656 L513,531.722656 L522,527.222656 Z" fill="#000000" fill-rule="nonzero"></path>
            <path id="Line-7" d="M842,81.2226562 L842,85.222 L1029,85.2226562 L1029,86.2226562 L842,86.222 L842,90.2226562 L833,85.7226562 L842,81.2226562 Z" fill="#000000" fill-rule="nonzero"></path>
            <path id="Line-5" d="M845,527.222656 L854,531.722656 L845,536.222656 L845,532.222 L734,532.222656 L734,531.222656 L845,531.222 L845,527.222656 Z" fill="#000000" fill-rule="nonzero"></path>
            <path id="Line-6" d="M678.995627,364.398008 L679.925,471.218 L683.925803,471.183788 L679.504354,480.222637 L674.926145,471.262169 L678.925,471.227 L677.995664,364.406717 L678.995627,364.398008 Z" fill="#000000" fill-rule="nonzero"></path>
            <text id="User-interacts-with" font-family="Helvetica" font-size="12" font-weight="normal" fill="#000000">
                <tspan x="0.15234375" y="153.222656">User interacts with</tspan>
                <tspan x="21.4833984" y="167.222656">the sensor</tspan>
            </text>
            <text id="Biometric-template-i" font-family="Helvetica" font-size="12" font-weight="normal" fill="#000000">
                <tspan x="224.31543" y="150.222656">Biometric template</tspan>
                <tspan x="243.320312" y="164.222656">is extracted</tspan>
            </text>
            <text id="Template" font-family="Helvetica" font-size="12" font-weight="normal" fill="#000000">
                <tspan x="400.154297" y="71.2226562">Template</tspan>
            </text>
            <text id="transformation" font-family="Helvetica" font-size="12" font-weight="normal" fill="#000000">
                <tspan x="386.150391" y="95.2226562">transformation</tspan>
            </text>
            <text id="Extraction-of" font-family="Helvetica" font-size="12" font-weight="normal" fill="#000000">
                <tspan x="882.151367" y="78.2226562">Extraction of</tspan>
            </text>
            <text id="stored-template" font-family="Helvetica" font-size="12" font-weight="normal" fill="#000000">
                <tspan x="874.144531" y="101.222656">stored template</tspan>
            </text>
            <text id="Comparison-of-both-t" font-family="Helvetica" font-size="12" font-weight="normal" fill="#000000">
                <tspan x="768.15332" y="294.222656">Comparison</tspan>
                <tspan x="729.124023" y="308.222656">of both templates, decision</tspan>
                <tspan x="733.451172" y="322.222656">based on threshold value</tspan>
            </text>
            <text id="Imposter-detected-an" font-family="Helvetica" font-size="12" font-weight="normal" fill="#000000">
                <tspan x="381.973633" y="603.222656">Imposter detected</tspan>
                <tspan x="379.963867" y="617.222656">and access denied</tspan>
            </text>
            <text id="User-identified-and" font-family="Helvetica" font-size="12" font-weight="normal" fill="#000000">
                <tspan x="862.647461" y="603.222656">User identified</tspan>
                <tspan x="848.631836" y="617.222656">and access granted</tspan>
                <tspan x="901" y="631.222656"></tspan>
            </text>
            <text id="Template-database" font-family="Helvetica" font-size="12" font-weight="normal" fill="#000000">
                <tspan x="1056.6543" y="145.222656">Template</tspan>
                <tspan x="1056.31152" y="159.222656">database</tspan>
            </text>
            <path id="Line-8" d="M581.779364,27.4892984 L581.94389,28.4756711 L581.450704,28.5579343 C578.185446,29.1025774 574.896347,29.6551494 571.583407,30.2156504 L571.583407,30.2156504 L571.090413,30.2990578 L570.923598,29.3130695 L571.416593,29.2296621 C574.730292,28.6690326 578.020154,28.1163324 581.286178,27.5715616 L581.286178,27.5715616 L581.779364,27.4892984 Z M1072.69844,18.334337 L1080.93901,24.1086693 L1071.3752,27.2365304 L1071.96281,23.2805315 C1070.72388,23.0978007 1069.48835,22.9161692 1068.25622,22.7356369 L1068.25622,22.7356369 L1067.7615,22.6631507 L1067.90647,21.673715 L1068.40119,21.7462012 C1069.81775,21.9537568 1071.23881,22.1627647 1072.66435,22.373225 L1072.11,22.291 L1072.69844,18.334337 Z M601.513408,24.2497655 L601.673033,25.2369433 L601.179444,25.3167555 C597.915041,25.8446016 594.625321,26.3808679 591.310283,26.9255543 L591.310283,26.9255543 L590.816899,27.0066212 L590.654765,26.0198524 L591.148149,25.9387855 C594.46402,25.3939622 597.754577,24.8575596 601.019819,24.3295776 L601.019819,24.3295776 L601.513408,24.2497655 Z M621.276927,21.1113868 L621.431145,22.0994236 L620.937126,22.1765327 C617.669288,22.686594 614.374385,23.2056567 611.052416,23.7337206 L611.052416,23.7337206 L610.558616,23.8122156 L610.401626,22.8246154 L610.895426,22.7461204 C614.218315,22.2179103 617.514142,21.6987021 620.782908,21.1884958 L620.782908,21.1884958 L621.276927,21.1113868 Z M1048.11866,18.830367 L1048.61376,18.9002025 C1051.88878,19.3621562 1055.1893,19.8323599 1058.51532,20.3108138 L1058.51532,20.3108138 L1059.01023,20.3820067 L1058.86784,21.3718179 L1058.37294,21.300625 C1055.04782,20.8223008 1051.7482,20.3522259 1048.47409,19.8904005 L1048.47409,19.8904005 L1047.97899,19.8205649 L1048.11866,18.830367 Z M641.034323,18.0908243 L641.18255,19.0797776 L640.688074,19.1538914 C637.421636,19.6434755 634.12622,20.1426965 630.801828,20.6515544 L630.801828,20.6515544 L630.307584,20.7272072 L630.156279,19.7387202 L630.650522,19.6630674 C633.975936,19.1540532 637.272377,18.6546768 640.539846,18.1649381 L640.539846,18.1649381 L641.034323,18.0908243 Z M1028.29698,16.0960973 L1028.79249,16.1630081 C1032.06877,16.6054256 1035.37229,17.0566532 1038.70305,17.5166909 L1038.70305,17.5166909 L1039.19835,17.5851005 L1039.06153,18.5756966 L1038.56623,18.5072869 C1035.23647,18.0473866 1031.93395,17.5962955 1028.65866,17.1540135 L1028.65866,17.1540135 L1028.16316,17.0871027 L1028.29698,16.0960973 Z M660.837492,15.1933531 L660.979014,16.1832882 L660.484047,16.2540493 C657.21694,16.7211183 653.918604,17.1985726 650.58904,17.6864123 L650.58904,17.6864123 L650.094322,17.7588972 L649.949352,16.7694611 L650.44407,16.6969762 C653.774777,16.208969 657.074262,15.7313483 660.342525,15.2641142 L660.342525,15.2641142 L660.837492,15.1933531 Z M1008.47018,13.4869077 L1012.25247,13.9743755 C1014.44987,14.2590082 1016.66025,14.5478388 1018.8836,14.8408674 L1018.8836,14.8408674 L1019.37932,14.9062004 L1019.24865,15.8976268 L1018.75294,15.8322939 C1015.41901,15.3928967 1012.11429,14.9629436 1008.83877,14.5424347 L1008.34284,14.4787676 L1008.47018,13.4869077 Z M680.639808,12.4416601 L680.773778,13.4326456 L680.278285,13.4996302 C677.010698,13.9413687 673.709258,14.394365 670.373966,14.858619 L670.373966,14.858619 L669.87874,14.9275516 L669.740875,13.9371006 L670.236101,13.868168 C673.572685,13.4037342 676.875423,12.9505598 680.144316,12.5086447 L680.144316,12.5086447 L680.639808,12.4416601 Z M988.608295,11.013149 L989.104677,11.073186 C992.382986,11.4696949 995.692787,11.8763925 999.034083,12.2932788 L999.034083,12.2932788 L999.530236,12.3551828 L999.406428,13.347489 L998.910275,13.285585 C995.570218,12.8688532 992.26166,12.4623086 988.984603,12.065951 L988.984603,12.065951 L988.488221,12.0059139 L988.608295,11.013149 Z M700.480915,9.84946809 L700.606274,10.8415796 L700.110218,10.9042589 C696.842024,11.3172126 693.536863,11.7424589 690.194737,12.179998 L690.194737,12.179998 L689.698967,12.2449023 L689.569158,11.2533633 L690.064928,11.1884589 C693.408529,10.7507268 696.715173,10.3252896 699.984859,9.91214736 L699.984859,9.91214736 L700.480915,9.84946809 Z M968.7465,8.69626529 L969.24336,8.75221185 C972.522445,9.12143757 975.835688,9.50171429 979.183089,9.893042 L979.183089,9.893042 L979.679706,9.9510991 L979.563592,10.944335 L979.066974,10.8862779 C975.720973,10.4951137 972.409137,10.1149985 969.131467,9.7459321 L969.131467,9.7459321 L968.634607,9.68998554 L968.7465,8.69626529 Z M720.337612,7.44379495 L720.453047,8.43710999 L719.956389,8.4948275 C716.688811,8.87455897 713.380552,9.26781745 710.031614,9.67460298 L710.031614,9.67460298 L709.535263,9.73489335 L709.414682,8.74218983 L709.911034,8.68189946 C713.261676,8.27490694 716.571649,7.8814446 719.840954,7.50151246 L719.840954,7.50151246 L720.337612,7.44379495 Z M948.855614,6.55356363 L949.352977,6.60484717 C952.632368,6.94298814 955.949065,7.29319896 959.303068,7.65547962 L959.303068,7.65547962 L959.800176,7.70917451 L959.692786,8.7033915 L959.195678,8.64969661 C955.843273,8.28758857 952.528184,7.93754746 949.25041,7.59957326 L949.25041,7.59957326 L948.753047,7.54828972 L948.855614,6.55356363 Z M740.226982,5.25275478 L740.330805,6.24735055 L739.833508,6.29926217 C736.564866,6.64046713 733.250942,6.99672842 729.891738,7.3680461 L729.891738,7.3680461 L729.394764,7.4229802 L729.284896,6.42903404 L729.781869,6.37409994 C733.143075,6.00256113 736.459013,5.64608327 739.729684,5.30466641 L739.729684,5.30466641 L740.226982,5.25275478 Z M928.946886,4.61214411 L929.444774,4.6580509 C932.723666,4.96037464 936.043631,5.27598816 939.40467,5.60489141 L939.40467,5.60489141 L939.902293,5.65358761 L939.804901,6.64883367 L939.307278,6.60013747 C935.948086,6.27141502 932.62998,5.95597825 929.35296,5.65382712 L929.35296,5.65382712 L928.855072,5.60792033 L928.946886,4.61214411 Z M760.138239,3.31664814 L760.228242,4.31258967 L759.730271,4.35759096 C756.464291,4.65273547 753.147371,4.96481626 749.779511,5.29383345 L749.779511,5.29383345 L749.28188,5.34244864 L749.18465,4.34718674 L749.68228,4.29857155 C753.05253,3.96932088 756.371859,3.65701347 759.640268,3.36164943 L759.640268,3.36164943 L760.138239,3.31664814 Z M909.0162,2.90419083 L909.514628,2.9438068 C912.791893,3.20428974 916.114824,3.47954933 919.483421,3.76958548 L919.483421,3.76958548 L919.981578,3.81247678 L919.895795,4.80879066 L919.397638,4.76589935 C916.031209,4.47604986 912.710462,4.20097111 909.435396,3.94066301 L909.435396,3.94066301 L908.936968,3.90104704 L909.0162,2.90419083 Z M780.073825,1.68713498 L780.14701,2.68445331 L779.648351,2.72104619 C776.385173,2.96050649 773.063748,3.21933004 769.684076,3.49751709 L769.684076,3.49751709 L769.185762,3.5385343 L769.103727,2.5419048 L769.602042,2.50088759 C772.984636,2.22245998 776.30901,1.96340665 779.575165,1.72372786 L779.575165,1.72372786 L780.073825,1.68713498 Z M889.058331,1.47162533 L889.557298,1.50374818 C892.833712,1.71467944 896.161585,1.94226371 899.540919,2.18650081 L899.540919,2.18650081 L900.039618,2.22254367 L899.967532,3.21994211 L899.468833,3.18389925 C896.092092,2.93984951 892.766831,2.71244392 889.493052,2.50168229 L889.493052,2.50168229 L888.994085,2.46955944 L889.058331,1.47162533 Z M800.054785,0.434938378 L800.106897,1.43357962 L799.607576,1.45963565 C796.349561,1.62964852 793.023577,1.82225205 789.629626,2.03744675 L789.629626,2.03744675 L789.130628,2.0690859 L789.06735,1.07108998 L789.566348,1.03945083 C792.963982,0.824022599 796.293686,0.63120362 799.555464,0.460994407 L799.555464,0.460994407 L800.054785,0.434938378 Z M869.071638,0.371026652 L869.571108,0.394024332 C872.843518,0.544699472 876.17477,0.714419839 879.564866,0.903185094 L879.564866,0.903185094 L880.064093,0.930982732 L880.008498,1.92943612 L879.509271,1.90163848 C876.122346,1.71304979 872.794293,1.54349241 869.525113,1.39296599 L869.525113,1.39296599 L869.025642,1.36996831 L869.071638,0.371026652 Z M820.058001,-0.333355288 L820.082719,0.666339189 L819.582871,0.6786979 C816.335184,0.758996899 813.006045,0.866358593 809.595461,1.00078417 L809.595461,1.00078417 L809.095849,1.020476 L809.056465,0.0212518379 L809.556077,0.00156000899 C812.97149,-0.133055891 816.305515,-0.24057515 819.558154,-0.320996578 L819.558154,-0.320996578 L820.058001,-0.333355288 Z M849.071361,-0.318604323 L849.571227,-0.307029713 C852.835814,-0.231436795 856.169002,-0.133635046 859.570794,-0.0136251543 L859.570794,-0.0136251543 L860.070483,0.00400309865 L860.035227,1.00338139 L859.535537,0.985753142 C856.13774,0.865884151 852.808586,0.76820077 849.548077,0.692702308 L849.548077,0.692702308 L849.048211,0.681127698 L849.071361,-0.318604323 Z M833.495128,-0.499999976 C835.493211,-0.5 837.516689,-0.490396004 839.570488,-0.47117071 L839.570488,-0.47117071 L840.070466,-0.466490492 L840.061105,0.533465698 L839.561127,0.52878548 C837.510427,0.50958919 835.490068,0.5 833.495133,0.500000024 C832.200184,0.500012606 830.890115,0.505046872 829.564926,0.515102988 L829.564926,0.515102988 L829.06494,0.518897099 L829.057352,-0.48107411 L829.557338,-0.484868221 C830.885038,-0.494943397 832.197633,-0.49998737 833.495128,-0.499999976 Z" fill="#979797" fill-rule="nonzero"></path>
        </g>
    </g>
</svg>