<svg xmlns="http://www.w3.org/2000/svg" width="1926" height="1404" viewBox="0 0 1926 1404">
  <g fill="none" fill-rule="evenodd">
    <path fill="#000" fill-rule="nonzero" d="M50,57.0909091 L69.7727273,73.4545455 L78.1818182,67.9545455 L78.1818182,74.0909091 L50,90.9090909 L21.9090909,74.0909091 L21.9090909,67.9545455 L30.3636364,73.4545455 L50,57.0909091 L50,57.0909091 Z M30.3636364,2.27272727 L50,18.5909091 L69.6363636,2.27272727 L97.7272727,20.4545455 L78.3181818,36.0909091 L97.7272727,51.6363636 L69.6363636,69.9545455 L50,53.5454545 L30.3636364,69.9545455 L2.27272727,51.6363636 L21.6818182,36.0909091 L2.27272727,20.4545455 L30.3636364,2.27272727 L30.3636364,2.27272727 Z M50,53.0909091 L77.8636364,36.0909091 L50,19.0454545 L22.1363636,36.0909091 L50,53.0909091 Z" transform="translate(186.647 1168)"/>
    <path fill="#000" fill-rule="nonzero" d="M96.75,45.5 L50.9,45.5 L50.9,59.15 L83.45,59.15 C81.8,78.2 65.95,86.35 50.95,86.35 C31.8,86.35 15,71.25 15,50 C15,29.5 31,13.65 51,13.65 C66.45,13.65 75.5,23.5 75.5,23.5 L85,13.6 C85,13.6 72.8,0 50.5,0 C22.1,0 0.15,24 0.15,50 C0.15,75.25 20.8,100 51.25,100 C78,100 97.5,81.65 97.5,54.55 C97.5,48.8 96.75,45.5 96.75,45.5 L96.75,45.5 Z" transform="translate(374.647 1171)"/>
    <path fill="#000" fill-rule="nonzero" d="M11.1111111,0 L88.8888889,0 C95.0253861,0 100,4.97461389 100,11.1111111 L100,88.8888889 C100,95.0253861 95.0253861,100 88.8888889,100 L11.1111111,100 C4.97461389,100 0,95.0253861 0,88.8888889 L0,11.1111111 C0,4.97461389 4.97461389,0 11.1111111,0 L11.1111111,0 Z M83.3333333,11.1111111 L69.4444444,11.1111111 C58.7055743,11.1111111 50,19.8166854 50,30.5555556 L50,44.4444444 L38.8888889,44.4444444 L38.8888889,61.1111111 L50,61.1111111 L50,100 L66.6666667,100 L66.6666667,61.1111111 L83.3333333,61.1111111 L83.3333333,44.4444444 L66.6666667,44.4444444 L66.6666667,33.3333333 C66.6666667,30.2650847 69.1539736,27.7777778 72.2222222,27.7777778 L83.3333333,27.7777778 L83.3333333,11.1111111 Z" transform="translate(186.647 1281)"/>
    <path fill="#000" fill-rule="nonzero" d="M0,0 L0,10 L20,10 L20,20 L10,20 C4.4771525,20 0,24.4771525 0,30 L0,50 L30,50 L30,40 L10,40 L10,30 L20,30 C25.5228475,30 30,25.5228475 30,20 L30,10 C30,4.45 25.5,0 20,0 L0,0 L0,0 Z M35,0 L35,50 L45,50 L45,30 L60,30 L60,20 L45,20 L45,10 L65,10 L65,0 L35,0 L35,0 Z M80,0 C74.4771525,0 70,4.4771525 70,10 L70,50 L80,50 L80,35 L90,35 L90,50 L100,50 L100,10 C100,4.4771525 95.5228475,0 90,0 L80,0 L80,0 Z M80,10 L90,10 L90,25 L80,25 L80,10 Z" transform="translate(.647 1243)"/>
    <path fill="#000" fill-rule="nonzero" d="M97.5454545,9.09090909 C94.0454545,10.6818182 90.2727273,11.7272727 86.3636364,12.2272727 C90.3636364,9.81818182 93.4545455,6 94.9090909,1.40909091 C91.1363636,3.68181818 86.9545455,5.27272727 82.5454545,6.18181818 C78.9545455,2.27272727 73.9090909,0 68.1818182,0 C57.5,0 48.7727273,8.72727273 48.7727273,19.5 C48.7727273,21.0454545 48.9545455,22.5454545 49.2727273,23.9545455 C33.0909091,23.1363636 18.6818182,15.3636364 9.09090909,3.59090909 C7.40909091,6.45454545 6.45454545,9.81818182 6.45454545,13.3636364 C6.45454545,20.1363636 9.86363636,26.1363636 15.1363636,29.5454545 C11.9090909,29.5454545 8.90909091,28.6363636 6.27272727,27.2727273 C6.27272727,27.2727273 6.27272727,27.2727273 6.27272727,27.4090909 C6.27272727,36.8636364 13,44.7727273 21.9090909,46.5454545 C20.2727273,47 18.5454545,47.2272727 16.7727273,47.2272727 C15.5454545,47.2272727 14.3181818,47.0909091 13.1363636,46.8636364 C15.5909091,54.5454545 22.7272727,60.2727273 31.3181818,60.4090909 C24.6818182,65.6818182 16.2727273,68.7727273 7.09090909,68.7727273 C5.54545455,68.7727273 4,68.6818182 2.45454545,68.5 C11.0909091,74.0454545 21.3636364,77.2727273 32.3636364,77.2727273 C68.1818182,77.2727273 87.8636364,47.5454545 87.8636364,21.7727273 C87.8636364,20.9090909 87.8636364,20.0909091 87.8181818,19.2272727 C91.6363636,16.5 94.9090909,13.0454545 97.5454545,9.09090909 Z" transform="translate(373 1298)"/>
    <rect width="374" height="246" x="144.5" y="1157.5" stroke="#000"/>
    <path fill="#000" fill-rule="nonzero" d="M1118.92061,895.229657 L1113.78268,903.881345 L1111.619,900.516 L519.349731,1281.19096 L518.809045,1280.34973 L1111.079,899.675 L1108.91651,896.310328 L1118.92061,895.229657 Z"/>
    <path fill="#8B0000" fill-rule="nonzero" d="M50,77.2727273 L9.09090909,77.2727273 L9.09090909,13.6363636 L50,13.6363636 L50,77.2727273 Z M29.5454545,95.4545455 C25.7798767,95.4545455 22.7272727,92.4019415 22.7272727,88.6363636 C22.7272727,84.8707858 25.7798767,81.8181818 29.5454545,81.8181818 C33.3110324,81.8181818 36.3636364,84.8707858 36.3636364,88.6363636 C36.3636364,92.4019415 33.3110324,95.4545455 29.5454545,95.4545455 L29.5454545,95.4545455 Z M47.7272727,0 L11.3636364,0 C5.0876733,0 0,5.0876733 0,11.3636364 L0,88.6363636 C0,94.9123267 5.0876733,100 11.3636364,100 L47.7272727,100 C54.0032358,100 59.0909091,94.9123267 59.0909091,88.6363636 L59.0909091,11.3636364 C59.0909091,5.0876733 54.0032358,0 47.7272727,0 Z" transform="translate(391.102 340)"/>
    <path fill="#000" fill-rule="nonzero" d="M10,50 L10,10 L0,10 L0,0 L20,0 L20,50 L10,50 L10,50 Z M100,40 C100,45.55 95.5,50 90,50 L70,50 L70,40 L90,40 L90,30 L80,30 L80,20 L90,20 L90,10 L70,10 L70,0 L90,0 C95.5228475,0 100,4.4771525 100,10 L100,17.5 C100,21.6421356 96.6421356,25 92.5,25 C96.6421356,25 100,28.3578644 100,32.5 L100,40 L100,40 Z M60,40 L60,50 L30,50 L30,30 C30,24.45 34.5,20 40,20 L50,20 L50,10 L30,10 L30,0 L50,0 C55.5228475,0 60,4.4771525 60,10 L60,20 C60,25.55 55.5,30 50,30 L40,30 L40,40 L60,40 Z" transform="translate(375 485)"/>
    <path fill="#000" fill-rule="nonzero" d="M10,50 L10,10 L0,10 L0,0 L20,0 L20,50 L10,50 L10,50 Z M100,40 C100,45.55 95.5,50 90,50 L70,50 L70,40 L90,40 L90,30 L80,30 L80,20 L90,20 L90,10 L70,10 L70,0 L90,0 C95.5228475,0 100,4.4771525 100,10 L100,17.5 C100,21.6421356 96.6421356,25 92.5,25 C96.6421356,25 100,28.3578644 100,32.5 L100,40 L100,40 Z M60,40 L60,50 L30,50 L30,30 C30,24.45 34.5,20 40,20 L50,20 L50,10 L30,10 L30,0 L50,0 C55.5228475,0 60,4.4771525 60,10 L60,20 C60,25.55 55.5,30 50,30 L40,30 L40,40 L60,40 Z" transform="translate(1118 845)"/>
    <path fill="#000" fill-rule="nonzero" d="M1716.91834,507.226149 L1711.85293,515.920497 L1709.661,512.573 L1218.35551,834.192188 L1217.80781,833.355514 L1709.114,511.737 L1706.92362,508.390436 L1716.91834,507.226149 Z"/>
    <path fill="#000" fill-rule="nonzero" d="M10,50 L10,10 L0,10 L0,0 L20,0 L20,50 L10,50 L10,50 Z M100,40 C100,45.55 95.5,50 90,50 L70,50 L70,40 L90,40 L90,30 L80,30 L80,20 L90,20 L90,10 L70,10 L70,0 L90,0 C95.5228475,0 100,4.4771525 100,10 L100,17.5 C100,21.6421356 96.6421356,25 92.5,25 C96.6421356,25 100,28.3578644 100,32.5 L100,40 L100,40 Z M60,40 L60,50 L30,50 L30,30 C30,24.45 34.5,20 40,20 L50,20 L50,10 L30,10 L30,0 L50,0 C55.5228475,0 60,4.4771525 60,10 L60,20 C60,25.55 55.5,30 50,30 L40,30 L40,40 L60,40 Z" transform="translate(784 25)"/>
    <path fill="#000" fill-rule="nonzero" d="M75,25 L100,25 L100,75 L75,75 L75,85 C75,87.7614237 77.2385763,90 80,90 L90,90 L90,100 L77.5,100 C74.75,100 70,97.75 70,95 C70,97.75 65.25,100 62.5,100 L50,100 L50,90 L60,90 C62.7614237,90 65,87.7614237 65,85 L65,15 C65,12.2385763 62.7614237,10 60,10 L50,10 L50,0 L62.5,0 C65.25,0 70,2.25 70,5 C70,2.25 74.75,0 77.5,0 L90,0 L90,10 L80,10 C77.2385763,10 75,12.2385763 75,15 L75,25 L75,25 Z M0,25 L55,25 L55,35 L10,35 L10,65 L55,65 L55,75 L0,75 L0,25 L0,25 Z M90,65 L90,35 L75,35 L75,65 L90,65 L90,65 Z M32.5,50 C32.5,45.8578644 29.1421356,42.5 25,42.5 C20.8578644,42.5 17.5,45.8578644 17.5,50 C17.5,54.1421356 20.8578644,57.5 25,57.5 C29.1421356,57.5 32.5,54.1421356 32.5,50 L32.5,50 Z M55,44.45 C51.95,41.65 47.2,41.9 44.4,45 C41.6,48 41.85,52.75 45,55.55 C47.75,58.15 52.15,58.15 55,55.55 L55,44.45 Z" transform="translate(191.147 460)"/>
    <path fill="#000" fill-rule="nonzero" d="M242,570 L242,1149 L246,1149 L241.5,1158 L237,1149 L241,1149 L241,570 L242,570 Z"/>
    <path fill="#000" fill-rule="nonzero" d="M90,0 L10,0 C4.4771525,0 0,4.4771525 0,10 L0,100 L20,80 L90,80 C95.5228475,80 100,75.5228475 100,70 L100,10 C100,4.45 95.5,0 90,0 Z" transform="translate(672.647)"/>
    <path fill="#000" fill-rule="nonzero" d="M465,46 L465,50 L672,50 L672,51 L465,51 L465,55 L456,50.5 L465,46 Z"/>
    <path fill="#000" fill-rule="nonzero" d="M14.65,4.65 C5.6,13.7 0,26.2 0,40 C0,53.8 5.6,66.3 14.65,75.35 L21.7,68.3 C14.45,61.1 10,51.1 10,40 C10,28.95 14.45,18.9 21.7,11.7 L14.65,4.65 L14.65,4.65 Z M85.35,4.65 L78.3,11.7 C85.55,18.9 90,28.95 90,40 C90,51.1 85.55,61.1 78.3,68.3 L85.35,75.35 C94.4,66.3 100,53.8 100,40 C100,26.2 94.4,13.7 85.35,4.65 L85.35,4.65 Z M28.8,18.8 C23.35,24.25 20,31.75 20,40 C20,48.25 23.35,55.75 28.8,61.2 L35.85,54.15 C32.25,50.55 30,45.55 30,40 C30,34.45 32.25,29.45 35.85,25.85 L28.8,18.8 L28.8,18.8 Z M71.2,18.8 L64.15,25.85 C67.75,29.45 70,34.45 70,40 C70,45.55 67.75,50.55 64.15,54.15 L71.2,61.2 C76.65,55.75 80,48.25 80,40 C80,31.75 76.65,24.25 71.2,18.8 L71.2,18.8 Z M50,30 C44.4771525,30 40,34.4771525 40,40 C40,45.5228475 44.4771525,50 50,50 C55.5228475,50 60,45.5228475 60,40 C60,34.4771525 55.5228475,30 50,30 Z" transform="translate(1688.647 166)"/>
    <rect width="374" height="246" x="1551.5" y="261.5" stroke="#000"/>
    <path fill="#000" fill-rule="nonzero" d="M896.055948,45.2701779 L906.117276,45.4105117 L904.279,48.962 L1552.17387,384.285771 L1551.71423,385.173874 L903.818,49.851 L901.980478,53.40344 L896.055948,45.2701779 Z"/>
    <path fill="#000" d="M.271345029 40.777193C.271345029 62.8415205 16.2906433 81.1274854 39.5637427 81.1274854 62.6859649 81.1274854 78.7052632 62.8415205 78.7052632 40.777193 78.7052632 17.3532164 62.9883041.426900585 39.5637427.426900585 15.9883041.426900585.271345029 17.3532164.271345029 40.777193zM15.3842105 40.777193C15.3842105 26.1181287 24.3 11.9122807 39.5637427 11.9122807 54.6766082 11.9122807 63.5923977 26.1181287 63.5923977 40.777193 63.5923977 54.5298246 56.1877193 69.6421053 39.5637427 69.6421053 22.7888889 69.6421053 15.3842105 54.5298246 15.3842105 40.777193L15.3842105 40.777193zM99.9748538 96.225731L99.9748538 90.8467836 86.0385965 90.8467836C91.6128655 85.3701754 98.8988304 78.719883 98.8988304 71.4824561 98.8988304 64.7836257 94.6935673 61.5070175 88.1900585 61.5070175 84.7181287 61.5070175 81.148538 62.3871345 78.0678363 63.9520468L78.605848 69.6245614C80.8549708 68.1573099 83.5935673 66.8859649 86.4783626 66.8859649 89.2654971 66.8859649 92.0526316 68.3532164 92.0526316 71.4824561 92.0526316 77.7415205 80.4637427 87.4239766 77.2853801 90.5046784L77.2853801 96.225731 99.9748538 96.225731" transform="translate(1575.647 278)"/>
    <g transform="translate(1786.647 283.158)">
      <path fill="#000105" d="M99.8728873,50.0334507 C99.8728873,77.5954225 77.5292254,99.9390845 49.9672535,99.9390845 C22.4049296,99.9390845 0.0612676056,77.5954225 0.0612676056,50.0334507 C0.0612676056,22.4707746 22.4049296,0.127464789 49.9672535,0.127464789 C77.5292254,0.127464789 99.8728873,22.4707746 99.8728873,50.0334507"/>
      <path fill="#FFFFFE" d="M50.3626761,77.8617515 C36.6507042,77.9070423 22.3852113,66.2042254 22.3226953,47.4126761 C22.281338,34.9855634 28.9859155,23.0235915 37.5559859,15.9267606 C45.9151408,9.00492958 57.3669014,4.56302817 67.7528169,4.52838635 C69.0897887,4.52394366 70.4880282,4.63556338 71.3440141,4.925 C62.2630282,6.8084507 55.0355634,15.2598592 55.0672535,24.8478873 C55.0683099,25.1647887 55.096831,25.5035211 55.128169,25.6612676 C70.3242958,29.3623239 77.2225352,38.531338 77.2649197,51.2183099 C77.3066901,63.9049296 67.2908451,77.8052817 50.3626761,77.8617515"/>
    </g>
    <path fill="#000" fill-rule="nonzero" d="M19.3041667,89.2875 C28.0558655,96.0851598 38.8226323,99.7737744 49.9041667,99.7708351 C62.5125,99.7708351 74.0083333,95.0916667 82.7791667,87.4041667 C82.8875,87.3125 82.8375,87.25 82.7333333,87.3125 C78.7958333,89.9375 67.575,95.6791667 49.9041667,95.6791667 C34.55,95.6791667 24.8458333,92.2541667 19.3666667,89.1958333 C19.2625,89.1416667 19.225,89.2208333 19.3041667,89.2875 M53.2916667,91.8375 C65.575,91.8375 79.0708333,88.4875 87.1416667,81.8625 C89.35,80.0541667 91.4541667,77.6541667 93.3375,74.425 C94.4208333,72.5666667 95.4833333,70.3583333 96.3458333,68.1875 C96.3875,68.0833333 96.3208333,68.0291667 96.2416667,68.1458333 C88.7333333,79.1958333 67,86.0833333 44.5583333,86.0833333 C28.6958333,86.0833333 11.625,81.0125 4.94166667,71.325 C4.875,71.2375 4.8125,71.275 4.85,71.375 C11.075,84.6083333 29.9625,91.8333333 53.2916667,91.8333333 M39.875,69.8875 C14.3333333,69.8875 2.29166667,57.9916667 0.104166667,49.8708333 C0.0791666667,49.7541667 5.32907052e-15,49.7791667 5.32907052e-15,49.8875 C5.32907052e-15,52.6166667 0.275,56.1458333 0.745833333,58.4875 C0.966666667,59.625 1.89583333,61.4125 3.25416667,62.8416667 C9.44166667,69.2875 24.8625,78.3208333 51.5666667,78.3208333 C87.95,78.3208333 96.2708333,66.2 97.9666667,62.2125 C99.1833333,59.3625 99.8125,54.2125 99.8125,49.8875 C99.8125,48.8375 99.7875,48.0041667 99.7458333,47.1791667 C99.7458333,47.0458333 99.6708333,47.0375 99.6416667,47.1666667 C97.825,56.9166667 66.7375,69.8875 39.875,69.8875 M4.8125,28.4833333 C3.34583333,31.3875 1.72916667,36.2916667 1.24166667,38.825 C1.03333333,39.9083333 1.12083333,40.4333333 1.50416667,41.2416667 C4.5625,47.7416667 20.0458333,58.1333333 56.1708333,58.1333333 C78.2083333,58.1333333 95.325,52.7166667 98.1,42.8416667 C98.6083333,41.0208333 98.6375,39.1 97.9791667,36.5125 C97.2458333,33.6208333 95.875,30.25 94.7125,27.8833333 C94.6708333,27.8041667 94.6083333,27.8166667 94.6208333,27.9083333 C95.05,40.8666667 58.9166667,49.2166667 40.6833333,49.2166667 C20.9333333,49.2166667 4.45833333,41.35 4.45833333,31.4125 C4.45833333,30.4583333 4.65833333,29.5041667 4.90416667,28.5125 C4.92916667,28.4208333 4.85,28.4041667 4.8125,28.4833333 M82.8625,12.575 C83.0708333,12.9041667 83.1791667,13.2541667 83.1791667,13.725 C83.1791667,19.2666667 66.2125,29.075 39.2083333,29.075 C19.3666667,29.075 15.6541667,21.7125 15.6541667,17.0333333 C15.6541667,15.3583333 16.2958333,13.6458333 17.7083333,11.9083333 C17.7833333,11.8041667 17.7208333,11.7666667 17.6291667,11.8416667 C15.0480622,14.0297966 12.6957281,16.4742696 10.6083333,19.1375 C9.6125,20.3916667 8.99583333,21.5041667 8.99583333,22.1708333 C8.99583333,31.8708333 33.3208333,38.9041667 56.0666667,38.9041667 C80.3,38.9041667 91.1166667,30.9916667 91.1166667,24.0416667 C91.1166667,21.5583333 90.15,20.1041667 87.675,17.2916667 C86.0666667,15.4625 84.55,13.975 82.9416667,12.5083333 C82.8625,12.4458333 82.8083333,12.4958333 82.8625,12.575 M75.4333333,7.03333333 C67.7231699,2.40715116 58.8956941,-0.0248350042 49.9041667,-0.000188319127 C40.4791667,-0.000188319127 31.5291667,2.6375 24.025,7.24166667 C21.775,8.625 20.5041667,9.7375 20.5041667,11.1666667 C20.5041667,15.375 30.3375,19.8958333 47.7875,19.8958333 C65.05,19.8958333 78.4416667,14.9375 78.4416667,10.1708333 C78.4416667,9.03333333 77.4458333,8.2375 75.4333333,7.03333333" transform="translate(1575.824 399)"/>
    <path fill="#000" fill-rule="nonzero" d="M0.541666667,99.9791667 C23.4291667,92.4458333 56.6125,74.8958333 79.6916667,59.2208333 C81.6291667,57.9125 83.1375,56.6916667 83.1375,54.5625 C83.1375,50.8583333 76.2416667,45.8958333 72.8958333,43.9166667 C54.7333333,62.4833333 18.5916667,90.3083333 0.5375,99.9791667 M21.7708333,84.2083333 C35.8875,74.6083333 56.3958333,56.55 63.3333333,46.725 C64.9708333,44.4166667 66.1791667,43.075 66.1791667,40.6583333 C66.1791667,36.6916667 61.4791667,33.7833333 58.0958333,31.7625 C49.9875,50.5541667 31.7791667,73.95 21.7708333,84.2083333 M32.5666667,69.5083333 C42.3333333,57.1458333 50.0166667,42.6166667 50.0166667,32.1833333 C50.0166667,26.7333333 46.0458333,22.925 40.8666667,20.0333333 C40.9666667,31.3708333 36.975,57.9541667 32.5666667,69.5083333 M34.6333333,57.5833333 C36.4583333,45.7208333 35.3833333,31.3958333 33.0541667,22.4083333 C31.7875,17.5166667 27.3041667,11.9916667 23.1541667,10.2708333 C28.5916667,25.45 33.2625,47.0708333 34.6333333,57.5833333 M30.6125,40.9375 C26.3375,29.5708333 15.6791667,5.875 0,0 C10.2083333,11.0833333 25.3458333,33.0625 30.6125,40.9375" transform="translate(1794.98 395)"/>
    <path fill="#000" fill-rule="nonzero" d="M425,547 L425,1149 L429,1149 L424.5,1158 L420,1149 L424,1149 L424,547 L425,547 Z"/>
    <text fill="#000" font-family="Helvetica" font-size="36" transform="rotate(-90 237.5 967)">
      <tspan x="125.457" y="959">Hacker enters</tspan> <tspan x="92.41" y="1002">phished password</tspan>
    </text>
    <text fill="#000" font-family="Helvetica" font-size="36" transform="rotate(-90 421.5 971)">
      <tspan x="309.457" y="963">Hacker enters</tspan> <tspan x="316.444" y="1006">phished OTP</tspan>
    </text>
    <text fill="#000" font-family="Helvetica" font-size="36" transform="rotate(-33 875 1076.5)">
      <tspan x="781.291" y="1047">OTP is sent</tspan> <tspan x="789.957" y="1090">to provider</tspan>
    </text>
    <text fill="#000" font-family="Helvetica" font-size="36">
      <tspan x="980.282" y="42">OTP from provider</tspan> <tspan x="1020.94" y="85">is intercepted</tspan>
    </text>
    <path fill="#8B0000" fill-rule="nonzero" d="M0.272727273,0.409090909 C4.36363636,4.54545455 11.0454545,7.86363636 19.3181818,10.2272727 C27.1363636,3.81818182 37.1363636,0 48,0 C58.8636364,0 68.8636364,3.81818182 76.6818182,10.2272727 C84.9545455,7.86363636 91.6363636,4.54545455 95.7272727,0.409090909 C95.5909091,7.81818182 91.8636364,14.5909091 85.6363636,20 C90.5909091,27.2727273 93.4545455,36 93.4545455,45.4545455 C93.4545455,70.5583977 73.1038523,90.9090909 48,90.9090909 C35.944705,90.9090909 24.3831635,86.1201436 15.8587827,77.5957628 C7.33440183,69.0713819 2.54545455,57.5098404 2.54545455,45.4545455 C2.54545455,36 5.40909091,27.2727273 10.3636364,20 C4.13636364,14.5909091 0.409090909,7.81818182 0.272727273,0.409090909 L0.272727273,0.409090909 Z M84.3636364,45.4545455 C84.3636364,25.3714636 68.0830818,9.09090909 48,9.09090909 C27.9169182,9.09090909 11.6363636,25.3714636 11.6363636,45.4545455 C11.6363636,65.5376273 27.9169182,81.8181818 48,81.8181818 C57.644236,81.8181818 66.8934692,77.987024 73.7129739,71.1675193 C80.5324785,64.3480146 84.3636364,55.0987814 84.3636364,45.4545455 L84.3636364,45.4545455 Z M41.1818182,36.3636364 C41.1818182,40 38,43.1818182 34.3636364,43.1818182 C30.7272727,43.1818182 27.5454545,40 27.5454545,36.3636364 L27.5454545,29.5454545 L41.1818182,36.3636364 L41.1818182,36.3636364 Z M68.4545455,36.3636364 C68.4545455,40 65.2727273,43.1818182 61.6363636,43.1818182 C58,43.1818182 54.8181818,40 54.8181818,36.3636364 L68.4545455,29.5454545 L68.4545455,36.3636364 L68.4545455,36.3636364 Z M48,69.2272727 C40.0454545,69.2272727 33.0454545,65.9090909 28.9545455,61 L35.4090909,54.5454545 C37.4545455,57.8181818 42.3181818,60.1363636 48,60.1363636 C53.6818182,60.1363636 58.5454545,57.8181818 60.5909091,54.5454545 L67.0454545,61 C62.9545455,65.9090909 55.9545455,69.2272727 48,69.2272727 Z" transform="translate(196.5 349)"/>
    <path fill="#8B0000" fill-rule="nonzero" d="M390.759349,100.072521 L389.938375,110.10128 L386.518,108.026 L245.66813,340.186828 L244.813172,339.66813 L385.663,107.507 L382.243758,105.432997 L390.759349,100.072521 Z"/>
    <path fill="#000" fill-rule="nonzero" d="M52.3636364,18.1818182 C52.3636364,28.2233591 44.5489702,36.3636364 34.9090909,36.3636364 C25.2692116,36.3636364 17.4545455,28.2233591 17.4545455,18.1818182 C17.4545455,8.14027728 25.2692116,0 34.9090909,0 C44.5489702,0 52.3636364,8.14027728 52.3636364,18.1818182 L52.3636364,18.1818182 Z M69.8181818,63.6363636 L69.8181818,72.7272727 L0,72.7272727 L0,63.6363636 C0,53.5909091 15.6218182,45.4545455 34.9090909,45.4545455 C54.1963636,45.4545455 69.8181818,53.5909091 69.8181818,63.6363636 L69.8181818,63.6363636 Z M85.0909091,47.7272727 L85.0909091,54.5454545 L78.5454545,54.5454545 L78.5454545,47.7272727 L85.0909091,47.7272727 L85.0909091,47.7272727 Z M76.3636364,25 L69.8181818,25 L69.8181818,22.7272727 C69.8181818,15.196117 75.6791815,9.09090909 82.9090909,9.09090909 C90.1390004,9.09090909 96,15.196117 96,22.7272727 C96,27.1363636 93.8181818,31.2727273 90.3709091,33.6818182 L89.0618182,34.5454545 C86.5745455,36.3636364 85.0909091,39.1363636 85.0909091,42.2727273 L85.0909091,43.1818182 L78.5454545,43.1818182 L78.5454545,42.2727273 C78.5454545,36.8636364 81.1636364,31.8181818 85.4836364,28.8636364 L86.7490909,28 C88.4509091,26.8181818 89.4545455,24.8636364 89.4545455,22.7272727 C89.4545455,18.9616949 86.5240456,15.9090909 82.9090909,15.9090909 C79.2941362,15.9090909 76.3636364,18.9616949 76.3636364,22.7272727 L76.3636364,25 Z" transform="translate(198 14)"/>
    <path fill="#000" fill-rule="nonzero" d="M50,77.2727273 L9.09090909,77.2727273 L9.09090909,13.6363636 L50,13.6363636 L50,77.2727273 Z M29.5454545,95.4545455 C25.7798767,95.4545455 22.7272727,92.4019415 22.7272727,88.6363636 C22.7272727,84.8707858 25.7798767,81.8181818 29.5454545,81.8181818 C33.3110324,81.8181818 36.3636364,84.8707858 36.3636364,88.6363636 C36.3636364,92.4019415 33.3110324,95.4545455 29.5454545,95.4545455 L29.5454545,95.4545455 Z M47.7272727,0 L11.3636364,0 C5.0876733,0 0,5.0876733 0,11.3636364 L0,88.6363636 C0,94.9123267 5.0876733,100 11.3636364,100 L47.7272727,100 C54.0032358,100 59.0909091,94.9123267 59.0909091,88.6363636 L59.0909091,11.3636364 C59.0909091,5.0876733 54.0032358,0 47.7272727,0 Z" transform="translate(391.102 .5)"/>
    <path fill="#000" fill-rule="nonzero" d="M422.004201,99.9958336 L423.004166,100.004201 L421.07,331.004 L425.07097,331.037953 L420.495816,339.999982 L416.071285,330.962642 L420.07,330.995 L422.004201,99.9958336 Z"/>
    <path fill="#8B0000" fill-rule="nonzero" d="M50,24 L44.4545455,17.6818182 L45.2272727,9.31818182 L37.0227273,7.45454545 L32.7272727,0.227272727 L25,3.54545455 L17.2727273,0.227272727 L12.9772727,7.45454545 L4.77272727,9.29545455 L5.54545455,17.6590909 L0,24 L5.54545455,30.3181818 L4.77272727,38.7045455 L12.9772727,40.5681818 L17.2727273,47.7954545 L25,44.4545455 L32.7272727,47.7727273 L37.0227273,40.5454545 L45.2272727,38.6818182 L44.4545455,30.3181818 L50,24 L50,24 Z M27.2727273,35.3636364 L22.7272727,35.3636364 L22.7272727,30.8181818 L27.2727273,30.8181818 L27.2727273,35.3636364 L27.2727273,35.3636364 Z M27.2727273,26.2727273 L22.7272727,26.2727273 L22.7272727,12.6363636 L27.2727273,12.6363636 L27.2727273,26.2727273 Z" transform="translate(256 182)"/>
    <text fill="#000" font-family="Helvetica" font-size="36">
      <tspan x="435.296" y="206">Victim forwards</tspan> <tspan x="520.998" y="249">OTP</tspan>
    </text>
  </g>
</svg>
