<svg xmlns="http://www.w3.org/2000/svg" width="1926" height="1404">
    <g fill="none" fill-rule="evenodd">
        <path fill="#000" fill-rule="nonzero" d="M236.647 1225.09l19.773 16.365 8.409-5.5v6.136l-28.182 16.818-28.09-16.818v-6.136l8.454 5.5 19.636-16.364zm-19.636-54.817l19.636 16.318 19.636-16.318 28.091 18.182-19.409 15.636 19.41 15.545-28.092 18.319-19.636-16.41-19.636 16.41-28.091-18.319 19.409-15.545-19.41-15.636 28.092-18.182zm19.636 50.818l27.864-17-27.864-17.046-27.864 17.046 27.864 17zM471.397 1216.5h-45.85v13.65h32.55c-1.65 19.05-17.5 27.2-32.5 27.2-19.15 0-35.95-15.1-35.95-36.35 0-20.5 16-36.35 36-36.35 15.45 0 24.5 9.85 24.5 9.85l9.5-9.9s-12.2-13.6-34.5-13.6c-28.4 0-50.35 24-50.35 50 0 25.25 20.65 50 51.1 50 26.75 0 46.25-18.35 46.25-45.45 0-5.75-.75-9.05-.75-9.05zM197.758 1281h77.778c6.136 0 11.111 4.975 11.111 11.111v77.778c0 6.136-4.975 11.111-11.111 11.111h-77.778c-6.136 0-11.111-4.975-11.111-11.111v-77.778c0-6.136 4.975-11.111 11.111-11.111zm72.222 11.111h-13.889c-10.738 0-19.444 8.706-19.444 19.445v13.888h-11.111v16.667h11.111V1381h16.667v-38.889h16.666v-16.667h-16.666v-11.11a5.556 5.556 0 0 1 5.555-5.556h11.111v-16.667zM.647 1243v10h20v10h-10c-5.523 0-10 4.477-10 10v20h30v-10h-20v-10h10c5.523 0 10-4.477 10-10v-10c0-5.55-4.5-10-10-10h-20zm35 0v50h10v-20h15v-10h-15v-10h20v-10h-30zm45 0c-5.523 0-10 4.477-10 10v40h10v-15h10v15h10v-40c0-5.523-4.477-10-10-10h-10zm0 10h10v15h-10v-15zM470.545 1307.09c-3.5 1.592-7.272 2.637-11.181 3.137 4-2.409 7.09-6.227 8.545-10.818-3.773 2.273-7.954 3.864-12.364 4.773-3.59-3.91-8.636-6.182-14.363-6.182-10.682 0-19.41 8.727-19.41 19.5 0 1.545.183 3.045.5 4.455-16.181-.819-30.59-8.591-40.181-20.364a19.292 19.292 0 0 0-2.636 9.773c0 6.772 3.409 12.772 8.681 16.181-3.227 0-6.227-.909-8.863-2.272v.136c0 9.455 6.727 17.364 15.636 19.136a19.186 19.186 0 0 1-5.136.682c-1.228 0-2.455-.136-3.637-.363 2.455 7.681 9.591 13.409 18.182 13.545-6.636 5.273-15.045 8.364-24.227 8.364-1.546 0-3.091-.091-4.636-.273a55.202 55.202 0 0 0 29.909 8.773c35.818 0 55.5-29.728 55.5-55.5 0-.864 0-1.682-.046-2.546 3.818-2.727 7.091-6.182 9.727-10.136z"/>
        <path stroke="#000" d="M144.5 1157.5h374v246h-374z"/>
        <path fill="#000" fill-rule="nonzero" d="M1118.92 895.23l-5.137 8.651-2.164-3.365-592.27 380.675-.54-.841 592.27-380.675-2.162-3.365 10.004-1.08z"/>
        <path fill="#8B0000" fill-rule="nonzero" d="M441.102 417.273h-40.91v-63.637h40.91v63.637zm-20.455 18.182a6.818 6.818 0 1 1 0-13.637 6.818 6.818 0 0 1 0 13.637zM438.83 340h-36.363c-6.276 0-11.364 5.088-11.364 11.364v77.272c0 6.276 5.088 11.364 11.364 11.364h36.363c6.276 0 11.364-5.088 11.364-11.364v-77.272c0-6.276-5.088-11.364-11.364-11.364z"/>
        <path fill="#000" fill-rule="nonzero" d="M385 535v-40h-10v-10h20v50h-10zm90-10c0 5.55-4.5 10-10 10h-20v-10h20v-10h-10v-10h10v-10h-20v-10h20c5.523 0 10 4.477 10 10v7.5a7.5 7.5 0 0 1-7.5 7.5 7.5 7.5 0 0 1 7.5 7.5v7.5zm-40 0v10h-30v-20c0-5.55 4.5-10 10-10h10v-10h-20v-10h20c5.523 0 10 4.477 10 10v10c0 5.55-4.5 10-10 10h-10v10h20zM1128 895v-40h-10v-10h20v50h-10zm90-10c0 5.55-4.5 10-10 10h-20v-10h20v-10h-10v-10h10v-10h-20v-10h20c5.523 0 10 4.477 10 10v7.5a7.5 7.5 0 0 1-7.5 7.5 7.5 7.5 0 0 1 7.5 7.5v7.5zm-40 0v10h-30v-20c0-5.55 4.5-10 10-10h10v-10h-20v-10h20c5.523 0 10 4.477 10 10v10c0 5.55-4.5 10-10 10h-10v10h20zM1716.918 507.226l-5.065 8.694-2.192-3.347-491.305 321.62-.548-.837 491.306-321.619-2.19-3.347 9.994-1.164zM794 75V35h-10V25h20v50h-10zm90-10c0 5.55-4.5 10-10 10h-20V65h20V55h-10V45h10V35h-20V25h20c5.523 0 10 4.477 10 10v7.5a7.5 7.5 0 0 1-7.5 7.5 7.5 7.5 0 0 1 7.5 7.5V65zm-40 0v10h-30V55c0-5.55 4.5-10 10-10h10V35h-20V25h20c5.523 0 10 4.477 10 10v10c0 5.55-4.5 10-10 10h-10v10h20zM266.147 485h25v50h-25v10a5 5 0 0 0 5 5h10v10h-12.5c-2.75 0-7.5-2.25-7.5-5 0 2.75-4.75 5-7.5 5h-12.5v-10h10a5 5 0 0 0 5-5v-70a5 5 0 0 0-5-5h-10v-10h12.5c2.75 0 7.5 2.25 7.5 5 0-2.75 4.75-5 7.5-5h12.5v10h-10a5 5 0 0 0-5 5v10zm-75 0h55v10h-45v30h45v10h-55v-50zm90 40v-30h-15v30h15zm-57.5-15a7.5 7.5 0 1 0-15 0 7.5 7.5 0 0 0 15 0zm22.5-5.55c-3.05-2.8-7.8-2.55-10.6.55-2.8 3-2.55 7.75.6 10.55 2.75 2.6 7.15 2.6 10 0v-11.1zM242 570v579h4l-4.5 9-4.5-9h4V570h1zM762.647 0h-80c-5.523 0-10 4.477-10 10v90l20-20h70c5.523 0 10-4.477 10-10V10c0-5.55-4.5-10-10-10zM465 46v4h207v1H465v4l-9-4.5 9-4.5zM1703.297 170.65c-9.05 9.05-14.65 21.55-14.65 35.35s5.6 26.3 14.65 35.35l7.05-7.05c-7.25-7.2-11.7-17.2-11.7-28.3 0-11.05 4.45-21.1 11.7-28.3l-7.05-7.05zm70.7 0l-7.05 7.05c7.25 7.2 11.7 17.25 11.7 28.3 0 11.1-4.45 21.1-11.7 28.3l7.05 7.05c9.05-9.05 14.65-21.55 14.65-35.35s-5.6-26.3-14.65-35.35zm-56.55 14.15c-5.45 5.45-8.8 12.95-8.8 21.2s3.35 15.75 8.8 21.2l7.05-7.05c-3.6-3.6-5.85-8.6-5.85-14.15 0-5.55 2.25-10.55 5.85-14.15l-7.05-7.05zm42.4 0l-7.05 7.05c3.6 3.6 5.85 8.6 5.85 14.15 0 5.55-2.25 10.55-5.85 14.15l7.05 7.05c5.45-5.45 8.8-12.95 8.8-21.2s-3.35-15.75-8.8-21.2zm-21.2 11.2c-5.523 0-10 4.477-10 10s4.477 10 10 10 10-4.477 10-10-4.477-10-10-10z"/>
        <path stroke="#000" d="M1551.5 261.5h374v246h-374z"/>
        <path fill="#000" fill-rule="nonzero" d="M896.056 45.27l10.061.14-1.838 3.552 647.895 335.324-.46.888L903.818 49.85l-1.838 3.552-5.924-8.133z"/>
        <path fill="#000" d="M1575.918 318.777c0 22.065 16.02 40.35 39.293 40.35 23.122 0 39.141-18.285 39.141-40.35 0-23.424-15.717-40.35-39.141-40.35-23.576 0-39.293 16.926-39.293 40.35zm15.113 0c0-14.659 8.916-28.865 24.18-28.865 15.113 0 24.028 14.206 24.028 28.865 0 13.753-7.404 28.865-24.028 28.865-16.775 0-24.18-15.112-24.18-28.865zm84.59 55.449v-5.38h-13.935c5.574-5.476 12.86-12.126 12.86-19.364 0-6.698-4.205-9.975-10.709-9.975-3.472 0-7.041.88-10.122 2.445l.538 5.673c2.249-1.468 4.988-2.739 7.872-2.739 2.787 0 5.575 1.467 5.575 4.596 0 6.26-11.59 15.942-14.768 19.023v5.72h22.69"/>
        <path fill="#000105" d="M1886.52 333.191c0 27.562-22.344 49.906-49.906 49.906-27.562 0-49.906-22.344-49.906-49.906 0-27.562 22.344-49.906 49.906-49.906 27.562 0 49.906 22.344 49.906 49.906"/>
        <path fill="#FFFFFE" d="M1837.01 361.02c-13.712.045-27.978-11.658-28.04-30.45-.042-12.426 6.663-24.388 15.233-31.485 8.36-6.922 19.81-11.364 30.197-11.399 1.337-.004 2.735.108 3.591.397-9.081 1.883-16.308 10.335-16.277 19.923.001.317.03.656.061.813 15.196 3.701 22.095 12.87 22.137 25.557.042 12.687-9.974 26.587-26.902 26.644"/>
        <path fill="#000" fill-rule="nonzero" d="M1595.128 488.288a49.863 49.863 0 0 0 30.6 10.483c12.608 0 24.104-4.68 32.875-12.367.108-.091.058-.154-.046-.091-3.937 2.625-15.158 8.366-32.829 8.366-15.354 0-25.058-3.425-30.537-6.483-.104-.054-.142.025-.063.091m33.988 2.55c12.283 0 25.779-3.35 33.85-9.974 2.208-1.809 4.312-4.209 6.196-7.438 1.083-1.858 2.145-4.067 3.008-6.237.041-.105-.025-.159-.104-.042-7.509 11.05-29.242 17.937-51.684 17.937-15.862 0-32.933-5.07-39.616-14.758-.067-.088-.13-.05-.092.05 6.225 13.233 25.112 20.458 48.442 20.458m-13.417-21.946c-25.542 0-37.583-11.895-39.77-20.016-.026-.117-.105-.092-.105.016 0 2.73.275 6.259.746 8.6.22 1.138 1.15 2.925 2.508 4.355 6.188 6.445 21.608 15.479 48.313 15.479 36.383 0 44.704-12.121 46.4-16.109 1.216-2.85 1.846-8 1.846-12.325 0-1.05-.025-1.883-.067-2.708 0-.133-.075-.142-.104-.012-1.817 9.75-32.904 22.72-59.767 22.72m-35.063-41.404c-1.466 2.904-3.083 7.809-3.57 10.342-.209 1.083-.121 1.608.262 2.417 3.058 6.5 18.542 16.891 54.667 16.891 22.037 0 39.154-5.416 41.929-15.291.508-1.821.538-3.742-.12-6.33-.734-2.891-2.105-6.262-3.268-8.629-.041-.079-.104-.066-.091.025.429 12.959-35.704 21.309-53.938 21.309-19.75 0-36.225-7.867-36.225-17.805 0-.954.2-1.908.446-2.9.025-.091-.054-.108-.092-.029m78.05-15.908c.209.33.317.68.317 1.15 0 5.542-16.966 15.35-43.97 15.35-19.842 0-23.555-7.363-23.555-12.042 0-1.675.642-3.387 2.054-5.125.075-.104.013-.141-.079-.066a50.004 50.004 0 0 0-7.02 7.295c-.996 1.255-1.613 2.367-1.613 3.034 0 9.7 24.325 16.733 47.07 16.733 24.234 0 35.05-7.912 35.05-14.862 0-2.484-.966-3.938-3.441-6.75-1.608-1.83-3.125-3.317-4.733-4.784-.08-.062-.134-.012-.08.067m-7.429-5.542a49.356 49.356 0 0 0-25.529-7.033c-9.425 0-18.375 2.637-25.879 7.242-2.25 1.383-3.52 2.495-3.52 3.925 0 4.208 9.832 8.729 27.282 8.729 17.263 0 30.655-4.959 30.655-9.725 0-1.138-.996-1.934-3.009-3.138M1795.522 494.98c22.887-7.534 56.07-25.084 79.15-40.76 1.937-1.307 3.446-2.528 3.446-4.657 0-3.705-6.896-8.667-10.242-10.646-18.163 18.566-54.304 46.391-72.358 56.062m21.233-15.77c14.117-9.6 34.625-27.659 41.562-37.484 1.638-2.308 2.846-3.65 2.846-6.067 0-3.966-4.7-6.875-8.083-8.895-8.108 18.791-26.317 42.187-36.325 52.445m10.796-14.7c9.766-12.362 17.45-26.891 17.45-37.325 0-5.45-3.971-9.258-9.15-12.15.1 11.338-3.892 37.921-8.3 49.475m2.066-11.925c1.825-11.862.75-26.187-1.579-35.175-1.267-4.891-5.75-10.416-9.9-12.137 5.438 15.179 10.108 36.8 11.48 47.312m-4.022-16.645c-4.275-11.367-14.933-35.063-30.612-40.938 10.208 11.083 25.346 33.063 30.613 40.938M425 547v602h4l-4.5 9-4.5-9h4V547h1z"/>
        <text fill="#000" font-family="Helvetica" font-size="36" transform="rotate(-90 237.5 967)" x="125.457" y="959">Hacker enters</text>
        <text fill="#000" font-family="Helvetica" font-size="36" transform="rotate(-90 237.5 967)" x="92.41" y="1002">phished password</text>
        <text fill="#000" font-family="Helvetica" font-size="36" transform="rotate(-90 421.5 971)" x="309.457" y="963">Hacker enters</text>
        <text fill="#000" font-family="Helvetica" font-size="36" transform="rotate(-90 421.5 971)" x="316.444" y="1006">phished OTP</text>
        <text fill="#000" font-family="Helvetica" font-size="36" transform="rotate(-33 875 1076.5)" x="781.291" y="1047">OTP is sent</text>
        <text fill="#000" font-family="Helvetica" font-size="36" transform="rotate(-33 875 1076.5)" x="789.957" y="1090">to provider</text>
        <text fill="#000" font-family="Helvetica" font-size="36" x="1007.941" y="42">Provider sends</text>
        <text fill="#000" font-family="Helvetica" font-size="36" x="1090.998" y="85">OTP</text>
        <path fill="#8B0000" fill-rule="nonzero" d="M196.773 349.41c4.09 4.135 10.772 7.454 19.045 9.817C223.636 352.818 233.636 349 244.5 349c10.864 0 20.864 3.818 28.682 10.227 8.273-2.363 14.954-5.682 19.045-9.818-.136 7.41-3.863 14.182-10.09 19.591 4.954 7.273 7.818 16 7.818 25.455 0 25.103-20.351 45.454-45.455 45.454a45.455 45.455 0 0 1-45.455-45.454c0-9.455 2.864-18.182 7.819-25.455-6.228-5.41-9.955-12.182-10.091-19.59zm84.09 45.045c0-20.084-16.28-36.364-36.363-36.364s-36.364 16.28-36.364 36.364c0 20.083 16.28 36.363 36.364 36.363a36.364 36.364 0 0 0 36.364-36.363zm-43.181-9.091c0 3.636-3.182 6.818-6.818 6.818-3.637 0-6.819-3.182-6.819-6.818v-6.819l13.637 6.819zm27.273 0c0 3.636-3.182 6.818-6.819 6.818-3.636 0-6.818-3.182-6.818-6.818l13.637-6.819v6.819zM244.5 418.227c-7.955 0-14.955-3.318-19.045-8.227l6.454-6.455c2.046 3.273 6.91 5.591 12.591 5.591 5.682 0 10.545-2.318 12.59-5.59l6.455 6.454c-4.09 4.91-11.09 8.227-19.045 8.227zM390.76 100.073l-.822 10.028-3.42-2.075-140.85 232.16-.855-.518 140.85-232.161-3.42-2.074 8.516-5.36z"/>
        <path fill="#000" fill-rule="nonzero" d="M250.364 32.182c0 10.041-7.815 18.182-17.455 18.182-9.64 0-17.454-8.14-17.454-18.182 0-10.042 7.814-18.182 17.454-18.182s17.455 8.14 17.455 18.182zm17.454 45.454v9.091H198v-9.09c0-10.046 15.622-18.182 34.91-18.182 19.286 0 34.908 8.136 34.908 18.181zm15.273-15.909v6.818h-6.546v-6.818h6.546zM274.364 39h-6.546v-2.273c0-7.53 5.861-13.636 13.091-13.636 7.23 0 13.091 6.105 13.091 13.636 0 4.41-2.182 8.546-5.63 10.955l-1.308.863c-2.487 1.819-3.971 4.591-3.971 7.728v.909h-6.546v-.91c0-5.408 2.619-10.454 6.939-13.408l1.265-.864c1.702-1.182 2.706-3.136 2.706-5.273 0-3.765-2.931-6.818-6.546-6.818s-6.545 3.053-6.545 6.818V39zM441.102 77.773h-40.91V14.136h40.91v63.637zm-20.455 18.182a6.818 6.818 0 1 1 0-13.637 6.818 6.818 0 0 1 0 13.637zM438.83.5h-36.363c-6.276 0-11.364 5.088-11.364 11.364v77.272c0 6.276 5.088 11.364 11.364 11.364h36.363c6.276 0 11.364-5.088 11.364-11.364V11.864C450.193 5.588 445.105.5 438.829.5z"/>
        <path fill="#000" fill-rule="nonzero" d="M422.004 99.996l1 .008-1.934 231 4.001.034-4.575 8.962-4.425-9.037 3.999.032 1.934-231z"/>
        <path fill="#8B0000" fill-rule="nonzero" d="M306 206l-5.545-6.318.772-8.364-8.204-1.863-4.296-7.228-7.727 3.318-7.727-3.318-4.296 7.228-8.204 1.84.772 8.364L256 206l5.545 6.318-.772 8.387 8.204 1.863 4.296 7.227 7.727-3.34 7.727 3.318 4.296-7.228 8.204-1.863-.772-8.364L306 206zm-22.727 11.364h-4.546v-4.546h4.546v4.546zm0-9.091h-4.546v-13.637h4.546v13.637z"/>
        <text fill="#000" font-family="Helvetica" font-size="36" x="435.296" y="206">Victim forwards</text>
        <text fill="#000" font-family="Helvetica" font-size="36" x="520.998" y="249">OTP</text>
    </g>
</svg>
