<svg width="1926" height="1289"
    xmlns="http://www.w3.org/2000/svg">
    <g fill="none" fill-rule="evenodd">
        <path d="M236.647 1110.09l19.773 16.365 8.409-5.5v6.136l-28.182 16.818-28.09-16.818v-6.136l8.454 5.5 19.636-16.364zm-19.636-54.817l19.636 16.318 19.636-16.318 28.091 18.182-19.409 15.636 19.41 15.545-28.092 18.319-19.636-16.41-19.636 16.41-28.091-18.319 19.409-15.545-19.41-15.636 28.092-18.182zm19.636 50.818l27.864-17-27.864-17.046-27.864 17.046 27.864 17zM471.397 1101.5h-45.85v13.65h32.55c-1.65 19.05-17.5 27.2-32.5 27.2-19.15 0-35.95-15.1-35.95-36.35 0-20.5 16-36.35 36-36.35 15.45 0 24.5 9.85 24.5 9.85l9.5-9.9s-12.2-13.6-34.5-13.6c-28.4 0-50.35 24-50.35 50 0 25.25 20.65 50 51.1 50 26.75 0 46.25-18.35 46.25-45.45 0-5.75-.75-9.05-.75-9.05zM197.758 1166h77.778c6.136 0 11.111 4.975 11.111 11.111v77.778c0 6.136-4.975 11.111-11.111 11.111h-77.778c-6.136 0-11.11-4.975-11.11-11.111v-77.778c0-6.136 4.974-11.111 11.11-11.111zm72.222 11.111h-13.888c-10.74 0-19.445 8.706-19.445 19.445v13.888h-11.111v16.667h11.111V1266h16.667v-38.889h16.666v-16.667h-16.666v-11.11a5.556 5.556 0 0 1 5.555-5.556h11.111v-16.667zM.647 1128v10h20v10h-10c-5.523 0-10 4.477-10 10v20h30v-10h-20v-10h10c5.523 0 10-4.477 10-10v-10c0-5.55-4.5-10-10-10h-20zm35 0v50h10v-20h15v-10h-15v-10h20v-10h-30zm45 0c-5.523 0-10 4.477-10 10v40h10v-15h10v15h10v-40c0-5.523-4.477-10-10-10h-10zm0 10h10v15h-10v-15zM470.545 1192.09c-3.5 1.592-7.272 2.637-11.181 3.137 4-2.409 7.09-6.227 8.545-10.818-3.773 2.273-7.954 3.864-12.364 4.773-3.59-3.91-8.636-6.182-14.363-6.182-10.682 0-19.41 8.727-19.41 19.5 0 1.545.183 3.045.5 4.455-16.181-.819-30.59-8.591-40.181-20.364a19.292 19.292 0 0 0-2.636 9.773c0 6.772 3.409 12.772 8.681 16.181-3.227 0-6.227-.909-8.863-2.272v.136c0 9.455 6.727 17.364 15.636 19.136a19.186 19.186 0 0 1-5.136.682c-1.228 0-2.455-.136-3.637-.363 2.455 7.681 9.591 13.409 18.182 13.545-6.636 5.273-15.045 8.364-24.227 8.364-1.546 0-3.091-.091-4.636-.273a55.202 55.202 0 0 0 29.909 8.773c35.818 0 55.5-29.728 55.5-55.5 0-.864 0-1.682-.046-2.546 3.818-2.727 7.091-6.182 9.727-10.136z" fill-rule="nonzero" fill="#000"/>
        <path stroke="#000" d="M144.5 1042.5h374v246h-374z"/>
        <path d="M1118.92 780.23l-5.137 8.651-2.164-3.365-592.27 380.675-.54-.841 592.27-380.675-2.162-3.365 10.004-1.08z" fill="#000" fill-rule="nonzero"/>
        <path d="M441.102 302.273h-40.91v-63.637h40.91v63.637zm-20.455 18.182a6.818 6.818 0 1 1 0-13.637 6.818 6.818 0 0 1 0 13.637zM438.83 225h-36.364c-6.276 0-11.363 5.088-11.363 11.364v77.272c0 6.276 5.087 11.364 11.363 11.364h36.364c6.276 0 11.364-5.088 11.364-11.364v-77.272c0-6.276-5.088-11.364-11.364-11.364z" fill-rule="nonzero" fill="#8B0000"/>
        <path d="M385 420v-40h-10v-10h20v50h-10zm90-10c0 5.55-4.5 10-10 10h-20v-10h20v-10h-10v-10h10v-10h-20v-10h20c5.523 0 10 4.477 10 10v7.5a7.5 7.5 0 0 1-7.5 7.5 7.5 7.5 0 0 1 7.5 7.5v7.5zm-40 0v10h-30v-20c0-5.55 4.5-10 10-10h10v-10h-20v-10h20c5.523 0 10 4.477 10 10v10c0 5.55-4.5 10-10 10h-10v10h20zM1128 780v-40h-10v-10h20v50h-10zm90-10c0 5.55-4.5 10-10 10h-20v-10h20v-10h-10v-10h10v-10h-20v-10h20c5.523 0 10 4.477 10 10v7.5a7.5 7.5 0 0 1-7.5 7.5 7.5 7.5 0 0 1 7.5 7.5v7.5zm-40 0v10h-30v-20c0-5.55 4.5-10 10-10h10v-10h-20v-10h20c5.523 0 10 4.477 10 10v10c0 5.55-4.5 10-10 10h-10v10h20zM1716.918 392.226l-5.065 8.694-2.192-3.347-491.305 321.62-.548-.837 491.306-321.619-2.19-3.347 9.994-1.164zM807 299v-40h-10v-10h20v50h-10zm90-10c0 5.55-4.5 10-10 10h-20v-10h20v-10h-10v-10h10v-10h-20v-10h20c5.523 0 10 4.477 10 10v7.5a7.5 7.5 0 0 1-7.5 7.5 7.5 7.5 0 0 1 7.5 7.5v7.5zm-40 0v10h-30v-20c0-5.55 4.5-10 10-10h10v-10h-20v-10h20c5.523 0 10 4.477 10 10v10c0 5.55-4.5 10-10 10h-10v10h20zM266.147 370h25v50h-25v10a5 5 0 0 0 5 5h10v10h-12.5c-2.75 0-7.5-2.25-7.5-5 0 2.75-4.75 5-7.5 5h-12.5v-10h10a5 5 0 0 0 5-5v-70a5 5 0 0 0-5-5h-10v-10h12.5c2.75 0 7.5 2.25 7.5 5 0-2.75 4.75-5 7.5-5h12.5v10h-10a5 5 0 0 0-5 5v10zm-75 0h55v10h-45v30h45v10h-55v-50zm90 40v-30h-15v30h15zm-57.5-15a7.5 7.5 0 1 0-15 0 7.5 7.5 0 0 0 15 0zm22.5-5.55c-3.05-2.8-7.8-2.55-10.6.55-2.8 3-2.55 7.75.6 10.55 2.75 2.6 7.15 2.6 10 0v-11.1zM242 455v579h4l-4.5 9-4.5-9h4V455h1zM775.647 224h-80c-5.523 0-10 4.477-10 10v90l20-20h70c5.523 0 10-4.477 10-10v-60c0-5.55-4.5-10-10-10zM473 270v4h212v1H473v4l-9-4.5 9-4.5z" fill-rule="nonzero" fill="#000"/>
        <path d="M1691.297 63.65c-9.05 9.05-14.65 21.55-14.65 35.35s5.6 26.3 14.65 35.35l7.05-7.05c-7.25-7.2-11.7-17.2-11.7-28.3 0-11.05 4.45-21.1 11.7-28.3l-7.05-7.05zm70.7 0l-7.05 7.05c7.25 7.2 11.7 17.25 11.7 28.3 0 11.1-4.45 21.1-11.7 28.3l7.05 7.05c9.05-9.05 14.65-21.55 14.65-35.35s-5.6-26.3-14.65-35.35zm-56.55 14.15c-5.45 5.45-8.8 12.95-8.8 21.2s3.35 15.75 8.8 21.2l7.05-7.05c-3.6-3.6-5.85-8.6-5.85-14.15 0-5.55 2.25-10.55 5.85-14.15l-7.05-7.05zm42.4 0l-7.05 7.05c3.6 3.6 5.85 8.6 5.85 14.15 0 5.55-2.25 10.55-5.85 14.15l7.05 7.05c5.45-5.45 8.8-12.95 8.8-21.2s-3.35-15.75-8.8-21.2zm-21.2 11.2c-5.523 0-10 4.477-10 10s4.477 10 10 10 10-4.477 10-10-4.477-10-10-10z" fill-rule="nonzero" fill="#8B0000"/>
        <path stroke="#8B0000" d="M1551.5 146.5h374v246h-374z"/>
        <path d="M918 265v4h625v1H918v4l-9-4.5 9-4.5z" fill="#000" fill-rule="nonzero"/>
        <g fill="#000">
            <path d="M1575.918 203.777c0 22.065 16.02 40.35 39.293 40.35 23.122 0 39.141-18.285 39.141-40.35 0-23.424-15.717-40.35-39.141-40.35-23.576 0-39.293 16.926-39.293 40.35zm15.113 0c0-14.659 8.916-28.865 24.18-28.865 15.113 0 24.028 14.206 24.028 28.865 0 13.753-7.404 28.865-24.028 28.865-16.775 0-24.18-15.112-24.18-28.865zM1675.622 259.226v-5.38h-13.936c5.574-5.476 12.86-12.126 12.86-19.364 0-6.698-4.205-9.975-10.709-9.975-3.472 0-7.041.88-10.122 2.445l.538 5.673c2.249-1.468 4.988-2.739 7.872-2.739 2.788 0 5.575 1.467 5.575 4.596 0 6.26-11.59 15.942-14.768 19.023v5.72h22.69"/>
        </g>
        <path d="M1886.52 218.191c0 27.562-22.344 49.906-49.906 49.906-27.562 0-49.906-22.344-49.906-49.906 0-27.562 22.344-49.906 49.906-49.906 27.562 0 49.906 22.344 49.906 49.906" fill="#000105"/>
        <path d="M1837.01 246.02c-13.712.045-27.978-11.658-28.04-30.45-.042-12.427 6.663-24.389 15.233-31.485 8.36-6.922 19.811-11.364 30.197-11.399 1.337-.004 2.735.107 3.591.397-9.08 1.883-16.308 10.335-16.277 19.923.001.317.03.655.061.813 15.196 3.701 22.095 12.87 22.137 25.557.042 12.687-9.974 26.587-26.902 26.644" fill="#FFFFFE"/>
        <path d="M1595.128 373.288a49.863 49.863 0 0 0 30.6 10.483c12.608 0 24.104-4.68 32.875-12.367.108-.091.058-.154-.046-.091-3.938 2.625-15.158 8.366-32.83 8.366-15.353 0-25.058-3.425-30.537-6.483-.104-.054-.141.025-.062.091m33.987 2.55c12.284 0 25.78-3.35 33.85-9.974 2.209-1.809 4.313-4.209 6.196-7.438 1.083-1.858 2.146-4.067 3.008-6.237.042-.105-.025-.159-.104-.042-7.508 11.05-29.241 17.937-51.683 17.937-15.863 0-32.933-5.07-39.617-14.758-.066-.088-.129-.05-.091.05 6.225 13.233 25.112 20.458 48.441 20.458m-13.416-21.946c-25.542 0-37.584-11.895-39.771-20.016-.025-.117-.104-.092-.104.016 0 2.73.275 6.259.745 8.6.221 1.138 1.15 2.925 2.509 4.355 6.187 6.445 21.608 15.479 48.312 15.479 36.384 0 44.704-12.121 46.4-16.109 1.217-2.85 1.846-8 1.846-12.325 0-1.05-.025-1.883-.067-2.708 0-.133-.075-.142-.104-.012-1.816 9.75-32.904 22.72-59.766 22.72m-35.063-41.404c-1.467 2.904-3.083 7.809-3.57 10.342-.21 1.083-.122 1.608.262 2.417 3.058 6.5 18.541 16.891 54.666 16.891 22.038 0 39.155-5.416 41.93-15.291.508-1.821.537-3.742-.121-6.33-.734-2.891-2.104-6.262-3.267-8.629-.042-.079-.104-.066-.092.025.43 12.959-35.704 21.309-53.937 21.309-19.75 0-36.225-7.867-36.225-17.805 0-.954.2-1.908.446-2.9.025-.091-.054-.108-.092-.029m78.05-15.908c.208.33.317.68.317 1.15 0 5.542-16.967 15.35-43.971 15.35-19.842 0-23.554-7.363-23.554-12.042 0-1.675.641-3.387 2.054-5.125.075-.104.012-.141-.08-.066a50.004 50.004 0 0 0-7.02 7.295c-.996 1.255-1.613 2.367-1.613 3.034 0 9.7 24.325 16.733 47.071 16.733 24.234 0 35.05-7.912 35.05-14.862 0-2.484-.966-3.938-3.441-6.75-1.609-1.83-3.125-3.317-4.734-4.784-.079-.062-.133-.012-.079.067m-7.43-5.542a49.356 49.356 0 0 0-25.528-7.033c-9.425 0-18.375 2.637-25.88 7.242-2.25 1.383-3.52 2.495-3.52 3.925 0 4.208 9.833 8.729 27.283 8.729 17.263 0 30.654-4.959 30.654-9.725 0-1.138-.996-1.934-3.008-3.138M1795.522 379.98c22.888-7.534 56.07-25.084 79.15-40.76 1.938-1.307 3.446-2.528 3.446-4.657 0-3.705-6.896-8.667-10.242-10.646-18.162 18.566-54.304 46.391-72.358 56.062m21.233-15.77c14.117-9.6 34.625-27.659 41.563-37.484 1.637-2.308 2.846-3.65 2.846-6.067 0-3.966-4.7-6.875-8.084-8.895-8.108 18.791-26.316 42.187-36.325 52.445m10.796-14.7c9.767-12.362 17.45-26.891 17.45-37.325 0-5.45-3.97-9.258-9.15-12.15.1 11.338-3.892 37.921-8.3 49.475m2.067-11.925c1.825-11.862.75-26.187-1.58-35.175-1.266-4.891-5.75-10.416-9.9-12.137 5.438 15.179 10.109 36.8 11.48 47.312m-4.021-16.645c-4.275-11.367-14.933-35.063-30.613-40.938 10.209 11.083 25.346 33.063 30.613 40.938M425 432v602h4l-4.5 9-4.5-9h4V432h1z" fill-rule="nonzero" fill="#000"/>
        <text transform="rotate(-90 244 856.5)" font-family="Helvetica" font-size="36" fill="#000" x="136.457" y="836">Hacker enters</text>
        <text transform="rotate(-90 244 856.5)" font-family="Helvetica" font-size="36" fill="#000" x="103.41" y="896">phished password</text>
        <text transform="rotate(-90 427 860.5)" font-family="Helvetica" font-size="36" fill="#000" x="319.457" y="840">Hacker enters</text>
        <text transform="rotate(-90 427 860.5)" font-family="Helvetica" font-size="36" fill="#000" x="326.444" y="900">phished OTP</text>
        <text transform="rotate(-33 870.973 983.193)" font-family="Helvetica" font-size="36" fill="#000" x="792.456" y="932.693">OTP is sent</text>
        <text transform="rotate(-33 870.973 983.193)" font-family="Helvetica" font-size="36" fill="#000" x="801.122" y="992.693">to provider</text>
        <text font-family="Helvetica" font-size="36" fill="#000" transform="translate(0 -9)" x="1020.941" y="264">Provider sends</text>
        <text font-family="Helvetica" font-size="36" fill="#000" transform="translate(0 -9)" x="1103.998" y="324">OTP</text>
        <path d="M196.773 234.41c4.09 4.135 10.772 7.454 19.045 9.817C223.636 237.818 233.636 234 244.5 234c10.864 0 20.864 3.818 28.682 10.227 8.273-2.363 14.954-5.682 19.045-9.818-.136 7.41-3.863 14.182-10.09 19.591 4.954 7.273 7.818 16 7.818 25.455 0 25.103-20.351 45.454-45.455 45.454a45.455 45.455 0 0 1-45.455-45.454c0-9.455 2.864-18.182 7.819-25.455-6.228-5.41-9.955-12.182-10.091-19.59zm84.09 45.045c0-20.084-16.28-36.364-36.363-36.364s-36.364 16.28-36.364 36.364c0 20.083 16.28 36.363 36.364 36.363a36.364 36.364 0 0 0 36.364-36.363zm-43.181-9.091c0 3.636-3.182 6.818-6.818 6.818-3.637 0-6.819-3.182-6.819-6.818v-6.819l13.637 6.819zm27.273 0c0 3.636-3.182 6.818-6.819 6.818-3.636 0-6.818-3.182-6.818-6.818l13.637-6.819v6.819zM244.5 303.227c-7.955 0-14.955-3.318-19.045-8.227l6.454-6.455c2.046 3.273 6.91 5.591 12.591 5.591 5.682 0 10.545-2.318 12.59-5.59l6.455 6.454c-4.09 4.91-11.09 8.227-19.045 8.227zM919.829 57.003c160.689-8.73 422.5 18.848 785.518 82.723l-2.132-.375 1.743-9.85L1726.5 145.5l-25.724 7.635 1.742-9.844-8.716-1.53c-353.536-61.844-609.884-88.845-768.965-81.012l-4.791.248c-163.41 8.879-379.038 63.998-646.838 165.373l-1.87.709-1.417-3.741 1.87-.708C539.943 121.12 755.94 65.908 919.83 57.003z" fill-rule="nonzero" fill="#8B0000"/>
        <path d="M54.364 256.182c0 10.041-7.815 18.182-17.455 18.182-9.64 0-17.454-8.14-17.454-18.182 0-10.042 7.814-18.182 17.454-18.182s17.455 8.14 17.455 18.182zm17.454 45.454v9.091H2v-9.09c0-10.046 15.622-18.182 34.91-18.182 19.286 0 34.908 8.136 34.908 18.181zm15.273-15.909v6.818h-6.546v-6.818h6.546zM78.364 263h-6.546v-2.273c0-7.53 5.861-13.636 13.091-13.636 7.23 0 13.091 6.105 13.091 13.636 0 4.41-2.182 8.546-5.63 10.955l-1.308.863c-2.487 1.819-3.971 4.591-3.971 7.728v.909h-6.546v-.91c0-5.408 2.619-10.454 6.939-13.408l1.265-.864c1.702-1.182 2.706-3.136 2.706-5.273 0-3.765-2.931-6.818-6.546-6.818s-6.545 3.053-6.545 6.818V263z" fill-rule="nonzero" fill="#000"/>
        <text font-family="Helvetica" font-size="36" fill="#000" transform="translate(0 -9)" x="758.398" y="35">Hacker convinces provider to</text>
        <text font-family="Helvetica" font-size="36" fill="#000" transform="translate(0 -9)" x="775.415" y="132">activate another SIM</text>
    </g>
</svg>
