<svg width="1703" height="947"
    xmlns="http://www.w3.org/2000/svg">
    <g fill="none" fill-rule="evenodd">
        <path d="M236.647 768.09l19.773 16.365 8.409-5.5v6.136l-28.182 16.818-28.09-16.818v-6.136l8.454 5.5 19.636-16.364zm-19.636-54.817l19.636 16.318 19.636-16.318 28.091 18.182-19.409 15.636 19.41 15.545-28.092 18.319-19.636-16.41-19.636 16.41-28.091-18.319 19.409-15.545-19.41-15.636 28.092-18.182zm19.636 50.818l27.864-17-27.864-17.046-27.864 17.046 27.864 17zM471.397 759.5h-45.85v13.65h32.55c-1.65 19.05-17.5 27.2-32.5 27.2-19.15 0-35.95-15.1-35.95-36.35 0-20.5 16-36.35 36-36.35 15.45 0 24.5 9.85 24.5 9.85l9.5-9.9s-12.2-13.6-34.5-13.6c-28.4 0-50.35 24-50.35 50 0 25.25 20.65 50 51.1 50 26.75 0 46.25-18.35 46.25-45.45 0-5.75-.75-9.05-.75-9.05zM197.758 824h77.778c6.136 0 11.111 4.975 11.111 11.111v77.778c0 6.136-4.975 11.111-11.111 11.111h-77.778c-6.136 0-11.11-4.975-11.11-11.111V835.11c0-6.136 4.974-11.111 11.11-11.111zm72.222 11.111h-13.888c-10.74 0-19.445 8.706-19.445 19.445v13.888h-11.111v16.667h11.111V924h16.667v-38.889h16.666v-16.667h-16.666v-11.11a5.556 5.556 0 0 1 5.555-5.556h11.111V835.11zM.647 786v10h20v10h-10c-5.523 0-10 4.477-10 10v20h30v-10h-20v-10h10c5.523 0 10-4.477 10-10v-10c0-5.55-4.5-10-10-10h-20zm35 0v50h10v-20h15v-10h-15v-10h20v-10h-30zm45 0c-5.523 0-10 4.477-10 10v40h10v-15h10v15h10v-40c0-5.523-4.477-10-10-10h-10zm0 10h10v15h-10v-15zM236.824 159c13.807 0 25 11.193 25 25s-11.193 25-25 25c-13.808 0-25-11.193-25-25s11.192-25 25-25zm0 62.5c27.625 0 50 11.188 50 25V259h-100v-12.5c0-13.813 22.375-25 50-25zM470.545 850.09c-3.5 1.592-7.272 2.637-11.181 3.137 4-2.409 7.09-6.227 8.545-10.818-3.773 2.273-7.954 3.864-12.364 4.773-3.59-3.91-8.636-6.182-14.363-6.182-10.682 0-19.41 8.727-19.41 19.5 0 1.545.183 3.045.5 4.455-16.181-.819-30.59-8.591-40.181-20.364a19.292 19.292 0 0 0-2.636 9.773c0 6.772 3.409 12.772 8.681 16.181-3.227 0-6.227-.909-8.863-2.272v.136c0 9.455 6.727 17.364 15.636 19.136a19.186 19.186 0 0 1-5.136.682c-1.228 0-2.455-.136-3.637-.363 2.455 7.681 9.591 13.409 18.182 13.545-6.636 5.273-15.045 8.364-24.227 8.364-1.546 0-3.091-.091-4.636-.273a55.202 55.202 0 0 0 29.909 8.773c35.818 0 55.5-29.728 55.5-55.5 0-.864 0-1.682-.046-2.546 3.818-2.727 7.091-6.182 9.727-10.136z" fill-rule="nonzero" fill="#000"/>
        <path stroke="#000" d="M144.5 700.5h374v246h-374z"/>
        <path d="M527.668 818.357l.447.894-9.839 4.92-.447-.895 9.839-4.919zm17.888-8.944l.448.894-9.84 4.92-.446-.895 9.838-4.92zm17.889-8.945l.447.895-9.839 4.92-.447-.895 9.839-4.92zm17.889-8.944l.447.895-9.839 4.919-.447-.894 9.839-4.92zm17.888-8.944l.447.894-9.838 4.92-.448-.895 9.84-4.919zm17.889-8.944l.447.894-9.839 4.92-.447-.895 9.839-4.92zm17.888-8.945l.447.895-9.838 4.92-.448-.895 9.84-4.92zm17.889-8.944l.447.895-9.839 4.919-.447-.895 9.839-4.919zm17.888-8.944l.447.894-9.838 4.92-.447-.895 9.838-4.92zm17.889-8.944l.447.894-9.839 4.92-.447-.895 9.839-4.92zm17.888-8.945l.448.895-9.84 4.92-.446-.895 9.838-4.92zm17.889-8.944l.447.894-9.839 4.92-.447-.895 9.839-4.919zm17.888-8.944l.448.894-9.84 4.92-.446-.895 9.838-4.92zm17.889-8.944l.447.894-9.839 4.92-.447-.895 9.839-4.92zm17.888-8.945l.448.895-9.839 4.919-.447-.894 9.838-4.92zm17.889-8.944l.447.894-9.838 4.92-.448-.895 9.839-4.919zm17.889-8.944l.447.894-9.839 4.92-.447-.895 9.839-4.92zm17.888-8.945l.447.895-9.838 4.92-.448-.895 9.84-4.92zm17.889-8.944l.447.895-9.839 4.919-.447-.895 9.839-4.919zm17.888-8.944l.447.894-9.838 4.92-.447-.895 9.838-4.92zm17.889-8.944l.447.894-9.839 4.92-.447-.895 9.839-4.92zm17.888-8.945l.448.895-9.84 4.92-.446-.895 9.838-4.92zm17.889-8.944l.447.894-9.839 4.92-.447-.895 9.839-4.919zm17.888-8.944l.448.894-9.84 4.92-.446-.895 9.838-4.92zm17.889-8.944l.447.894-9.839 4.92-.447-.895 9.839-4.92zm17.888-8.945l.448.895-9.839 4.919-.447-.894 9.838-4.92zm17.889-8.944l.447.894-9.838 4.92-.448-.895 9.839-4.919zm16.177-7.53l-6.037 8.05-4.025-8.05h10.062zM440.102 236.273h-40.91v-63.637h40.91v63.637zm-20.455 18.182a6.818 6.818 0 1 1 0-13.637 6.818 6.818 0 0 1 0 13.637zM437.83 159h-36.364c-6.276 0-11.363 5.088-11.363 11.364v77.272c0 6.276 5.087 11.364 11.363 11.364h36.364c6.276 0 11.364-5.088 11.364-11.364v-77.272c0-6.276-5.088-11.364-11.364-11.364zM384 354v-40h-10v-10h20v50h-10zm90-10c0 5.55-4.5 10-10 10h-20v-10h20v-10h-10v-10h10v-10h-20v-10h20c5.523 0 10 4.477 10 10v7.5a7.5 7.5 0 0 1-7.5 7.5 7.5 7.5 0 0 1 7.5 7.5v7.5zm-40 0v10h-30v-20c0-5.55 4.5-10 10-10h10v-10h-20v-10h20c5.523 0 10 4.477 10 10v10c0 5.55-4.5 10-10 10h-10v10h20zM1019 574v-40h-10v-10h20v50h-10zm90-10c0 5.55-4.5 10-10 10h-20v-10h20v-10h-10v-10h10v-10h-20v-10h20c5.523 0 10 4.477 10 10v7.5a7.5 7.5 0 0 1-7.5 7.5 7.5 7.5 0 0 1 7.5 7.5v7.5zm-40 0v10h-30v-20c0-5.55 4.5-10 10-10h10v-10h-20v-10h20c5.523 0 10 4.477 10 10v10c0 5.55-4.5 10-10 10h-10v10h20zM1122.646 518.319l.451.892-9.818 4.96-.45-.892 9.817-4.96zm17.851-9.02l.451.893-9.818 4.96-.451-.892 9.818-4.96zm17.85-9.02l.452.893-9.818 4.961-.451-.892 9.818-4.961zm17.852-9.018l.45.892-9.817 4.96-.451-.892 9.818-4.96zm17.85-9.02l.451.893-9.818 4.96-.45-.892 9.817-4.96zm17.851-9.02l.451.893-9.818 4.961-.45-.893 9.817-4.96zm17.851-9.019l.451.893-9.818 4.96-.45-.892 9.817-4.96zm17.85-9.019l.452.893-9.818 4.96-.451-.892 9.818-4.96zm17.852-9.02l.45.893-9.817 4.96-.451-.892 9.818-4.96zm17.85-9.019l.451.893-9.818 4.96-.45-.892 9.817-4.96zm17.851-9.019l.451.893-9.818 4.96-.45-.892 9.817-4.961zm17.851-9.02l.451.893-9.818 4.96-.45-.892 9.817-4.96zm17.85-9.019l.452.893-9.818 4.96-.451-.892 9.818-4.96zm17.852-9.019l.45.893-9.817 4.96-.451-.892 9.818-4.961zm17.85-9.02l.451.893-9.818 4.96-.45-.892 9.817-4.96zm17.851-9.019l.451.893-9.818 4.96-.45-.892 9.817-4.96zm17.851-9.02l.451.893-9.818 4.961-.45-.892 9.817-4.961zm17.85-9.018l.452.892-9.818 4.96-.451-.892 9.818-4.96zm17.852-9.02l.45.893-9.817 4.96-.451-.892 9.818-4.96zm17.85-9.02l.451.893-9.817 4.961-.451-.893 9.817-4.96zm17.851-9.019l.451.893-9.818 4.96-.45-.892 9.817-4.96zm14.284-6.656l-6.003 8.075-4.059-8.033 10.062-.042zM806 233v-40h-10v-10h20v50h-10zm90-10c0 5.55-4.5 10-10 10h-20v-10h20v-10h-10v-10h10v-10h-20v-10h20c5.523 0 10 4.477 10 10v7.5a7.5 7.5 0 0 1-7.5 7.5 7.5 7.5 0 0 1 7.5 7.5v7.5zm-40 0v10h-30v-20c0-5.55 4.5-10 10-10h10v-10h-20v-10h20c5.523 0 10 4.477 10 10v10c0 5.55-4.5 10-10 10h-10v10h20zM265.147 304h25v50h-25v10a5 5 0 0 0 5 5h10v10h-12.5c-2.75 0-7.5-2.25-7.5-5 0 2.75-4.75 5-7.5 5h-12.5v-10h10a5 5 0 0 0 5-5v-70a5 5 0 0 0-5-5h-10v-10h12.5c2.75 0 7.5 2.25 7.5 5 0-2.75 4.75-5 7.5-5h12.5v10h-10a5 5 0 0 0-5 5v10zm-75 0h55v10h-45v30h45v10h-55v-50zm90 40v-30h-15v30h15zm-57.5-15a7.5 7.5 0 1 0-15 0 7.5 7.5 0 0 0 15 0zm22.5-5.55c-3.05-2.8-7.8-2.55-10.6.55-2.8 3-2.55 7.75.6 10.55 2.75 2.6 7.15 2.6 10 0v-11.1zM241 389v304h4l-4.5 9-4.5-9h4V389h1zM774.647 158h-80c-5.523 0-10 4.477-10 10v90l20-20h70c5.523 0 10-4.477 10-10v-60c0-5.55-4.5-10-10-10zM472 204v9l-9-4.5 9-4.5zm212 4v1h-11v-1h11zm-20 0v1h-11v-1h11zm-20 0v1h-11v-1h11zm-20 0v1h-11v-1h11zm-20 0v1h-11v-1h11zm-20 0v1h-11v-1h11zm-20 0v1h-11v-1h11zm-20 0v1h-11v-1h11zm-20 0v1h-11v-1h11zm-20 0v1h-11v-1h11zm-20 0v1h-11v-1h11zM1477.297.65c-9.05 9.05-14.65 21.55-14.65 35.35s5.6 26.3 14.65 35.35l7.05-7.05c-7.25-7.2-11.7-17.2-11.7-28.3 0-11.05 4.45-21.1 11.7-28.3l-7.05-7.05zm70.7 0l-7.05 7.05c7.25 7.2 11.7 17.25 11.7 28.3 0 11.1-4.45 21.1-11.7 28.3l7.05 7.05c9.05-9.05 14.65-21.55 14.65-35.35s-5.6-26.3-14.65-35.35zm-56.55 14.15c-5.45 5.45-8.8 12.95-8.8 21.2s3.35 15.75 8.8 21.2l7.05-7.05c-3.6-3.6-5.85-8.6-5.85-14.15 0-5.55 2.25-10.55 5.85-14.15l-7.05-7.05zm42.4 0l-7.05 7.05c3.6 3.6 5.85 8.6 5.85 14.15 0 5.55-2.25 10.55-5.85 14.15l7.05 7.05c5.45-5.45 8.8-12.95 8.8-21.2s-3.35-15.75-8.8-21.2zm-21.2 11.2c-5.523 0-10 4.477-10 10s4.477 10 10 10 10-4.477 10-10-4.477-10-10-10z" fill="#000" fill-rule="nonzero"/>
        <path stroke="#000" d="M1328.5 85.5h374v246h-374z"/>
        <path d="M917.01 203.02l-.009 4 3.001.008-.002 1-3.002-.008-.009 4L908 207.5l9.01-4.478zm391.991 4.954l11 .027-.002 1-11-.027.002-1zm-20-.048l11 .027-.002 1-11-.027.002-1zm-20-.049l11 .027-.002 1-11-.027.002-1zm-20-.049l11 .027-.002 1-11-.027.002-1zm-20-.048l11 .027-.002 1-11-.027.002-1zm-20-.049l11 .027-.002 1-11-.027.003-1zm-20-.049l11 .027-.002 1-11-.027.003-1zm-20-.048l11 .027-.002 1-11-.027.003-1zm-20-.049l11 .027-.002 1-11-.027.003-1zm-20-.049l11 .027-.002 1-11-.027.003-1zm-20-.048l11 .027-.002 1-11-.027.003-1zm-20-.049l11 .027-.002 1-11-.027.003-1zm-19.999-.048l11 .026-.003 1-11-.026.003-1zm-20-.05l11 .028-.002 1-11-.027.002-1zm-20-.048l11 .027-.002 1-11-.027.002-1zm-20-.048l11 .026-.002 1-11-.026.002-1zm-20-.05l11 .028-.002 1-11-.027.002-1zm-20-.048l11 .027-.002 1-11-.027.002-1zm-20-.048l11 .026-.002 1-11-.026.002-1zm-20-.05l11 .028-.002 1-11-.027.002-1z" fill="#000" fill-rule="nonzero"/>
        <g fill="#000">
            <path d="M1352.918 142.777c0 22.065 16.02 40.35 39.293 40.35 23.122 0 39.141-18.285 39.141-40.35 0-23.424-15.717-40.35-39.141-40.35-23.576 0-39.293 16.926-39.293 40.35zm15.113 0c0-14.659 8.916-28.865 24.18-28.865 15.113 0 24.028 14.206 24.028 28.865 0 13.753-7.404 28.865-24.028 28.865-16.775 0-24.18-15.112-24.18-28.865zM1452.622 198.226v-5.38h-13.936c5.574-5.476 12.86-12.126 12.86-19.364 0-6.698-4.205-9.975-10.709-9.975-3.472 0-7.041.88-10.122 2.445l.538 5.673c2.249-1.468 4.988-2.739 7.872-2.739 2.788 0 5.575 1.467 5.575 4.596 0 6.26-11.59 15.942-14.768 19.023v5.72h22.69"/>
        </g>
        <path d="M1663.52 157.191c0 27.562-22.344 49.906-49.906 49.906-27.562 0-49.906-22.344-49.906-49.906 0-27.562 22.344-49.906 49.906-49.906 27.562 0 49.906 22.344 49.906 49.906" fill="#000105"/>
        <path d="M1614.01 185.02c-13.712.045-27.978-11.658-28.04-30.45-.042-12.427 6.663-24.389 15.233-31.485 8.36-6.922 19.811-11.364 30.197-11.399 1.337-.004 2.735.107 3.591.397-9.08 1.883-16.308 10.335-16.277 19.923.001.317.03.655.061.813 15.196 3.701 22.095 12.87 22.137 25.557.042 12.687-9.974 26.587-26.902 26.644" fill="#FFFFFE"/>
        <path d="M1372.128 312.288a49.863 49.863 0 0 0 30.6 10.483c12.608 0 24.104-4.68 32.875-12.367.108-.091.058-.154-.046-.091-3.938 2.625-15.158 8.366-32.83 8.366-15.353 0-25.058-3.425-30.537-6.483-.104-.054-.141.025-.062.091m33.987 2.55c12.284 0 25.78-3.35 33.85-9.974 2.209-1.809 4.313-4.209 6.196-7.438 1.083-1.858 2.146-4.067 3.008-6.237.042-.105-.025-.159-.104-.042-7.508 11.05-29.241 17.937-51.683 17.937-15.863 0-32.933-5.07-39.617-14.758-.066-.088-.129-.05-.091.05 6.225 13.233 25.112 20.458 48.441 20.458m-13.416-21.946c-25.542 0-37.584-11.895-39.771-20.016-.025-.117-.104-.092-.104.016 0 2.73.275 6.259.745 8.6.221 1.138 1.15 2.925 2.509 4.355 6.187 6.445 21.608 15.479 48.312 15.479 36.384 0 44.704-12.121 46.4-16.109 1.217-2.85 1.846-8 1.846-12.325 0-1.05-.025-1.883-.067-2.708 0-.133-.075-.142-.104-.012-1.816 9.75-32.904 22.72-59.766 22.72m-35.063-41.404c-1.467 2.904-3.083 7.809-3.57 10.342-.21 1.083-.122 1.608.262 2.417 3.058 6.5 18.541 16.891 54.666 16.891 22.038 0 39.155-5.416 41.93-15.291.508-1.821.537-3.742-.121-6.33-.734-2.891-2.104-6.262-3.267-8.629-.042-.079-.104-.066-.092.025.43 12.959-35.704 21.309-53.937 21.309-19.75 0-36.225-7.867-36.225-17.805 0-.954.2-1.908.446-2.9.025-.091-.054-.108-.092-.029m78.05-15.908c.208.33.317.68.317 1.15 0 5.542-16.967 15.35-43.971 15.35-19.842 0-23.554-7.363-23.554-12.042 0-1.675.641-3.387 2.054-5.125.075-.104.012-.141-.08-.066a50.004 50.004 0 0 0-7.02 7.295c-.996 1.255-1.613 2.367-1.613 3.034 0 9.7 24.325 16.733 47.071 16.733 24.234 0 35.05-7.912 35.05-14.862 0-2.484-.966-3.938-3.441-6.75-1.609-1.83-3.125-3.317-4.734-4.784-.079-.062-.133-.012-.079.067m-7.43-5.542a49.356 49.356 0 0 0-25.528-7.033c-9.425 0-18.375 2.637-25.88 7.242-2.25 1.383-3.52 2.495-3.52 3.925 0 4.208 9.833 8.729 27.283 8.729 17.263 0 30.654-4.959 30.654-9.725 0-1.138-.996-1.934-3.008-3.138M1572.522 318.98c22.888-7.534 56.07-25.084 79.15-40.76 1.938-1.307 3.446-2.528 3.446-4.657 0-3.705-6.896-8.667-10.242-10.646-18.162 18.566-54.304 46.391-72.358 56.062m21.233-15.77c14.117-9.6 34.625-27.659 41.563-37.484 1.637-2.308 2.846-3.65 2.846-6.067 0-3.966-4.7-6.875-8.084-8.895-8.108 18.791-26.316 42.187-36.325 52.445m10.796-14.7c9.767-12.362 17.45-26.891 17.45-37.325 0-5.45-3.97-9.258-9.15-12.15.1 11.338-3.892 37.921-8.3 49.475m2.067-11.925c1.825-11.862.75-26.187-1.58-35.175-1.266-4.891-5.75-10.416-9.9-12.137 5.438 15.179 10.109 36.8 11.48 47.312m-4.021-16.645c-4.275-11.367-14.933-35.063-30.613-40.938 10.209 11.083 25.346 33.063 30.613 40.938M424 366v327h4l-4.5 9-4.5-9h4V366h1z" fill-rule="nonzero" fill="#000"/>
        <text transform="rotate(-90 236.5 565)" font-family="Helvetica" font-size="36" fill="#000" x="143.468" y="557">User enters</text>
        <text transform="rotate(-90 236.5 565)" font-family="Helvetica" font-size="36" fill="#000" x="159.464" y="600">password</text>
        <text transform="rotate(-90 420.5 565)" font-family="Helvetica" font-size="36" fill="#000" x="327.468" y="557">User enters</text>
        <text transform="rotate(-90 420.5 565)" font-family="Helvetica" font-size="36" fill="#000" x="383.498" y="600">OTP</text>
        <text transform="rotate(-27 773.67 712.5)" font-family="Helvetica" font-size="36" fill="#000" x="688.291" y="685">OTP is sent</text>
        <text transform="rotate(-27 773.67 712.5)" font-family="Helvetica" font-size="36" fill="#000" x="696.957" y="728">to provider</text>
        <text font-family="Helvetica" font-size="36" fill="#000" x="982.941" y="202">Provider sends</text>
        <text font-family="Helvetica" font-size="36" fill="#000" x="1065.998" y="245">OTP</text>
    </g>
</svg>
