<svg width="1523" height="644"
    xmlns="http://www.w3.org/2000/svg">
    <g fill="none" fill-rule="evenodd">
        <path d="M1004.528 29.777h-39.506c-5.455 0-9.877 4.477-9.877 10v80c0 5.523 4.422 10 9.877 10h59.259c5.455 0 9.877-4.477 9.877-10v-60l-29.63-30zm19.753 90h-59.26v-80h34.569v25h24.691v55zM789.676 65V37.5l27.16 27.5h-27.16zm-34.568-35c-5.481 0-9.876 4.45-9.876 10v80c0 5.523 4.422 10 9.876 10h59.26c5.454 0 9.876-4.477 9.876-10V60l-29.63-30h-39.506zM886.15 505.182h-13.49L890.645 487l17.985 18.182h-13.488v20.136a39.478 39.478 0 0 0-8.993 7.682v-27.818zm49.456 27.273l-17.984-18.182v13.636c-16.231-.682-30.079 11.682-31.473 28.046-7.013 2.5-10.7 10.318-8.227 17.409 2.472 7.09 10.206 10.818 17.22 8.318 7.013-2.546 10.7-10.318 8.227-17.41a13.525 13.525 0 0 0-8.227-8.317c2.113-18.182 20.097-19.091 22.255-19.091V550.5l18.209-18.045zm-51.12 2.681c-5.98-4.636-13.308-7.227-20.817-7.227v-13.636l-17.984 18.182 17.984 18.181V537c6.025.136 11.825 2.273 16.366 6.364a36.35 36.35 0 0 1 4.45-8.228zM641.245 483c13.698 0 24.802 11.193 24.802 25s-11.104 25-24.802 25c-13.697 0-24.801-11.193-24.801-25s11.104-25 24.801-25zm0 62.5c27.406 0 49.603 11.188 49.603 25V583h-99.206v-12.5c0-13.813 22.197-25 49.603-25zM703.25 533v-31.25h12.4V533h-12.4zm0 25v-12.5h12.4V558h-12.4zm468.317-25l8.167 8.294-38.09 38.765-20.24-20.588 8.166-8.295 12.075 12.236L1171.567 533zm-64.745 26.47l17.499 17.648h-58.33v-11.765c0-13 20.882-23.53 46.664-23.53l11.024.648-16.857 17zm5.833-76.47c12.886 0 23.332 10.534 23.332 23.53 0 12.994-10.446 23.529-23.332 23.529-12.886 0-23.332-10.535-23.332-23.53 0-12.995 10.446-23.529 23.332-23.529zM379.422 48.625a1.66 1.66 0 0 1-.878-.25c-7.33-4.125-13.668-5.875-21.265-5.875-7.56 0-14.737 1.958-21.265 5.875-.917.542-2.062.167-2.596-.833-.497-1-.153-2.292.763-2.834 7.101-4.208 14.89-6.375 23.098-6.375 8.131 0 15.233 1.959 23.02 6.334.955.541 1.299 1.791.802 2.791-.343.75-.992 1.167-1.68 1.167zM324.789 70.5c-.381 0-.763-.125-1.107-.375-.878-.667-1.069-1.958-.458-2.917 3.78-5.833 8.59-10.416 14.317-13.625 11.988-6.75 27.335-6.791 39.361-.041 5.727 3.208 10.537 7.75 14.317 13.541.61.917.42 2.25-.459 2.917-.878.667-2.061.458-2.672-.5-3.436-5.25-7.788-9.375-12.942-12.25-10.957-6.125-24.968-6.125-35.887.042-5.192 2.916-9.545 7.083-12.98 12.333-.306.583-.879.875-1.49.875zm23.862 50.292c-.497 0-.993-.209-1.337-.625-3.321-3.625-5.116-5.959-7.673-11-2.635-5.125-4.01-11.375-4.01-18.084 0-12.375 9.698-22.458 21.61-22.458 11.91 0 21.608 10.083 21.608 22.458 0 1.167-.84 2.084-1.909 2.084s-1.909-.917-1.909-2.084c0-10.083-7.979-18.291-17.79-18.291-9.812 0-17.791 8.208-17.791 18.291 0 6 1.221 11.542 3.55 16.042 2.444 4.792 4.123 6.833 7.063 10.083a2.283 2.283 0 0 1 0 2.959c-.42.416-.916.625-1.412.625zm27.373-7.709c-4.543 0-8.552-1.25-11.835-3.708-5.689-4.208-9.086-11.042-9.086-18.292 0-1.166.84-2.083 1.908-2.083 1.07 0 1.91.917 1.91 2.083 0 5.875 2.748 11.417 7.406 14.834 2.71 2 5.88 2.958 9.697 2.958.916 0 2.443-.125 3.97-.417 1.031-.208 2.024.542 2.215 1.709.19 1.125-.497 2.208-1.566 2.416-2.176.459-4.085.5-4.62.5zm-7.674 8.584c-.153 0-.343-.042-.496-.084-6.07-1.833-10.04-4.291-14.202-8.75-5.345-5.791-8.285-13.5-8.285-21.75 0-6.75 5.269-12.25 11.759-12.25s11.759 5.5 11.759 12.25c0 4.459 3.55 8.084 7.94 8.084 4.391 0 7.942-3.625 7.942-8.084 0-15.708-12.408-28.458-27.68-28.458-10.842 0-20.768 6.583-25.235 16.792-1.489 3.375-2.252 7.333-2.252 11.666 0 3.25.267 8.375 2.558 15.042.382 1.083-.115 2.292-1.107 2.667-.993.416-2.1-.167-2.444-1.209-1.87-5.458-2.787-10.875-2.787-16.5 0-5 .878-9.541 2.596-13.5 5.078-11.625 16.34-19.166 28.672-19.166 17.37 0 31.496 14.625 31.496 32.625 0 6.75-5.268 12.25-11.758 12.25-6.49 0-11.76-5.5-11.76-12.25 0-4.459-3.55-8.084-7.94-8.084-4.39 0-7.941 3.625-7.941 8.084 0 7.125 2.52 13.791 7.14 18.791 3.626 3.917 7.1 6.084 12.483 7.709 1.031.291 1.604 1.458 1.337 2.541-.191.959-.993 1.584-1.795 1.584z" fill-rule="nonzero" fill="#000"/>
        <path d="M311.842 30h91.607v100h-91.607z"/>
        <path d="M881.05 339.273h-17.937v-9.091h17.936v9.09zm0-18.182h-17.937V312h17.936v9.09zm0-59.091v4.545h-17.937c-4.977 0-8.968 4.046-8.968 9.091v72.728c0 5.02 4.015 9.09 8.968 9.09h17.936V362h8.968V262h-8.968zm44.84 31.818v54.546c0 5.045-3.991 9.09-8.969 9.09h-17.936v-9.09h17.936v-40.91h-17.936v-9.09h20.178l-20.178-20.455v-11.364l26.905 27.273zm-17.937 27.273h-8.968V312h8.968v9.09zm0 18.182h-8.968v-9.091h8.968v9.09zM93.13 70.515V54.849c0-5.78 4.652-10.472 10.383-10.472 5.73 0 10.383 4.692 10.383 10.472v15.666a18.832 18.832 0 0 0 8.305-15.666c0-10.43-8.347-18.849-18.689-18.849-10.34 0-18.687 8.42-18.687 18.85a18.83 18.83 0 0 0 8.306 15.665zm40.865 19.394l-18.855-9.467a5.805 5.805 0 0 0-2.243-.46h-3.156V54.849c0-1.669-.656-3.27-1.824-4.448a6.18 6.18 0 0 0-4.405-1.835 6.18 6.18 0 0 0-4.405 1.835 6.315 6.315 0 0 0-1.825 4.448v44.987L83.04 96.82c-.332-.042-.623-.126-.996-.126a4.625 4.625 0 0 0-3.282 1.383l-3.28 3.35 20.515 20.694a6.224 6.224 0 0 0 4.403 1.842h28.196c3.116 0 5.525-2.304 5.981-5.362l3.115-22.074c.041-.293.083-.586.083-.838 0-2.597-1.578-4.859-3.78-5.78h.001z" fill-rule="nonzero" fill="#000"/>
        <path d="M60.64 30h91.608v100H60.64z"/>
        <path d="M1478.5 37c-24.283 0-43.95 9.944-43.95 22.222s19.667 22.222 43.95 22.222 43.95-9.944 43.95-22.222S1502.784 37 1478.5 37zm-43.95 33.333V87c0 12.278 19.667 22.222 43.95 22.222s43.95-9.944 43.95-22.222V70.333c0 12.278-19.667 22.223-43.95 22.223s-43.95-9.945-43.95-22.223zm0 27.778v16.667c0 12.278 19.667 22.222 43.95 22.222s43.95-9.944 43.95-22.222V98.11c0 12.278-19.667 22.222-43.95 22.222s-43.95-9.944-43.95-22.222z" fill-rule="nonzero" fill="#000"/>
        <path d="M784.593 138v52h210v-52" stroke="#000" stroke-linecap="square"/>
        <path d="M890.007 189.993l1 .014-.882 60 4 .06-4.632 8.933-4.368-9.065 4 .058.882-60zM733 528v4h108v1H733v4l-9-4.5 9-4.5zm323 0l9 4.5-9 4.5v-4H945v-1h111v-4zM889.996 365.175l.929 106.82 4-.034-4.42 9.039-4.579-8.96 3.999-.036-.93-106.82 1-.009z" fill="#000" fill-rule="nonzero"/>
        <text font-family="Helvetica" font-size="24" fill="#000" transform="translate(-51 .777)" x="66.979" y="156.223">Sensor</text>
        <text font-family="Helvetica" font-size="24" fill="#000" transform="translate(-51 .777)" x="49.635" y="185.223">interaction</text>
        <path d="M301.756 76.1l8.994 4.512-9.006 4.488.005-4-158.5-.212.002-1 158.499.211.006-3.999z" fill="#000" fill-rule="nonzero"/>
        <text font-family="Helvetica" font-size="24" fill="#000" transform="translate(-51 .777)" x="272.131" y="156.223">Biometric template</text>
        <text font-family="Helvetica" font-size="24" fill="#000" transform="translate(-51 .777)" x="319.475" y="185.223">extraction</text>
        <text font-family="Helvetica" font-size="24" fill="#000" transform="translate(-51 .777)" x="493.309" y="73.223">Template</text>
        <text font-family="Helvetica" font-size="24" fill="#000" transform="translate(-51 .777)" x="493.301" y="104.223">transformation</text>
        <text font-family="Helvetica" font-size="24" fill="#000" transform="translate(-51 .777)" x="1130.303" y="76.223">Extraction of</text>
        <text font-family="Helvetica" font-size="24" fill="#000" transform="translate(-51 .777)" x="1125.289" y="108.223">stored template</text>
        <text font-family="Helvetica" font-size="24" fill="#000" transform="translate(-51 .777)" x="1072.307" y="290.223">Comparison</text>
        <text font-family="Helvetica" font-size="24" fill="#000" transform="translate(-51 .777)" x="994.248" y="319.223">of both templates, decision</text>
        <text font-family="Helvetica" font-size="24" fill="#000" transform="translate(-51 .777)" x="1002.902" y="348.223">based on threshold value</text>
        <text font-family="Helvetica" font-size="24" fill="#000" transform="translate(-51 .777)" x="546.447" y="613.223">Imposter detected</text>
        <text font-family="Helvetica" font-size="24" fill="#000" transform="translate(-51 .777)" x="542.428" y="642.223">and access denied</text>
        <text font-family="Helvetica" font-size="24" fill="#000" transform="translate(-51 .777)" x="1039.295" y="607.223">User identified</text>
        <text font-family="Helvetica" font-size="24" fill="#000" transform="translate(-51 .777)" x="1011.264" y="636.223">and access granted</text>
        <text font-family="Helvetica" font-size="24" fill="#000" transform="translate(-51 .777)" x="1436.809" y="166.223">Template</text>
        <text font-family="Helvetica" font-size="24" fill="#000" transform="translate(-51 .777)" x="1436.123" y="195.223">database</text>
        <path d="M1426.791 42.633l7.695 6.484-9.804 2.266.937-3.889-2.95-.705-3.243-.772-3.23-.765-.486-.115.23-.973 3.717.88a5193.7 5193.7 0 0 1 6.5 1.55l-.304-.072.938-3.889zm-30.324-3.001l6.97 1.606 3.748.871-.226.974-3.748-.87c-2.169-.503-4.33-1.001-6.48-1.495l-.488-.112.224-.974zm-19.516-4.399l3.728.829c2.164.483 4.338.97 6.521 1.463l.488.11-.22.975-7.007-1.572-3.726-.828.216-.977zm-564.175-.648l.16.987-3.767.616-7.08 1.164-.164-.987 7.082-1.164 3.769-.616zm544.614-3.605l3.734.8c2.168.465 4.346.936 6.534 1.413l.488.106-.212.977-3.762-.817c-2.177-.47-4.344-.936-6.501-1.397l-.49-.104.21-.978zm-524.867.424l.157.987-3.773.602-7.094 1.14-.159-.988 3.801-.612 7.068-1.13zm19.751-3.102l.153.989-3.77.585-7.088 1.109-.155-.988 3.799-.596 7.061-1.099zm485.533-1.411l3.739.767c2.17.447 4.352.9 6.544 1.358l.49.102-.205.98-3.768-.786c-2.18-.453-4.35-.9-6.51-1.341l-.49-.1.2-.98zm-465.753-1.607l.148.99-7.068 1.067-3.804.58-.15-.989 7.099-1.079 3.775-.569zm446.133-2.306l3.745.732c2.175.427 4.362.86 6.559 1.299l.49.098-.196.98-3.776-.75c-2.185-.434-4.36-.86-6.522-1.282l-.49-.095.19-.982zM891.84 22.36l.144.99-7.071 1.033-3.807.562-.146-.99 3.807-.561 7.073-1.034zm406.705-3.096l3.751.693c2.18.405 4.37.816 6.573 1.233l.491.093-.186.982-3.785-.714c-2.19-.41-4.367-.815-6.533-1.213l-.492-.09.181-.984zm-386.901.273l.138.99-3.776.53c-2.193.309-4.397.622-6.612.938l-.495.07-.142-.99 3.81-.542c2.205-.313 4.399-.622 6.581-.927l.496-.07zm19.824-2.713l.133.991-3.78.508-7.117.969-.136-.991 7.12-.969 3.78-.508zm347.378-1.061l2.94.507c2.452.426 4.92.86 7.405 1.302l.492.088-.175.984-2.97-.527a1668.76 1668.76 0 0 0-7.369-1.284l-.493-.085.17-.985zm-327.531-1.53l.126.993-3.783.483c-2.197.283-4.408.57-6.631.86l-.496.064-.13-.991 3.823-.498c2.21-.286 4.41-.569 6.595-.847l.496-.063zm307.79-1.729l2.946.47c2.457.394 4.932.797 7.424 1.21l.493.08-.163.987-2.978-.49c-2.48-.406-4.94-.803-7.384-1.19l-.494-.079.157-.988zm-287.944-.722l.12.993-5.438.657-5.483.674-.123-.992 2.996-.37a2787.2 2787.2 0 0 1 7.432-.902l.496-.06zm268.156-2.264l2.95.426c2.46.358 4.939.727 7.437 1.105l.494.075-.15.988-2.984-.449a1385.88 1385.88 0 0 0-7.394-1.084l-.495-.07.142-.99zm-248.28-.035l.11.994-2.961.332c-2.471.279-4.96.563-7.47.854l-.496.058-.115-.994 3-.346c2.497-.287 4.975-.568 7.434-.843l.497-.055zm19.887-2.125l.101.994-2.963.305c-2.472.256-4.966.519-7.48.788l-.497.054-.106-.995 5.5-.583c1.658-.174 3.307-.345 4.947-.512l.498-.051zm208.567-.513l2.954.376c2.466.318 4.951.646 7.458.986l.495.067-.134.99-2.993-.402c-2.49-.332-4.96-.653-7.41-.963l-.495-.062.125-.992zM1030.827 5.43l.092.996-5.444.505-5.504.528-.097-.995 3.01-.29c2.504-.24 4.986-.473 7.446-.699l.497-.045zm168.782-.903l2.961.32c2.471.27 4.965.553 7.482.848l.497.058-.117.993-3.003-.348a987.54 987.54 0 0 0-7.429-.824l-.497-.053.106-.994zm-148.843-.796l.079.997-2.964.237c-2.474.2-4.973.407-7.497.623l-.498.043-.086-.996 3.016-.257c2.509-.21 4.993-.413 7.452-.607l.498-.04zM1179.7 2.63l2.965.253a851 851 0 0 1 7.502.688l.498.048-.096.995-3.012-.285a839.096 839.096 0 0 0-7.443-.66l-.498-.043.084-.996zm-108.974-.327l.064.998-2.963.194c-2.474.164-4.976.337-7.506.52l-.5.035-.071-.997 3.021-.216c2.514-.176 4.999-.343 7.456-.501l.5-.033zm88.994-1.078l2.472.144c2.638.158 5.308.333 8.012.526l.498.035-.07.998-2.518-.177c-2.683-.183-5.334-.35-7.952-.5l-.499-.028.057-.998zm-69.018-.026l.046.998-2.469.117c-2.634.128-5.306.268-8.013.419l-.5.028-.055-.998 2.525-.14c2.691-.145 5.347-.28 7.966-.401l.5-.023zm20.005-.71l.024 1-2.466.063c-2.632.071-5.306.156-8.023.254l-.5.018-.036-.999 2.532-.09a849.48 849.48 0 0 1 7.969-.233l.5-.012zm29.023-.07l2.471.063c2.64.073 5.315.166 8.029.278l.5.02-.042 1-2.524-.101c-2.69-.103-5.343-.185-7.959-.249l-.5-.012.025-1zm-11.89-.142l1.187.002 1.688.007-.004 1-1.686-.007-3.066.001c-1.89.006-3.805.02-5.745.041l-.5.006-.012-1 2.435-.025a687.42 687.42 0 0 1 5.704-.025z" fill="#979797" fill-rule="nonzero"/>
        <path d="M1053.01 82.02l-.009 3.998 381.5.872-.002 1-381.501-.872-.008 4.001-8.99-4.52 9.01-4.48zm-322.982-4.072L739 82.503l-9.027 4.445.023-4-333.249-2.035.006-1 333.25 2.034.025-3.999z" fill="#000" fill-rule="nonzero"/>
    </g>
</svg>
