<svg width="1124" height="621"
    xmlns="http://www.w3.org/2000/svg">
    <g fill="none" fill-rule="evenodd">
        <path d="M792.593 30h-40c-5.523 0-10 4.477-10 10v80c0 5.523 4.477 10 10 10h60c5.522 0 10-4.477 10-10V60l-30-30zm20 90h-60V40h35v25h25v55zM577.593 65V37.5l27.5 27.5h-27.5zm-35-35c-5.55 0-10 4.45-10 10v80c0 5.523 4.477 10 10 10h60c5.522 0 10-4.477 10-10V60l-30-30h-40zM673.91 505.182h-13.637L678.455 487l18.181 18.182H683v20.136a39.8 39.8 0 0 0-9.09 7.682v-27.818zm50 27.273l-18.183-18.182v13.636c-16.409-.682-30.409 11.682-31.818 28.046-7.09 2.5-10.818 10.318-8.318 17.409 2.5 7.09 10.318 10.818 17.409 8.318 7.09-2.546 10.818-10.318 8.318-17.41-1.363-3.908-4.454-6.954-8.318-8.317 2.136-18.182 20.318-19.091 22.5-19.091V550.5l18.41-18.045zm-51.683 2.681c-6.045-4.636-13.454-7.227-21.045-7.227v-13.636L633 532.455l18.182 18.181V537c6.09.136 11.954 2.273 16.545 6.364a36.226 36.226 0 0 1 4.5-8.228zM429 483c13.807 0 25 11.193 25 25s-11.193 25-25 25-25-11.193-25-25 11.193-25 25-25zm0 62.5c27.625 0 50 11.188 50 25V583H379v-12.5c0-13.813 22.375-25 50-25zm62.5-12.5v-31.25H504V533h-12.5zm0 25v-12.5H504V558h-12.5zM959.47 533l8.236 8.294-38.412 38.765-20.412-20.588 8.236-8.295 12.176 12.236L959.471 533zm-65.294 26.47l17.648 17.648H853v-11.765c0-13 21.059-23.53 47.059-23.53l11.117.648-17 17zM900.06 483c12.995 0 23.53 10.534 23.53 23.53 0 12.994-10.535 23.529-23.53 23.529-12.995 0-23.53-10.535-23.53-23.53 0-12.995 10.535-23.529 23.53-23.529zM295.307 48.625a1.69 1.69 0 0 1-.888-.25c-7.409-4.125-13.814-5.875-21.493-5.875-7.64 0-14.896 1.958-21.494 5.875-.926.542-2.084.167-2.624-.833-.502-1-.154-2.292.772-2.834 7.177-4.208 15.05-6.375 23.346-6.375 8.219 0 15.396 1.959 23.268 6.334.965.541 1.312 1.791.81 2.791-.347.75-1.003 1.167-1.697 1.167zM240.087 70.5c-.386 0-.772-.125-1.12-.375-.887-.667-1.08-1.958-.462-2.917 3.82-5.833 8.682-10.416 14.47-13.625 12.117-6.75 27.63-6.791 39.785-.041 5.788 3.208 10.65 7.75 14.47 13.541.618.917.425 2.25-.463 2.917-.887.667-2.083.458-2.7-.5-3.474-5.25-7.873-9.375-13.082-12.25-11.075-6.125-25.237-6.125-36.273.042-5.248 2.916-9.647 7.083-13.12 12.333-.309.583-.888.875-1.505.875zm24.118 50.292a1.75 1.75 0 0 1-1.351-.625c-3.357-3.625-5.17-5.959-7.756-11-2.663-5.125-4.052-11.375-4.052-18.084 0-12.375 9.801-22.458 21.84-22.458 12.04 0 21.842 10.083 21.842 22.458 0 1.167-.85 2.084-1.93 2.084s-1.929-.917-1.929-2.084c0-10.083-8.065-18.291-17.982-18.291S254.905 81 254.905 91.083c0 6 1.235 11.542 3.589 16.042 2.47 4.792 4.167 6.833 7.138 10.083a2.264 2.264 0 0 1 0 2.959c-.424.416-.926.625-1.427.625zm27.667-7.709c-4.592 0-8.643-1.25-11.962-3.708-5.75-4.208-9.184-11.042-9.184-18.292 0-1.166.849-2.083 1.93-2.083 1.08 0 1.929.917 1.929 2.083 0 5.875 2.778 11.417 7.486 14.834 2.74 2 5.942 2.958 9.801 2.958.926 0 2.47-.125 4.013-.417 1.042-.208 2.046.542 2.239 1.709.193 1.125-.502 2.208-1.583 2.416-2.2.459-4.128.5-4.669.5zm-7.756 8.584c-.154 0-.347-.042-.502-.084-6.135-1.833-10.148-4.291-14.354-8.75-5.403-5.791-8.374-13.5-8.374-21.75 0-6.75 5.325-12.25 11.885-12.25s11.885 5.5 11.885 12.25c0 4.459 3.589 8.084 8.027 8.084 4.437 0 8.026-3.625 8.026-8.084 0-15.708-12.541-28.458-27.976-28.458-10.96 0-20.992 6.583-25.507 16.792-1.505 3.375-2.277 7.333-2.277 11.666 0 3.25.27 8.375 2.586 15.042.385 1.083-.116 2.292-1.12 2.667-1.003.416-2.122-.167-2.47-1.209-1.89-5.458-2.816-10.875-2.816-16.5 0-5 .887-9.541 2.624-13.5 5.132-11.625 16.516-19.166 28.98-19.166 17.557 0 31.835 14.625 31.835 32.625 0 6.75-5.325 12.25-11.885 12.25s-11.886-5.5-11.886-12.25c0-4.459-3.588-8.084-8.026-8.084-4.437 0-8.026 3.625-8.026 8.084 0 7.125 2.547 13.791 7.216 18.791 3.666 3.917 7.177 6.084 12.618 7.709 1.042.291 1.62 1.458 1.35 2.541-.192.959-1.003 1.584-1.813 1.584z" fill-rule="nonzero" fill="#000"/>
        <path d="M227 30h92.593v100H227z"/>
        <path d="M669.273 339.273H651.09v-9.091h18.182v9.09zm0-18.182H651.09V312h18.182v9.09zm0-59.091v4.545H651.09a9.06 9.06 0 0 0-9.091 9.091v72.728a9.09 9.09 0 0 0 9.09 9.09h18.183V362h9.09V262h-9.09zm45.454 31.818v54.546a9.06 9.06 0 0 1-9.09 9.09h-18.182v-9.09h18.181v-40.91h-18.181v-9.09h20.454l-20.454-20.455v-11.364l27.272 27.273zm-18.182 27.273h-9.09V312h9.09v9.09zm0 18.182h-9.09v-9.091h9.09v9.09zM36.84 71.515V55.849c0-5.78 4.701-10.472 10.494-10.472 5.792 0 10.494 4.692 10.494 10.472v15.666c5.079-3.393 8.395-9.131 8.395-15.666 0-10.43-8.437-18.849-18.89-18.849-10.451 0-18.888 8.42-18.888 18.85 0 6.534 3.316 12.272 8.395 15.665zm41.304 19.394l-19.058-9.467a5.922 5.922 0 0 0-2.267-.46h-3.19V55.849a6.281 6.281 0 0 0-6.296-6.283 6.281 6.281 0 0 0-6.297 6.283v44.987L26.64 97.82c-.336-.042-.63-.126-1.007-.126a4.7 4.7 0 0 0-3.317 1.383L19 102.427l20.736 20.694a6.325 6.325 0 0 0 4.45 1.842h28.5c3.149 0 5.584-2.304 6.045-5.362l3.148-22.074c.042-.293.084-.586.084-.838 0-2.597-1.595-4.859-3.82-5.78h.001z" fill-rule="nonzero" fill="#000"/>
        <path d="M4 31h92.593v100H4z"/>
        <path d="M1079.444 30C1054.89 30 1035 39.944 1035 52.222s19.889 22.222 44.444 22.222c24.556 0 44.445-9.944 44.445-22.222S1104 30 1079.444 30zM1035 63.333V80c0 12.278 19.889 22.222 44.444 22.222 24.556 0 44.445-9.944 44.445-22.222V63.333c0 12.278-19.889 22.223-44.445 22.223-24.555 0-44.444-9.945-44.444-22.223zm0 27.778v16.667c0 12.278 19.889 22.222 44.444 22.222 24.556 0 44.445-9.944 44.445-22.222V91.11c0 12.278-19.889 22.222-44.445 22.222-24.555 0-44.444-9.944-44.444-22.222zM218.483 75.533l9.017 4.465-8.983 4.535-.016-4-121.5.469-.003-1 121.5-.47-.015-4zM517.978 75.041L527 79.498l-8.978 4.543-.02-4-199 .961-.004-1 198.999-.962-.019-3.999z" fill-rule="nonzero" fill="#000"/>
        <path d="M572.593 138v52h210v-52" stroke="#000" stroke-linecap="square"/>
        <path d="M678.007 189.993l1 .014-.882 60 4 .06-4.632 8.933-4.368-9.065 4 .058.882-60zM521 528v4h108v1H521v4l-9-4.5 9-4.5zM841 82v4h187v1H841v4l-9-4.5 9-4.5zM844 528l9 4.5-9 4.5v-4H733v-1h111v-4zM677.996 365.175l.929 106.82 4-.034-4.42 9.039-4.579-8.96 3.999-.036-.93-106.82 1-.009z" fill="#000" fill-rule="nonzero"/>
        <text font-family="Helvetica" font-size="12" fill="#000" x=".152" y="153.223">User interacts with</text>
        <text font-family="Helvetica" font-size="12" fill="#000" x="21.483" y="167.223">the sensor</text>
        <text font-family="Helvetica" font-size="12" fill="#000" x="224.315" y="150.223">Biometric template</text>
        <text font-family="Helvetica" font-size="12" fill="#000" x="243.32" y="164.223">is extracted</text>
        <text font-family="Helvetica" font-size="12" fill="#000" x="400.154" y="71.223">Template</text>
        <text font-family="Helvetica" font-size="12" fill="#000" x="386.15" y="95.223">transformation</text>
        <text font-family="Helvetica" font-size="12" fill="#000" x="882.151" y="78.223">Extraction of</text>
        <text font-family="Helvetica" font-size="12" fill="#000" x="874.145" y="101.223">stored template</text>
        <text font-family="Helvetica" font-size="12" fill="#000" x="768.153" y="294.223">Comparison</text>
        <text font-family="Helvetica" font-size="12" fill="#000" x="729.124" y="308.223">of both templates, decision</text>
        <text font-family="Helvetica" font-size="12" fill="#000" x="733.451" y="322.223">based on threshold value</text>
        <text font-family="Helvetica" font-size="12" fill="#000" x="381.974" y="603.223">Imposter detected</text>
        <text font-family="Helvetica" font-size="12" fill="#000" x="379.964" y="617.223">and access denied</text>
        <text font-family="Helvetica" font-size="12" fill="#000" x="862.647" y="603.223">User identified</text>
        <text font-family="Helvetica" font-size="12" fill="#000" x="848.632" y="617.223">and access granted</text>
        <text font-family="Helvetica" font-size="12" fill="#000" x="1056.654" y="145.223">Template</text>
        <text font-family="Helvetica" font-size="12" fill="#000" x="1056.312" y="159.223">database</text>
        <path d="M580.78 28.267l.164.986-.493.082c-3.266.545-6.555 1.097-9.868 1.658l-.493.083-.166-.986.493-.083c3.313-.56 6.603-1.113 9.87-1.658l.492-.082zm490.918-9.155l8.241 5.774-9.564 3.128.588-3.956-3.707-.545-.495-.073.145-.989.495.073c1.417.207 2.838.416 4.263.627l-.554-.083.588-3.956zm-471.185 5.915l.16.987-.494.08c-3.264.528-6.554 1.064-9.869 1.609l-.493.081-.162-.987.493-.08c3.316-.546 6.607-1.082 9.872-1.61l.493-.08zm19.764-3.138l.154.988-.494.077c-3.268.51-6.563 1.029-9.885 1.557l-.493.079-.157-.988.493-.079c3.323-.528 6.62-1.047 9.888-1.557l.494-.077zm426.842-2.281l.495.07c3.275.462 6.575.932 9.901 1.41l.495.071-.142.99-.495-.071c-3.325-.478-6.625-.948-9.899-1.41l-.495-.07.14-.99zm-407.085-.74l.149.99-.495.073c-3.266.49-6.562.989-9.886 1.498l-.494.076-.152-.989.495-.076c3.325-.509 6.621-1.008 9.889-1.498l.494-.074zm387.263-1.995l.495.067c3.277.443 6.58.894 9.911 1.354l.495.068-.136.991-.496-.068c-3.33-.46-6.632-.911-9.907-1.354l-.496-.067.134-.99zm-367.46-.902l.142.99-.495.07c-3.267.467-6.565.945-9.895 1.433l-.495.072-.145-.99.495-.072c3.33-.488 6.63-.965 9.899-1.433l.494-.07zm347.633-1.707l3.782.488c2.198.284 4.408.573 6.632.866l.495.066-.13.991-.496-.065c-3.334-.44-6.639-.87-9.914-1.29l-.496-.064.127-.992zM679.64 13.22l.134.991-.496.067c-3.267.442-6.569.895-9.904 1.359l-.495.069-.138-.99.495-.07c3.337-.464 6.64-.917 9.908-1.359l.496-.067zm307.968-1.429l.497.06c3.278.397 6.588.804 9.93 1.22l.495.063-.124.992-.496-.062c-3.34-.417-6.648-.823-9.925-1.22l-.497-.06.12-.993zm-288.127-1.163l.125.992-.496.063c-3.268.413-6.573.838-9.915 1.275l-.496.065-.13-.991.496-.065c3.344-.438 6.65-.863 9.92-1.277l.496-.062zm268.265-1.153l.497.056c3.28.369 6.593.75 9.94 1.14l.497.058-.116.994-.497-.058c-3.346-.392-6.658-.772-9.936-1.14l-.496-.057.111-.993zM719.338 8.22l.115.993-.497.058c-3.267.38-6.575.773-9.924 1.18l-.497.06-.12-.992.496-.06c3.35-.408 6.66-.801 9.93-1.181l.497-.058zm228.518-.89l.497.051c3.28.338 6.596.689 9.95 1.05l.497.055-.107.994-.497-.054c-3.353-.362-6.668-.712-9.946-1.05l-.497-.051.103-.995zm-208.629-1.3l.104.994-.497.052c-3.27.34-6.583.697-9.942 1.068l-.497.055-.11-.994.497-.055c3.361-.371 6.677-.728 9.948-1.069l.497-.052zm188.72-.642l.498.046c3.279.303 6.599.618 9.96.947l.497.049-.097.995-.498-.049c-3.359-.328-6.677-.644-9.954-.946l-.498-.046.092-.996zM759.138 4.094l.09.996-.498.045c-3.266.295-6.583.607-9.95.936l-.498.049-.097-.995.497-.05c3.37-.328 6.69-.64 9.958-.936l.498-.045zm148.878-.412l.499.04c3.277.26 6.6.535 9.968.825l.499.043-.086.996-.498-.043c-3.367-.29-6.688-.565-9.963-.825l-.498-.04.08-.996zM779.074 2.464l.073.998-.499.036c-3.263.24-6.584.499-9.964.777l-.498.04-.082-.996.498-.04c3.383-.28 6.707-.538 9.973-.778l.499-.037zm108.984-.215l.5.032c3.276.211 6.604.439 9.983.683l.499.036-.072.997-.5-.036c-3.376-.244-6.701-.471-9.975-.682l-.499-.032.064-.998zm-89.003-1.037l.052.999-.5.026c-3.257.17-6.583.363-9.977.578l-.5.031-.063-.998.5-.031c3.397-.216 6.727-.408 9.988-.579l.5-.026zm69.017-.064l.5.023c3.272.151 6.603.32 9.993.51l.5.027-.057.999-.499-.028c-3.387-.189-6.715-.358-9.984-.509l-.5-.023.047-.999zM819.058.444l.025 1-.5.012c-3.248.08-6.577.188-9.988.322l-.5.02-.039-1 .5-.02c3.415-.134 6.75-.241 10.002-.322l.5-.012zm29.013.015l.5.011c3.265.076 6.598.174 10 .294l.5.017-.036 1-.5-.018c-3.397-.12-6.726-.217-9.987-.293l-.5-.012.023-1zM832.495.277c1.998 0 4.022.01 6.075.03l.5.004-.009 1-.5-.005c-2.05-.02-4.07-.029-6.066-.029-1.295 0-2.605.005-3.93.015l-.5.004-.008-1 .5-.004c1.328-.01 2.64-.015 3.938-.015z" fill="#979797" fill-rule="nonzero"/>
    </g>
</svg>
