<svg xmlns="http://www.w3.org/2000/svg" width="1523" height="644">
    <g fill="none" fill-rule="evenodd">
        <path fill="#000" fill-rule="nonzero" d="M1004.528 29.777h-39.506c-5.455 0-9.877 4.477-9.877 10v80c0 5.523 4.422 10 9.877 10h59.259c5.454 0 9.876-4.477 9.876-10v-60l-29.63-30zm19.753 90h-59.26v-80h34.568v25h24.692v55zM789.676 65V37.5l27.16 27.5h-27.16zM755.11 30c-5.482 0-9.877 4.45-9.877 10v80c0 5.523 4.422 10 9.877 10h59.259c5.454 0 9.876-4.477 9.876-10V60l-29.63-30H755.11zM886.15 505.182H872.66L890.645 487l17.985 18.182h-13.488v20.136a39.478 39.478 0 0 0-8.993 7.682v-27.818zm49.456 27.273l-17.984-18.182v13.636c-16.231-.682-30.079 11.682-31.473 28.046-7.013 2.5-10.7 10.318-8.227 17.409 2.472 7.09 10.206 10.818 17.22 8.318 7.013-2.546 10.7-10.318 8.227-17.41a13.525 13.525 0 0 0-8.227-8.317c2.113-18.182 20.097-19.091 22.255-19.091V550.5l18.209-18.045zm-51.12 2.681c-5.98-4.636-13.308-7.227-20.817-7.227v-13.636l-17.984 18.182 17.984 18.181V537c6.025.136 11.825 2.273 16.366 6.364a36.35 36.35 0 0 1 4.45-8.228zM641.245 483c13.698 0 24.802 11.193 24.802 25s-11.104 25-24.802 25c-13.697 0-24.801-11.193-24.801-25s11.104-25 24.801-25zm0 62.5c27.406 0 49.603 11.188 49.603 25V583h-99.206v-12.5c0-13.813 22.197-25 49.603-25zM703.25 533v-31.25h12.4V533h-12.4zm0 25v-12.5h12.4V558h-12.4zM1171.568 533l8.166 8.294-38.089 38.765-20.24-20.588 8.166-8.295 12.074 12.236L1171.568 533zm-64.746 26.47l17.5 17.648h-58.33v-11.765c0-13 20.882-23.53 46.663-23.53l11.025.648-16.858 17zm5.833-76.47c12.886 0 23.332 10.534 23.332 23.53 0 12.994-10.446 23.529-23.332 23.529-12.885 0-23.331-10.535-23.331-23.53 0-12.995 10.446-23.529 23.331-23.529zM379.422 48.625a1.66 1.66 0 0 1-.878-.25c-7.33-4.125-13.668-5.875-21.265-5.875-7.56 0-14.737 1.958-21.265 5.875-.916.542-2.062.167-2.596-.833-.496-1-.153-2.292.763-2.834 7.102-4.208 14.89-6.375 23.098-6.375 8.132 0 15.233 1.959 23.021 6.334.954.541 1.298 1.791.802 2.791-.344.75-.993 1.167-1.68 1.167zM324.79 70.5c-.382 0-.764-.125-1.107-.375-.878-.667-1.07-1.958-.459-2.917 3.78-5.833 8.59-10.416 14.317-13.625 11.988-6.75 27.335-6.791 39.361-.041 5.727 3.208 10.537 7.75 14.317 13.541.61.917.42 2.25-.458 2.917-.878.667-2.062.458-2.673-.5-3.436-5.25-7.788-9.375-12.942-12.25-10.957-6.125-24.968-6.125-35.887.042-5.192 2.916-9.544 7.083-12.98 12.333-.306.583-.878.875-1.49.875zm23.86 50.292c-.496 0-.992-.209-1.335-.625-3.322-3.625-5.116-5.959-7.674-11-2.634-5.125-4.009-11.375-4.009-18.084 0-12.375 9.697-22.458 21.609-22.458 11.911 0 21.608 10.083 21.608 22.458 0 1.167-.84 2.084-1.909 2.084s-1.908-.917-1.908-2.084c0-10.083-7.98-18.291-17.791-18.291-9.812 0-17.791 8.208-17.791 18.291 0 6 1.222 11.542 3.55 16.042 2.444 4.792 4.124 6.833 7.063 10.083a2.283 2.283 0 0 1 0 2.959c-.42.416-.916.625-1.412.625zm27.374-7.709c-4.543 0-8.552-1.25-11.835-3.708-5.688-4.208-9.086-11.042-9.086-18.292 0-1.166.84-2.083 1.909-2.083s1.909.917 1.909 2.083c0 5.875 2.748 11.417 7.406 14.834 2.71 2 5.88 2.958 9.697 2.958.916 0 2.444-.125 3.97-.417 1.031-.208 2.024.542 2.215 1.709.19 1.125-.496 2.208-1.565 2.416-2.176.459-4.085.5-4.62.5zm-7.674 8.584c-.152 0-.343-.042-.496-.084-6.07-1.833-10.04-4.291-14.202-8.75-5.345-5.791-8.284-13.5-8.284-21.75 0-6.75 5.268-12.25 11.758-12.25 6.49 0 11.759 5.5 11.759 12.25 0 4.459 3.55 8.084 7.94 8.084 4.391 0 7.942-3.625 7.942-8.084 0-15.708-12.408-28.458-27.679-28.458-10.842 0-20.769 6.583-25.235 16.792-1.49 3.375-2.253 7.333-2.253 11.666 0 3.25.267 8.375 2.558 15.042.382 1.083-.114 2.292-1.107 2.667-.993.416-2.1-.167-2.443-1.209-1.871-5.458-2.787-10.875-2.787-16.5 0-5 .878-9.541 2.596-13.5 5.077-11.625 16.34-19.166 28.671-19.166 17.37 0 31.497 14.625 31.497 32.625 0 6.75-5.269 12.25-11.76 12.25-6.49 0-11.758-5.5-11.758-12.25 0-4.459-3.55-8.084-7.94-8.084-4.391 0-7.942 3.625-7.942 8.084 0 7.125 2.52 13.791 7.14 18.791 3.626 3.917 7.1 6.084 12.484 7.709 1.03.291 1.603 1.458 1.336 2.541-.191.959-.993 1.584-1.795 1.584z"/>
        <path d="M311.842 30h91.608v100h-91.608z"/>
        <path fill="#000" fill-rule="nonzero" d="M881.05 339.273h-17.937v-9.091h17.936v9.09zm0-18.182h-17.937V312h17.936v9.09zm0-59.091v4.545h-17.937c-4.977 0-8.968 4.046-8.968 9.091v72.728c0 5.02 4.015 9.09 8.968 9.09h17.936V362h8.968V262h-8.968zm44.84 31.818v54.546c0 5.045-3.991 9.09-8.969 9.09h-17.936v-9.09h17.936v-40.91h-17.936v-9.09h20.178l-20.178-20.455v-11.364l26.904 27.273zm-17.937 27.273h-8.968V312h8.968v9.09zm0 18.182h-8.968v-9.091h8.968v9.09zM93.13 70.515V54.849c0-5.78 4.652-10.472 10.383-10.472 5.73 0 10.382 4.692 10.382 10.472v15.666a18.832 18.832 0 0 0 8.306-15.666c0-10.43-8.347-18.849-18.689-18.849-10.34 0-18.687 8.42-18.687 18.85 0 6.534 3.28 12.272 8.306 15.665zm40.865 19.394l-18.855-9.467a5.805 5.805 0 0 0-2.243-.46h-3.156V54.849c0-1.669-.656-3.27-1.825-4.448a6.18 6.18 0 0 0-4.404-1.835 6.18 6.18 0 0 0-4.405 1.835 6.315 6.315 0 0 0-1.825 4.448v44.987L83.039 96.82c-.332-.042-.623-.126-.996-.126a4.625 4.625 0 0 0-3.282 1.383l-3.28 3.35 20.515 20.694a6.224 6.224 0 0 0 4.402 1.842h28.197c3.116 0 5.525-2.304 5.981-5.362l3.114-22.074c.042-.293.084-.586.084-.838 0-2.597-1.578-4.859-3.78-5.78h.001z"/>
        <path d="M60.64 30h91.608v100H60.64z"/>
        <path fill="#000" fill-rule="nonzero" d="M1478.5 37c-24.282 0-43.95 9.944-43.95 22.222s19.668 22.222 43.95 22.222c24.283 0 43.951-9.944 43.951-22.222S1502.783 37 1478.501 37zm-43.95 33.333V87c0 12.278 19.668 22.222 43.95 22.222 24.283 0 43.951-9.944 43.951-22.222V70.333c0 12.278-19.668 22.223-43.95 22.223-24.283 0-43.951-9.945-43.951-22.223zm0 27.778v16.667c0 12.278 19.668 22.222 43.95 22.222 24.283 0 43.951-9.944 43.951-22.222V98.11c0 12.278-19.668 22.222-43.95 22.222-24.283 0-43.951-9.944-43.951-22.222z"/>
        <path stroke="#000" stroke-linecap="square" d="M784.593 138v52h210v-52"/>
        <path fill="#000" fill-rule="nonzero" d="M890.007 189.992l1 .015-.882 60 4 .06-4.632 8.933-4.368-9.066 4 .059.882-60zM733 528v3.999h108v1H733v4l-9-4.5 9-4.5zm323 0l9 4.5-9 4.5v-4.001H945v-1h111v-4zM889.996 365.175l.929 106.82 4-.034-4.42 9.039-4.579-8.96 3.999-.036-.93-106.82 1-.009z"/>
        <text fill="#000" font-family="Helvetica" font-size="24" x="66.979" y="156.223">Sensor</text>
        <text fill="#000" font-family="Helvetica" font-size="24" x="49.635" y="185.223">interaction</text>
        <path fill="#000" fill-rule="nonzero" d="M301.756 76.1l8.994 4.512-9.006 4.488.005-4.001-158.5-.211.002-1 158.499.211.006-4z"/>
        <text fill="#000" font-family="Helvetica" font-size="24" x="272.131" y="156.223">Biometric template</text>
        <text fill="#000" font-family="Helvetica" font-size="24" x="319.475" y="185.223">extraction</text>
        <text fill="#000" font-family="Helvetica" font-size="24" x="493.309" y="73.223">Template</text>
        <text fill="#000" font-family="Helvetica" font-size="24" x="493.301" y="104.223">transformation</text>
        <text fill="#000" font-family="Helvetica" font-size="24" x="1130.303" y="76.223">Extraction of</text>
        <text fill="#000" font-family="Helvetica" font-size="24" x="1125.289" y="108.223">stored template</text>
        <text fill="#000" font-family="Helvetica" font-size="24" x="1065.307" y="284.223">Comparison</text>
        <text fill="#000" font-family="Helvetica" font-size="24" x="987.248" y="313.223">of both templates, decision</text>
        <text fill="#000" font-family="Helvetica" font-size="24" x="995.902" y="342.223">based on threshold value</text>
        <text fill="#000" font-family="Helvetica" font-size="24" x="546.447" y="613.223">Imposter detected</text>
        <text fill="#000" font-family="Helvetica" font-size="24" x="542.428" y="642.223">and access denied</text>
        <text fill="#000" font-family="Helvetica" font-size="24" x="1039.295" y="607.223">User identified</text>
        <text fill="#000" font-family="Helvetica" font-size="24" x="1011.264" y="636.223">and access granted</text>
        <text fill="#000" font-family="Helvetica" font-size="24" x="1436.809" y="166.223">Template</text>
        <text fill="#000" font-family="Helvetica" font-size="24" x="1436.123" y="195.223">database</text>
        <path fill="#979797" fill-rule="nonzero" d="M1426.791 42.633l7.695 6.484-9.804 2.265.937-3.888c-3.159-.757-6.3-1.504-9.422-2.242l-.487-.115.23-.974.487.115c3.224.763 6.467 1.535 9.73 2.317l-.304-.073.938-3.89zm-30.324-3.002l.487.112c3.228.74 6.476 1.491 9.745 2.253l.486.113-.226.974-.487-.114a2931.82 2931.82 0 0 0-9.742-2.251l-.487-.112.224-.975zm-19.516-4.398l.488.108c3.233.717 6.487 1.445 9.761 2.183l.488.11-.22.976-.488-.11c-3.273-.738-6.526-1.466-9.757-2.182l-.488-.109.216-.976zm-564.175-.648l.16.987-.493.08a5503.08 5503.08 0 0 0-9.862 1.618l-.493.082-.163-.987.494-.081a5504.01 5504.01 0 0 1 9.863-1.619l.494-.08zm544.614-3.605l.49.104c3.237.691 6.496 1.394 9.778 2.108l.488.107-.212.977-.489-.107c-3.28-.714-6.538-1.416-9.774-2.107l-.49-.104.21-.978zm-524.867.423l.157.988-.493.078c-3.274.521-6.567 1.05-9.88 1.583l-.494.08-.159-.987.494-.08c3.314-.534 6.608-1.062 9.881-1.583l.494-.079zm19.751-3.101l.153.988-.494.077c-3.269.506-6.559 1.02-9.87 1.54l-.494.078-.155-.988.494-.078c3.312-.52 6.602-1.034 9.872-1.54l.494-.077zm485.533-1.412l.49.1c3.24.663 6.505 1.338 9.793 2.026l.49.102-.205.979-.49-.102c-3.286-.687-6.549-1.362-9.788-2.025l-.49-.1.2-.98zm-465.753-1.606l.148.989-.494.074c-3.272.492-6.567.991-9.883 1.498l-.495.075-.15-.988.494-.076c3.317-.506 6.612-1.006 9.885-1.498l.495-.074zm446.133-2.306l.491.095c3.246.632 6.517 1.277 9.813 1.936l.49.098-.196.98-.49-.098c-3.294-.658-6.564-1.302-9.808-1.934l-.49-.096.19-.981zM891.84 22.36l.144.99-.494.071c-3.273.476-6.57.96-9.89 1.45l-.494.074-.146-.99.494-.073c3.321-.491 6.618-.975 9.892-1.45l.494-.072zm406.705-3.096l.492.09c3.25.598 6.528 1.21 9.832 1.835l.491.093-.186.983-.491-.093a1871.32 1871.32 0 0 0-9.827-1.834l-.492-.09.181-.984zm-386.901.272l.138.99-.495.07c-3.273.458-6.57.924-9.893 1.398l-.495.071-.142-.99.495-.07c3.324-.475 6.623-.941 9.896-1.4l.496-.069zm19.824-2.712l.133.99-.496.067c-3.275.439-6.577.886-9.906 1.343l-.495.067-.136-.99.495-.068c3.33-.456 6.633-.904 9.91-1.343l.495-.066zm347.378-1.061l.493.084c3.255.56 6.54 1.135 9.852 1.725l.492.087-.175.985-.492-.088c-3.311-.59-6.593-1.164-9.847-1.723l-.493-.085.17-.985zm-327.531-1.53l.126.992-.496.064c-3.277.417-6.583.843-9.918 1.28l-.496.064-.13-.991.496-.065c3.336-.436 6.644-.863 9.922-1.28l.496-.064zm307.79-1.729l.494.078c3.261.518 6.553 1.051 9.876 1.6l.493.082-.163.987-.494-.082c-3.32-.549-6.61-1.082-9.868-1.6l-.494-.077.157-.988zm-287.944-.722l.12.993-.497.06c-3.279.393-6.588.796-9.928 1.21l-.496.06-.123-.992.496-.061c3.342-.414 6.652-.817 9.932-1.21l.496-.06zm268.156-2.264l.495.071c3.264.469 6.561.955 9.892 1.46l.494.074-.15.989-.494-.075c-3.328-.504-6.623-.99-9.884-1.458l-.495-.071.142-.99zm-248.28-.035l.11.993-.497.056c-3.277.366-6.589.743-9.933 1.13l-.497.058-.115-.993.497-.058c3.346-.388 6.658-.765 9.937-1.13l.497-.056zm19.887-2.126l.101.995-.497.051c-3.279.335-6.594.683-9.945 1.042l-.498.053-.106-.994.497-.053c3.353-.36 6.67-.707 9.95-1.043l.498-.05zm208.567-.513l.496.063c3.269.414 6.574.847 9.916 1.3l.495.066-.134.991-.495-.067c-3.34-.452-6.642-.885-9.907-1.298l-.496-.063.125-.992zM1030.827 5.43l.092.996-.498.046c-3.277.3-6.595.613-9.952.94l-.498.048-.097-.996.498-.048c3.36-.326 6.678-.64 9.958-.94l.497-.046zm168.782-.903l.497.053c3.275.35 6.59.723 9.946 1.116l.497.058-.117.993-.496-.058A997.095 997.095 0 0 0 1200 5.575l-.497-.053.106-.995zm-148.843-.795l.079.997-.499.04c-3.276.258-6.597.532-9.962.82l-.498.043-.086-.997.498-.042c3.368-.289 6.691-.562 9.97-.822l.498-.04zM1179.7 2.63l.498.042c3.278.275 6.6.575 9.97.899l.497.047-.096.996-.497-.048a848.054 848.054 0 0 0-9.958-.898l-.498-.042.084-.996zm-108.974-.327l.064.998-.499.032c-3.273.21-6.597.438-9.97.68l-.5.037-.071-.998.499-.036c3.376-.243 6.702-.47 9.978-.68l.5-.033zm88.994-1.078l.5.028c3.276.187 6.605.4 9.984.641l.498.036-.07.997-.5-.035c-3.374-.24-6.697-.454-9.97-.64l-.499-.029.057-.998zm-69.018-.027l.046 1-.5.022c-3.27.153-6.598.323-9.982.513l-.5.028-.055-.999.499-.028c3.387-.19 6.718-.36 9.992-.513l.5-.023zm20.005-.708l.024 1-.5.012c-3.264.08-6.593.181-9.99.304l-.499.018-.036-1 .5-.017c3.4-.123 6.733-.225 10-.305l.5-.012zm29.023-.072l.5.012c3.274.08 6.608.19 10 .33l.5.02-.042 1-.5-.021c-3.386-.14-6.714-.25-9.983-.33l-.5-.011.025-1zm-11.89-.141c.793 0 1.582.002 2.375.006l.5.002-.004 1-.5-.002a673.162 673.162 0 0 0-9.997.038l-.5.006-.012-1 .5-.006a674.16 674.16 0 0 1 7.639-.044z"/>
        <path fill="#000" fill-rule="nonzero" d="M1053.497 83.106l.002 3.999 381-.217.001 1-381 .217.003 4.001-9.003-4.495 8.997-4.505zM735.74 75.157l9.01 4.48-8.99 4.52-.009-4-339 .76-.002-1 338.999-.76-.008-4z"/>
    </g>
</svg>
