<svg width="1124" height="591"
    xmlns="http://www.w3.org/2000/svg">
    <g fill="none" fill-rule="evenodd">
        <path d="M792.593 0h-40c-5.523 0-10 4.477-10 10v80c0 5.523 4.477 10 10 10h60c5.522 0 10-4.477 10-10V30l-30-30zm20 90h-60V10h35v25h25v55zM577.593 35V7.5l27.5 27.5h-27.5zm-35-35c-5.55 0-10 4.45-10 10v80c0 5.523 4.477 10 10 10h60c5.522 0 10-4.477 10-10V30l-30-30h-40zM673.91 475.182h-13.637L678.455 457l18.181 18.182H683v20.136a39.8 39.8 0 0 0-9.09 7.682v-27.818zm50 27.273l-18.183-18.182v13.636c-16.409-.682-30.409 11.682-31.818 28.046-7.09 2.5-10.818 10.318-8.318 17.409 2.5 7.09 10.318 10.818 17.409 8.318 7.09-2.546 10.818-10.318 8.318-17.41-1.363-3.908-4.454-6.954-8.318-8.317 2.136-18.182 20.318-19.091 22.5-19.091V520.5l18.41-18.045zm-51.683 2.681c-6.045-4.636-13.454-7.227-21.045-7.227v-13.636L633 502.455l18.182 18.181V507c6.09.136 11.954 2.273 16.545 6.364a36.226 36.226 0 0 1 4.5-8.228zM429 453c13.807 0 25 11.193 25 25s-11.193 25-25 25-25-11.193-25-25 11.193-25 25-25zm0 62.5c27.625 0 50 11.188 50 25V553H379v-12.5c0-13.813 22.375-25 50-25zm62.5-12.5v-31.25H504V503h-12.5zm0 25v-12.5H504V528h-12.5zM959.47 503l8.236 8.294-38.412 38.765-20.412-20.588 8.236-8.295 12.176 12.236L959.471 503zm-65.294 26.47l17.648 17.648H853v-11.765c0-13 21.059-23.53 47.059-23.53l11.117.648-17 17zM900.06 453c12.995 0 23.53 10.534 23.53 23.53 0 12.994-10.535 23.529-23.53 23.529-12.995 0-23.53-10.535-23.53-23.53 0-12.995 10.535-23.529 23.53-23.529z" fill="#000" fill-rule="nonzero"/>
        <path d="M628 228.5h100v100H628z"/>
        <path d="M669.667 241h-20.834c-4.583 0-8.333 3.75-8.333 8.333v58.334c0 4.583 3.75 8.333 8.333 8.333h20.834v8.333H678v-91.666h-8.333V241zm0 62.5h-20.834l20.834-25v25zm37.5-62.5h-20.834v8.333h20.834V303.5l-20.834-25V316h20.834c4.583 0 8.333-3.75 8.333-8.333v-58.334c0-4.583-3.75-8.333-8.333-8.333zM295.307 18.625a1.69 1.69 0 0 1-.888-.25c-7.409-4.125-13.814-5.875-21.493-5.875-7.64 0-14.896 1.958-21.494 5.875-.926.542-2.084.167-2.624-.833-.502-1-.154-2.292.772-2.834 7.177-4.208 15.05-6.375 23.346-6.375 8.219 0 15.396 1.959 23.268 6.334.965.541 1.312 1.791.81 2.791-.347.75-1.003 1.167-1.697 1.167zM240.087 40.5c-.386 0-.772-.125-1.12-.375-.887-.667-1.08-1.958-.462-2.917 3.82-5.833 8.682-10.416 14.47-13.625 12.117-6.75 27.63-6.791 39.785-.041 5.788 3.208 10.65 7.75 14.47 13.541.618.917.425 2.25-.463 2.917-.887.667-2.083.458-2.7-.5-3.474-5.25-7.873-9.375-13.082-12.25-11.075-6.125-25.237-6.125-36.273.042-5.248 2.916-9.647 7.083-13.12 12.333-.309.583-.888.875-1.505.875zm24.118 50.292a1.75 1.75 0 0 1-1.351-.625c-3.357-3.625-5.17-5.959-7.756-11-2.663-5.125-4.052-11.375-4.052-18.084 0-12.375 9.801-22.458 21.84-22.458 12.04 0 21.842 10.083 21.842 22.458 0 1.167-.85 2.084-1.93 2.084s-1.929-.917-1.929-2.084c0-10.083-8.065-18.291-17.982-18.291S254.905 51 254.905 61.083c0 6 1.235 11.542 3.589 16.042 2.47 4.792 4.167 6.833 7.138 10.083a2.264 2.264 0 0 1 0 2.959c-.424.416-.926.625-1.427.625zm27.667-7.709c-4.592 0-8.643-1.25-11.962-3.708-5.75-4.208-9.184-11.042-9.184-18.292 0-1.166.849-2.083 1.93-2.083 1.08 0 1.929.917 1.929 2.083 0 5.875 2.778 11.417 7.486 14.834 2.74 2 5.942 2.958 9.801 2.958.926 0 2.47-.125 4.013-.417 1.042-.208 2.046.542 2.239 1.709.193 1.125-.502 2.208-1.583 2.416-2.2.459-4.128.5-4.669.5zm-7.756 8.584c-.154 0-.347-.042-.502-.084-6.135-1.833-10.148-4.291-14.354-8.75-5.403-5.791-8.374-13.5-8.374-21.75 0-6.75 5.325-12.25 11.885-12.25s11.885 5.5 11.885 12.25c0 4.459 3.589 8.084 8.027 8.084 4.437 0 8.026-3.625 8.026-8.084 0-15.708-12.541-28.458-27.976-28.458-10.96 0-20.992 6.583-25.507 16.792-1.505 3.375-2.277 7.333-2.277 11.666 0 3.25.27 8.375 2.586 15.042.385 1.083-.116 2.292-1.12 2.667-1.003.416-2.122-.167-2.47-1.209-1.89-5.458-2.816-10.875-2.816-16.5 0-5 .887-9.541 2.624-13.5 5.132-11.625 16.516-19.166 28.98-19.166 17.557 0 31.835 14.625 31.835 32.625 0 6.75-5.325 12.25-11.885 12.25s-11.886-5.5-11.886-12.25c0-4.459-3.588-8.084-8.026-8.084-4.437 0-8.026 3.625-8.026 8.084 0 7.125 2.547 13.791 7.216 18.791 3.666 3.917 7.177 6.084 12.618 7.709 1.042.291 1.62 1.458 1.35 2.541-.192.959-1.003 1.584-1.813 1.584z" fill="#000" fill-rule="nonzero"/>
        <path d="M227 0h92.593v100H227z"/>
        <path d="M36.84 41.515V25.849c0-5.78 4.701-10.472 10.494-10.472 5.792 0 10.494 4.692 10.494 10.472v15.666c5.079-3.393 8.395-9.131 8.395-15.666C66.223 15.419 57.786 7 47.333 7c-10.451 0-18.888 8.42-18.888 18.85 0 6.534 3.316 12.272 8.395 15.665zm41.304 19.394l-19.058-9.467a5.922 5.922 0 0 0-2.267-.46h-3.19V25.849a6.281 6.281 0 0 0-6.296-6.283 6.281 6.281 0 0 0-6.297 6.283v44.987L26.64 67.82c-.336-.042-.63-.126-1.007-.126a4.7 4.7 0 0 0-3.317 1.383L19 72.427l20.736 20.694a6.325 6.325 0 0 0 4.45 1.842h28.5c3.149 0 5.584-2.304 6.045-5.362l3.148-22.074c.042-.293.084-.586.084-.838 0-2.597-1.595-4.859-3.82-5.78h.001z" fill="#000" fill-rule="nonzero"/>
        <path d="M4 1h92.593v100H4z"/>
        <path d="M1079.444 0C1054.89 0 1035 9.944 1035 22.222s19.889 22.222 44.444 22.222c24.556 0 44.445-9.944 44.445-22.222S1104 0 1079.444 0zM1035 33.333V50c0 12.278 19.889 22.222 44.444 22.222 24.556 0 44.445-9.944 44.445-22.222V33.333c0 12.278-19.889 22.223-44.445 22.223-24.555 0-44.444-9.945-44.444-22.223zm0 27.778v16.667c0 12.278 19.889 22.222 44.444 22.222 24.556 0 44.445-9.944 44.445-22.222V61.11c0 12.278-19.889 22.222-44.445 22.222-24.555 0-44.444-9.944-44.444-22.222zM218.483 45.533l9.017 4.465-8.983 4.535-.016-4.001-121.5.47-.003-1 121.5-.47-.015-4zM517.978 45.041L527 49.498l-8.978 4.543-.02-4-199 .961-.004-1 198.999-.961-.019-4z" fill="#000" fill-rule="nonzero"/>
        <path d="M572.593 108v52h210v-52" stroke="#000" stroke-linecap="square"/>
        <path d="M678.007 159.993l1 .014-.882 60.001 4 .06-4.632 8.932-4.368-9.065 4 .058.882-60zM521 498v4h108v1H521v4l-9-4.5 9-4.5zM841 52v4h187v1H841v4l-9-4.5 9-4.5zM844 498l9 4.5-9 4.5v-4H733v-1h111v-4zM677.996 327.996l.934 114 4-.033-4.426 9.037-4.574-8.963 4-.033-.934-114 1-.008z" fill="#000" fill-rule="nonzero"/>
        <text font-family="Helvetica" font-size="12" fill="#000" x=".152" y="124">User interacts with</text>
        <text font-family="Helvetica" font-size="12" fill="#000" x="21.483" y="138">the sensor</text>
        <text font-family="Helvetica" font-size="12" fill="#000" x="224.315" y="121">Biometric template</text>
        <text font-family="Helvetica" font-size="12" fill="#000" x="243.32" y="135">is extracted</text>
        <text font-family="Helvetica" font-size="12" fill="#000" x="400.154" y="42">Template</text>
        <text font-family="Helvetica" font-size="12" fill="#000" x="386.15" y="66">transformation</text>
        <text font-family="Helvetica" font-size="12" fill="#000" x="904.151" y="49">Extraction of</text>
        <text font-family="Helvetica" font-size="12" fill="#000" x="896.145" y="72">stored template</text>
        <text font-family="Helvetica" font-size="12" fill="#000" x="768.153" y="265">Comparison</text>
        <text font-family="Helvetica" font-size="12" fill="#000" x="729.124" y="279">of both templates, decision</text>
        <text font-family="Helvetica" font-size="12" fill="#000" x="733.451" y="293">based on threshold value</text>
        <text font-family="Helvetica" font-size="12" fill="#000" x="381.974" y="574">Imposter detected</text>
        <text font-family="Helvetica" font-size="12" fill="#000" x="379.964" y="588">and access denied</text>
        <text font-family="Helvetica" font-size="12" fill="#000" x="862.647" y="574">User identified</text>
        <text font-family="Helvetica" font-size="12" fill="#000" x="848.632" y="588">and access granted</text>
        <text font-family="Helvetica" font-size="12" fill="#000" x="1056.654" y="116">Template</text>
        <text font-family="Helvetica" font-size="12" fill="#000" x="1056.312" y="130">database</text>

    </g>
</svg>
