<svg xmlns="http://www.w3.org/2000/svg" width="1182" height="740" viewBox="0 0 1182 740">
  <g fill="none" fill-rule="evenodd">
    <rect width="539" height="739" x=".5" y=".5" fill="#D8D8D8" stroke="#979797" rx="8"/>
    <text fill="#000" font-family="Helvetica" font-size="24">
      <tspan x="36.301" y="130">verify AppID</tspan>
    </text>
    <text fill="#000" font-family="Helvetica" font-size="24" transform="rotate(-90 332 380)">
      <tspan x="253.268" y="369">hashed AppID,</tspan> <tspan x="223.273" y="403">challenge paramters</tspan>
    </text>
    <text fill="#000" font-family="Helvetica" font-size="24">
      <tspan x="20.797" y="615">verify presence,</tspan> <tspan x="38.117" y="644">load keypair,</tspan> <tspan x="5.428" y="673">generate signature</tspan>
    </text>
    <path fill="#000" fill-rule="nonzero" d="M525 94L525 102 914 102 914 105 525 105 525 113 506 103.5 525 94zM485.148255 130.408045L900.3 426.046 904.941185 419.530321 914.907283 438.290035 893.919853 435.007085 898.56 428.49 483.408045 132.851745 485.148255 130.408045z"/>
    <rect width="206" height="119" x="299.5" y="67.5" fill="#D8D8D8" stroke="#000" rx="8"/>
    <path fill="#000" fill-rule="nonzero" d="M328 187L328 557 332 557 327.5 566 323 557 327 557 327 187 328 187zM460.500661 187L464.988768 196.005937 460.989 196 460.499339 566.50066 459.49934 566.499339 459.989 195.999 455.988775 195.994048 460.500661 187z"/>
    <text fill="#000" font-family="Helvetica" font-size="24">
      <tspan x="356.49" y="130">Browser</tspan>
    </text>
    <rect width="206" height="141" x="299.5" y="565.5" fill="#FFF" stroke="#979797" rx="8"/>
    <path fill="#000" fill-rule="nonzero" d="M228.640625 636C228.640625 609.290427 252.379736 597.650197 299.535442 601.001258L299.535442 601.001258 300.034185 601.0367 299.9633 602.034185 299.464558 601.998742C252.807764 598.683136 229.640625 610.042906 229.640625 636 229.640625 660.436815 250.00682 672.025514 291.036246 670.72886L290.485 670.744 290.286969 666.761098 299.499383 670.808497 290.734016 675.749989 290.534 671.742 289.828443 671.763762C249.539594 672.790851 229.052486 661.128905 228.646772 636.742866zM219.5 120.385338C219.5 97.1553502 245.772554 87.0847191 298.027734 89.9876362L298.027734 89.9876362 298.526964 90.0153698 298.471497 91.0138304 296.427727 90.9036805C245.715469 88.3100201 220.5 98.1973361 220.5 120.385338 220.5 141.612454 243.396251 151.664703 289.47407 150.393115L288.932 150.406 288.771634 146.418105 297.945298 150.55258 289.13352 155.410826 288.972 151.405 288.11142 151.42782C242.919241 152.460651 219.961524 142.376624 219.506889 121.035485z"/>
    <path fill="#000" fill-rule="nonzero" d="M45.8333333,29.1666667 L33.3333333,29.1666667 L33.3333333,20.8333333 L27.75,20.8333333 C25.375,25.875 20.25,29.1666667 14.5833333,29.1666667 C6.54166667,29.1666667 0,22.625 0,14.5833333 C0,6.54166667 6.54166667,0 14.5833333,0 C20.25,0 25.3541667,3.29166667 27.75,8.33333333 L50,8.33333333 L50,20.8333333 L45.8333333,20.8333333 L45.8333333,29.1666667 L45.8333333,29.1666667 Z M37.5,25 L41.6666667,25 L41.6666667,16.6666667 L45.8333333,16.6666667 L45.8333333,12.5 L24.875,12.5 L24.3958333,11.1041667 C22.9166667,6.95833333 18.9791667,4.16666667 14.5833333,4.16666667 C8.83036719,4.16666667 4.16666667,8.83036719 4.16666667,14.5833333 C4.16666667,20.3362995 8.83036719,25 14.5833333,25 C18.9791667,25 22.9166667,22.2083333 24.3958333,18.0625 L24.875,16.6666667 L37.5,16.6666667 L37.5,25 L37.5,25 Z M14.5833333,20.8333333 C11.1315536,20.8333333 8.33333333,18.035113 8.33333333,14.5833333 C8.33333333,11.1315536 11.1315536,8.33333333 14.5833333,8.33333333 C18.035113,8.33333333 20.8333333,11.1315536 20.8333333,14.5833333 C20.8333333,18.035113 18.035113,20.8333333 14.5833333,20.8333333 L14.5833333,20.8333333 Z M14.5833333,12.5 C13.4327401,12.5 12.5,13.4327401 12.5,14.5833333 C12.5,15.7339266 13.4327401,16.6666667 14.5833333,16.6666667 C15.7339266,16.6666667 16.6666667,15.7339266 16.6666667,14.5833333 C16.6666667,13.4327401 15.7339266,12.5 14.5833333,12.5 Z" transform="translate(377 651)"/>
    <text fill="#000" font-family="Helvetica" font-size="24">
      <tspan x="386.33" y="606">U2F</tspan> <tspan x="379.645" y="635">token</tspan>
    </text>
    <text fill="#000" font-family="Helvetica-Bold, Helvetica" font-size="24" font-weight="bold">
      <tspan x="202.123" y="39">User device</tspan>
    </text>
    <rect width="266" height="530" x="915" y=".5" fill="#D8D8D8" stroke="#979797" rx="8"/>
    <text fill="#000" font-family="Helvetica" font-size="24" transform="rotate(-90 997.5 357.5)">
      <tspan x="912.797" y="330">verify signature,</tspan> <tspan x="919.465" y="363">with public key</tspan>
    </text>
    <text fill="#000" font-family="Helvetica-Bold, Helvetica" font-size="24" font-weight="bold">
      <tspan x="944.313" y="32">Relying party /</tspan> <tspan x="964.293" y="61">web server</tspan>
    </text>
    <rect width="266" height="104" x="915.5" y="635.5" fill="#FFF" stroke="#979797" rx="8"/>
    <text fill="#000" font-family="Helvetica" font-size="24">
      <tspan x="966.469" y="677">FIDO metadata</tspan> <tspan x="1010.49" y="706">service</tspan>
    </text>
    <path fill="#000" fill-rule="nonzero" d="M5,0 C2.225,0 0,2.225 0,5 L0,30 C0,32.7614237 2.23857625,35 5,35 L25,35 L25,47.5 L32.5,40 L40,47.5 L40,35 L45,35 C47.7614237,35 50,32.7614237 50,30 L50,12.5 L50,7.5 L50,5 C50,2.23857625 47.7614237,0 45,0 L35,0 L35,0 L5,0 L5,0 Z M25,5 L32.5,10 L40,5 L40,13.75 L47.5,17.5 L40,21.25 L40,30 L32.5,25 L25,30 L25,21.25 L17.5,17.5 L25,13.75 L25,5 L25,5 Z M5,5 L17.5,5 L17.5,10 L5,10 L5,5 L5,5 Z M5,15 L12.5,15 L12.5,20 L5,20 L5,15 L5,15 Z M5,25 L17.5,25 L17.5,30 L5,30 L5,25 Z" transform="translate(1088 139)"/>
    <path fill="#000" fill-rule="nonzero" d="M1121.5,194 L1126,203 L1122,203 L1122,635 L1121,635 L1121,203 L1117,203 L1121.5,194 Z"/>
    <path fill="#000" fill-rule="nonzero" d="M22.2222222,0 C9.94444444,0 0,4.97222222 0,11.1111111 C0,17.25 9.94444444,22.2222222 22.2222222,22.2222222 C34.5,22.2222222 44.4444444,17.25 44.4444444,11.1111111 C44.4444444,4.97222222 34.5,0 22.2222222,0 L22.2222222,0 Z M0,16.6666667 L0,25 C0,31.1388889 9.94444444,36.1111111 22.2222222,36.1111111 C34.5,36.1111111 44.4444444,31.1388889 44.4444444,25 L44.4444444,16.6666667 C44.4444444,22.8055556 34.5,27.7777778 22.2222222,27.7777778 C9.94444444,27.7777778 0,22.8055556 0,16.6666667 L0,16.6666667 Z M0,30.5555556 L0,38.8888889 C0,45.0277778 9.94444444,50 22.2222222,50 C34.5,50 44.4444444,45.0277778 44.4444444,38.8888889 L44.4444444,30.5555556 C44.4444444,36.6944444 34.5,41.6666667 22.2222222,41.6666667 C9.94444444,41.6666667 0,36.6944444 0,30.5555556 Z" transform="translate(957 133)"/>
    <path fill="#000" fill-rule="nonzero" d="M13.6363636,18.1818182 C11.1259784,18.1818182 9.09090909,16.1467489 9.09090909,13.6363636 C9.09090909,11.1259784 11.1259784,9.09090909 13.6363636,9.09090909 C16.1467489,9.09090909 18.1818182,11.1259784 18.1818182,13.6363636 C18.1818182,16.1467489 16.1467489,18.1818182 13.6363636,18.1818182 L13.6363636,18.1818182 Z M26.4772727,9.09090909 C24.6136364,3.79545455 19.5681818,0 13.6363636,0 C6.10520796,0 4.4408921e-16,6.10520796 4.4408921e-16,13.6363636 C4.4408921e-16,21.1675193 6.10520796,27.2727273 13.6363636,27.2727273 C19.5681818,27.2727273 24.6136364,23.4772727 26.4772727,18.1818182 L36.3636364,18.1818182 L36.3636364,27.2727273 L45.4545455,27.2727273 L45.4545455,18.1818182 L50,18.1818182 L50,9.09090909 L26.4772727,9.09090909 Z" transform="translate(953 90)"/>
    <path fill="#000" fill-rule="nonzero" d="M13.6363636,18.1818182 C11.1259784,18.1818182 9.09090909,16.1467489 9.09090909,13.6363636 C9.09090909,11.1259784 11.1259784,9.09090909 13.6363636,9.09090909 C16.1467489,9.09090909 18.1818182,11.1259784 18.1818182,13.6363636 C18.1818182,16.1467489 16.1467489,18.1818182 13.6363636,18.1818182 L13.6363636,18.1818182 Z M26.4772727,9.09090909 C24.6136364,3.79545455 19.5681818,0 13.6363636,0 C6.10520796,0 4.4408921e-16,6.10520796 4.4408921e-16,13.6363636 C4.4408921e-16,21.1675193 6.10520796,27.2727273 13.6363636,27.2727273 C19.5681818,27.2727273 24.6136364,23.4772727 26.4772727,18.1818182 L36.3636364,18.1818182 L36.3636364,27.2727273 L45.4545455,27.2727273 L45.4545455,18.1818182 L50,18.1818182 L50,9.09090909 L26.4772727,9.09090909 Z" transform="translate(957 455)"/>
    <path fill="#000" fill-rule="nonzero" d="M978.498084,194.000004 L983.032534,202.982696 L979.032,202.998 L980.001912,455.998081 L979.001919,456.001912 L978.032,203.001 L974.0326,203.017179 L978.498084,194.000004 Z"/>
    <path fill="#000" fill-rule="nonzero" d="M45.8333333,29.1666667 L33.3333333,29.1666667 L33.3333333,20.8333333 L27.75,20.8333333 C25.375,25.875 20.25,29.1666667 14.5833333,29.1666667 C6.54166667,29.1666667 0,22.625 0,14.5833333 C0,6.54166667 6.54166667,0 14.5833333,0 C20.25,0 25.3541667,3.29166667 27.75,8.33333333 L50,8.33333333 L50,20.8333333 L45.8333333,20.8333333 L45.8333333,29.1666667 L45.8333333,29.1666667 Z M37.5,25 L41.6666667,25 L41.6666667,16.6666667 L45.8333333,16.6666667 L45.8333333,12.5 L24.875,12.5 L24.3958333,11.1041667 C22.9166667,6.95833333 18.9791667,4.16666667 14.5833333,4.16666667 C8.83036719,4.16666667 4.16666667,8.83036719 4.16666667,14.5833333 C4.16666667,20.3362995 8.83036719,25 14.5833333,25 C18.9791667,25 22.9166667,22.2083333 24.3958333,18.0625 L24.875,16.6666667 L37.5,16.6666667 L37.5,25 L37.5,25 Z M14.5833333,20.8333333 C11.1315536,20.8333333 8.33333333,18.035113 8.33333333,14.5833333 C8.33333333,11.1315536 11.1315536,8.33333333 14.5833333,8.33333333 C18.035113,8.33333333 20.8333333,11.1315536 20.8333333,14.5833333 C20.8333333,18.035113 18.035113,20.8333333 14.5833333,20.8333333 L14.5833333,20.8333333 Z M14.5833333,12.5 C13.4327401,12.5 12.5,13.4327401 12.5,14.5833333 C12.5,15.7339266 13.4327401,16.6666667 14.5833333,16.6666667 C15.7339266,16.6666667 16.6666667,15.7339266 16.6666667,14.5833333 C16.6666667,13.4327401 15.7339266,12.5 14.5833333,12.5 Z" transform="translate(445 651)"/>
    <path fill="#000" fill-rule="nonzero" d="M45.8333333,29.1666667 L33.3333333,29.1666667 L33.3333333,20.8333333 L27.75,20.8333333 C25.375,25.875 20.25,29.1666667 14.5833333,29.1666667 C6.54166667,29.1666667 0,22.625 0,14.5833333 C0,6.54166667 6.54166667,0 14.5833333,0 C20.25,0 25.3541667,3.29166667 27.75,8.33333333 L50,8.33333333 L50,20.8333333 L45.8333333,20.8333333 L45.8333333,29.1666667 L45.8333333,29.1666667 Z M37.5,25 L41.6666667,25 L41.6666667,16.6666667 L45.8333333,16.6666667 L45.8333333,12.5 L24.875,12.5 L24.3958333,11.1041667 C22.9166667,6.95833333 18.9791667,4.16666667 14.5833333,4.16666667 C8.83036719,4.16666667 4.16666667,8.83036719 4.16666667,14.5833333 C4.16666667,20.3362995 8.83036719,25 14.5833333,25 C18.9791667,25 22.9166667,22.2083333 24.3958333,18.0625 L24.875,16.6666667 L37.5,16.6666667 L37.5,25 L37.5,25 Z M14.5833333,20.8333333 C11.1315536,20.8333333 8.33333333,18.035113 8.33333333,14.5833333 C8.33333333,11.1315536 11.1315536,8.33333333 14.5833333,8.33333333 C18.035113,8.33333333 20.8333333,11.1315536 20.8333333,14.5833333 C20.8333333,18.035113 18.035113,20.8333333 14.5833333,20.8333333 L14.5833333,20.8333333 Z M14.5833333,12.5 C13.4327401,12.5 12.5,13.4327401 12.5,14.5833333 C12.5,15.7339266 13.4327401,16.6666667 14.5833333,16.6666667 C15.7339266,16.6666667 16.6666667,15.7339266 16.6666667,14.5833333 C16.6666667,13.4327401 15.7339266,12.5 14.5833333,12.5 Z" transform="translate(307 650)"/>
    <text fill="#000" font-family="Helvetica" font-size="24" transform="rotate(-90 1102 592.5)">
      <tspan x="1063.305" y="601">Update</tspan>
    </text>
    <text fill="#000" font-family="Helvetica" font-size="24">
      <tspan x="614.428" y="91">challenge, AppID,</tspan> <tspan x="650.457" y="126">key handle</tspan>
    </text>
    <text fill="#000" font-family="Helvetica" font-size="24" transform="rotate(36 717 296)">
      <tspan x="594.252" y="285">client data, key handle,</tspan> <tspan x="667.635" y="319">signature</tspan>
    </text>
    <text fill="#000" font-family="Helvetica" font-size="24" transform="rotate(-90 439 380)">
      <tspan x="343.598" y="386">counter, signature</tspan>
    </text>
  </g>
</svg>
