<svg xmlns="http://www.w3.org/2000/svg" width="1461" height="703" viewBox="0 0 1461 703">
    <g fill="none" fill-rule="evenodd">
        <path fill="#000" fill-rule="nonzero" d="M90,20 L50,45 L10,20 L10,10 L50,35 L90,10 L90,20 Z M90,0 L10,0 C4.45,0 0,4.45 0,10 L0,70 C0,75.5228475 4.4771525,80 10,80 L90,80 C95.5228475,80 100,75.5228475 100,70 L100,10 C100,4.45 95.5,0 90,0 Z" transform="translate(544 322)"/>
        <path fill="#000" fill-rule="nonzero" d="M662.293591,357.680893 L662.612177,358.628787 L652.185346,362.13324 L651.86676,361.185346 L662.293591,357.680893 Z M681.251465,351.309159 L681.570052,352.257053 L671.143221,355.761506 L670.824634,354.813613 L681.251465,351.309159 Z M700.20934,344.937425 L700.527927,345.885319 L690.101096,349.389773 L689.782509,348.441879 L700.20934,344.937425 Z M719.167215,338.565692 L719.485801,339.513585 L709.05897,343.018039 L708.740384,342.070145 L719.167215,338.565692 Z M738.125089,332.193958 L738.443676,333.141852 L728.016845,336.646305 L727.698258,335.698411 L738.125089,332.193958 Z M757.082964,325.822224 L757.40155,326.770118 L746.974719,330.274571 L746.656133,329.326678 L757.082964,325.822224 Z M776.040838,319.45049 L776.359425,320.398384 L765.932594,323.902838 L765.614007,322.954944 L776.040838,319.45049 Z M794.998713,313.078756 L795.3173,314.02665 L784.890469,317.531104 L784.571882,316.58321 L794.998713,313.078756 Z M813.956587,306.707023 L814.275174,307.654916 L803.848343,311.15937 L803.529756,310.211476 L813.956587,306.707023 Z M832.914462,300.335289 L833.233049,301.283183 L822.806218,304.787636 L822.487631,303.839742 L832.914462,300.335289 Z M851.872337,293.963555 L852.190923,294.911449 L841.764092,298.415902 L841.445506,297.468009 L851.872337,293.963555 Z M870.830211,287.591821 L871.148798,288.539715 L860.721967,292.044169 L860.40338,291.096275 L870.830211,287.591821 Z M889.788086,281.220088 L890.106672,282.167981 L879.679841,285.672435 L879.361255,284.724541 L889.788086,281.220088 Z M908.74596,274.848354 L909.064547,275.796247 L898.637716,279.300701 L898.319129,278.352807 L908.74596,274.848354 Z M927.703835,268.47662 L928.022422,269.424514 L917.595591,272.928967 L917.277004,271.981074 L927.703835,268.47662 Z M946.66171,262.104886 L946.980296,263.05278 L936.553465,266.557234 L936.234879,265.60934 L946.66171,262.104886 Z M965.619584,255.733152 L965.938171,256.681046 L955.51134,260.1855 L955.192753,259.237606 L965.619584,255.733152 Z M984.577459,249.361419 L984.896045,250.309312 L974.469214,253.813766 L974.150628,252.865872 L984.577459,249.361419 Z M1003.53533,242.989685 L1003.85392,243.937579 L993.427089,247.442032 L993.108502,246.494138 L1003.53533,242.989685 Z M1022.49321,236.617951 L1022.81179,237.565845 L1012.38496,241.070298 L1012.06638,240.122405 L1022.49321,236.617951 Z M1041.45108,230.246217 L1041.76967,231.194111 L1031.34284,234.698565 L1031.02425,233.750671 L1041.45108,230.246217 Z M1060.40896,223.874484 L1060.72754,224.822377 L1050.30071,228.326831 L1049.98213,227.378937 L1060.40896,223.874484 Z M1079.36683,217.50275 L1079.68542,218.450643 L1069.25859,221.955097 L1068.94,221.007203 L1079.36683,217.50275 Z M1098.32471,211.131016 L1098.64329,212.07891 L1088.21646,215.583363 L1087.89788,214.63547 L1098.32471,211.131016 Z M1117.28258,204.759282 L1117.60117,205.707176 L1107.17434,209.211629 L1106.85575,208.263736 L1117.28258,204.759282 Z M1125.00926,197.942465 L1134.97395,199.340707 L1127.87654,206.473509 L1126.602,202.681 L1126.13221,202.839896 L1125.81362,201.892002 L1126.283,201.734 L1125.00926,197.942465 Z"/>
        <path fill="#000" fill-rule="nonzero" d="M90,20 L50,45 L10,20 L10,10 L50,35 L90,10 L90,20 Z M90,0 L10,0 C4.45,0 0,4.45 0,10 L0,70 C0,75.5228475 4.4771525,80 10,80 L90,80 C95.5228475,80 100,75.5228475 100,70 L100,10 C100,4.45 95.5,0 90,0 Z" transform="translate(1134 160)"/>
        <path fill="#000" fill-rule="nonzero" d="M90,20 L50,45 L10,20 L10,10 L50,35 L90,10 L90,20 Z M90,0 L10,0 C4.45,0 0,4.45 0,10 L0,70 C0,75.5228475 4.4771525,80 10,80 L90,80 C95.5228475,80 100,75.5228475 100,70 L100,10 C100,4.45 95.5,0 90,0 Z" transform="translate(225 160)"/>
        <path fill="#000" fill-rule="nonzero" d="M539.498375 352.754316L543.896591 361.804492 534.01752 359.892959 539.498375 352.754316zM522.771734 344.955035L531.496743 351.653857 530.887759 352.44704 522.16275 345.748218 522.771734 344.955035zM506.908081 332.775359L515.63309 339.474181 515.024106 340.267363 506.299097 333.568541 506.908081 332.775359zM491.044428 320.595682L499.769437 327.294504 499.160454 328.087687 490.435445 321.388865 491.044428 320.595682zM475.180776 308.416006L483.905785 315.114828 483.296801 315.90801 474.571792 309.209188 475.180776 308.416006zM459.317123 296.236329L468.042132 302.935151 467.433148 303.728334 458.708139 297.029512 459.317123 296.236329zM443.45347 284.056653L452.178479 290.755475 451.569495 291.548657 442.844486 284.849835 443.45347 284.056653zM427.589817 271.876976L436.314826 278.575798 435.705842 279.368981 426.980833 272.670159 427.589817 271.876976zM411.726164 259.697299L420.451174 266.396122 419.84219 267.189304 411.117181 260.490482 411.726164 259.697299zM395.862512 247.517623L404.587521 254.216445 403.978537 255.009628 395.253528 248.310806 395.862512 247.517623zM379.998859 235.337946L388.723868 242.036768 388.114884 242.829951 379.389875 236.131129 379.998859 235.337946zM364.135206 223.15827L372.860215 229.857092 372.251231 230.650275 363.526222 223.951452 364.135206 223.15827zM348.271553 210.978593L356.996562 217.677415 356.387579 218.470598 347.66257 211.771776 348.271553 210.978593zM332.407901 198.798917L341.13291 205.497739 340.523926 206.290922 331.798917 199.592099 332.407901 198.798917zM275 239L275 313 279 313 274.5 322 270 313 274 313 274 239 275 239zM1184.5 239.5L1184.5 313.5 1188.5 313.5 1184 322.5 1179.5 313.5 1183.5 313.5 1183.5 239.5 1184.5 239.5z"/>
        <path fill="#000" fill-rule="nonzero" d="M10,50 L10,10 L0,10 L0,0 L20,0 L20,50 L10,50 L10,50 Z M100,40 C100,45.55 95.5,50 90,50 L70,50 L70,40 L90,40 L90,30 L80,30 L80,20 L90,20 L90,10 L70,10 L70,0 L90,0 C95.5228475,0 100,4.4771525 100,10 L100,17.5 C100,21.6421356 96.6421356,25 92.5,25 C96.6421356,25 100,28.3578644 100,32.5 L100,40 L100,40 Z M60,40 L60,50 L30,50 L30,30 C30,24.45 34.5,20 40,20 L50,20 L50,10 L30,10 L30,0 L50,0 C55.5228475,0 60,4.4771525 60,10 L60,20 C60,25.55 55.5,30 50,30 L40,30 L40,40 L60,40 Z" transform="translate(233 453)"/>
        <path fill="#000" fill-rule="nonzero" d="M535,473 L544,477.5 L535,482 L535,478 L532,478 L532,477 L535,477 L535,473 Z M343,477 L343,478 L332,478 L332,477 L343,477 Z M363,477 L363,478 L352,478 L352,477 L363,477 Z M383,477 L383,478 L372,478 L372,477 L383,477 Z M403,477 L403,478 L392,478 L392,477 L403,477 Z M423,477 L423,478 L412,478 L412,477 L423,477 Z M443,477 L443,478 L432,478 L432,477 L443,477 Z M463,477 L463,478 L452,478 L452,477 L463,477 Z M483,477 L483,478 L472,478 L472,477 L483,477 Z M503,477 L503,478 L492,478 L492,477 L503,477 Z M523,477 L523,478 L512,478 L512,477 L523,477 Z"/>
        <path fill="#000" fill-rule="nonzero" d="M10,50 L10,10 L0,10 L0,0 L20,0 L20,50 L10,50 L10,50 Z M100,40 C100,45.55 95.5,50 90,50 L70,50 L70,40 L90,40 L90,30 L80,30 L80,20 L90,20 L90,10 L70,10 L70,0 L90,0 C95.5228475,0 100,4.4771525 100,10 L100,17.5 C100,21.6421356 96.6421356,25 92.5,25 C96.6421356,25 100,28.3578644 100,32.5 L100,40 L100,40 Z M60,40 L60,50 L30,50 L30,30 C30,24.45 34.5,20 40,20 L50,20 L50,10 L30,10 L30,0 L50,0 C55.5228475,0 60,4.4771525 60,10 L60,20 C60,25.55 55.5,30 50,30 L40,30 L40,40 L60,40 Z" transform="translate(544 453)"/>
        <path fill="#000" fill-rule="nonzero" d="M879,473 L888,477.5 L879,482 L879,473 Z M654,477 L654,478 L643,478 L643,477 L654,477 Z M674,477 L674,478 L663,478 L663,477 L674,477 Z M694,477 L694,478 L683,478 L683,477 L694,477 Z M714,477 L714,478 L703,478 L703,477 L714,477 Z M734,477 L734,478 L723,478 L723,477 L734,477 Z M754,477 L754,478 L743,478 L743,477 L754,477 Z M774,477 L774,478 L763,478 L763,477 L774,477 Z M794,477 L794,478 L783,478 L783,477 L794,477 Z M814,477 L814,478 L803,478 L803,477 L814,477 Z M834,477 L834,478 L823,478 L823,477 L834,477 Z M854,477 L854,478 L843,478 L843,477 L854,477 Z M874,477 L874,478 L863,478 L863,477 L874,477 Z"/>
        <path fill="#000" fill-rule="nonzero" d="M10,50 L10,10 L0,10 L0,0 L20,0 L20,50 L10,50 L10,50 Z M100,40 C100,45.55 95.5,50 90,50 L70,50 L70,40 L90,40 L90,30 L80,30 L80,20 L90,20 L90,10 L70,10 L70,0 L90,0 C95.5228475,0 100,4.4771525 100,10 L100,17.5 C100,21.6421356 96.6421356,25 92.5,25 C96.6421356,25 100,28.3578644 100,32.5 L100,40 L100,40 Z M60,40 L60,50 L30,50 L30,30 C30,24.45 34.5,20 40,20 L50,20 L50,10 L30,10 L30,0 L50,0 C55.5228475,0 60,4.4771525 60,10 L60,20 C60,25.55 55.5,30 50,30 L40,30 L40,40 L60,40 Z" transform="translate(1134 453)"/>
        <path fill="#000" fill-rule="nonzero" d="M947,477 L947,481 L1127,481 L1127,482 L947,482 L947,486 L938,481.5 L947,477 Z"/>
        <path fill="#000" fill-rule="nonzero" d="M63,53 L86,30 L63,7 L70,0 L100,30 L70,60 L63,53 L63,53 Z M37,53 L14,30 L37,7 L30,0 L0,30 L30,60 L37,53 Z" transform="translate(225 321)"/>
        <path fill="#000" fill-rule="nonzero" d="M63,53 L86,30 L63,7 L70,0 L100,30 L70,60 L63,53 L63,53 Z M37,53 L14,30 L37,7 L30,0 L0,30 L30,60 L37,53 Z" transform="translate(1134 321)"/>
        <path fill="#000" fill-rule="nonzero" d="M1185 380L1185 444 1189 444 1184.5 453 1180 444 1184 444 1184 380 1185 380zM275.5 380.5L275.5 444.5 279.5 444.5 275 453.5 270.5 444.5 274.5 444.5 274.5 380.5 275.5 380.5z"/>
        <path fill="#000" fill-rule="nonzero" d="M27.2727273,36.3636364 C22.2519568,36.3636364 18.1818182,32.2934977 18.1818182,27.2727273 C18.1818182,22.2519568 22.2519568,18.1818182 27.2727273,18.1818182 C32.2934977,18.1818182 36.3636364,22.2519568 36.3636364,27.2727273 C36.3636364,32.2934977 32.2934977,36.3636364 27.2727273,36.3636364 L27.2727273,36.3636364 Z M52.9545455,18.1818182 C49.2272727,7.59090909 39.1363636,0 27.2727273,0 C12.2104159,0 4.4408921e-16,12.2104159 4.4408921e-16,27.2727273 C4.4408921e-16,42.3350386 12.2104159,54.5454545 27.2727273,54.5454545 C39.1363636,54.5454545 49.2272727,46.9545455 52.9545455,36.3636364 L72.7272727,36.3636364 L72.7272727,54.5454545 L90.9090909,54.5454545 L90.9090909,36.3636364 L100,36.3636364 L100,18.1818182 L52.9545455,18.1818182 Z" transform="translate(45 321)"/>
        <path fill="#000" fill-rule="nonzero" d="M14.4545455,19.1735537 C11.7935371,19.1735537 9.63636364,17.0274806 9.63636364,14.3801653 C9.63636364,11.73285 11.7935371,9.58677686 14.4545455,9.58677686 C17.1155538,9.58677686 19.2727273,11.73285 19.2727273,14.3801653 C19.2727273,17.0274806 17.1155538,19.1735537 14.4545455,19.1735537 L14.4545455,19.1735537 Z M28.0659091,9.58677686 C26.0904545,4.00247934 20.7422727,0 14.4545455,0 C6.47152043,0 4.4408921e-16,6.4382193 4.4408921e-16,14.3801653 C4.4408921e-16,22.3221113 6.47152043,28.7603306 14.4545455,28.7603306 C20.7422727,28.7603306 26.0904545,24.7578512 28.0659091,19.1735537 L38.5454545,19.1735537 L38.5454545,28.7603306 L48.1818182,28.7603306 L48.1818182,19.1735537 L53,19.1735537 L53,9.58677686 L28.0659091,9.58677686 Z" transform="translate(172 71)"/>
        <path fill="#000" fill-rule="nonzero" d="M27.2727273,36.3636364 C22.2519568,36.3636364 18.1818182,32.2934977 18.1818182,27.2727273 C18.1818182,22.2519568 22.2519568,18.1818182 27.2727273,18.1818182 C32.2934977,18.1818182 36.3636364,22.2519568 36.3636364,27.2727273 C36.3636364,32.2934977 32.2934977,36.3636364 27.2727273,36.3636364 L27.2727273,36.3636364 Z M52.9545455,18.1818182 C49.2272727,7.59090909 39.1363636,0 27.2727273,0 C12.2104159,0 4.4408921e-16,12.2104159 4.4408921e-16,27.2727273 C4.4408921e-16,42.3350386 12.2104159,54.5454545 27.2727273,54.5454545 C39.1363636,54.5454545 49.2272727,46.9545455 52.9545455,36.3636364 L72.7272727,36.3636364 L72.7272727,54.5454545 L90.9090909,54.5454545 L90.9090909,36.3636364 L100,36.3636364 L100,18.1818182 L52.9545455,18.1818182 Z" transform="matrix(-1 0 0 1 1414 320)"/>
        <path fill="#000" fill-rule="nonzero" d="M1243,343 L1243,347 L1307,347 L1307,348 L1243,348 L1243,352 L1234,347.5 L1243,343 Z"/>
        <path fill="#000" fill-rule="nonzero" d="M10,42.5 L17.5,42.5 L17.5,50 L10,50 L10,42.5 L10,42.5 Z M15,-4.4408921e-16 C28.375,0.55 34.2,14.05 26.25,24.175 C24.175,26.675 20.825,28.325 19.175,30.425 C17.5,32.5 17.5,35 17.5,37.5 L10,37.5 C10,33.325 10,29.8 11.675,27.3 C13.325,24.8 16.675,23.325 18.75,21.675 C24.8,16.075 23.3,8.15 15,7.5 C10.8578644,7.5 7.5,10.8578644 7.5,15 L0,15 C0,6.71572875 6.71572875,-4.4408921e-16 15,-4.4408921e-16 Z" transform="translate(898 432)"/>
        <path fill="#000" fill-rule="nonzero" d="M50,7.14285714 L0,7.14285714 L0,0 L50,0 L50,7.14285714 L50,7.14285714 Z M50,28.5714286 L0,28.5714286 L0,21.4285714 L50,21.4285714 L50,28.5714286 Z" transform="translate(888 494)"/>
        <path fill="#000" fill-rule="nonzero" d="M913.377812,521.80353 L976.414,566.023 L978.711566,562.748623 L983.495214,571.60112 L973.543027,570.11654 L975.84,566.842 L912.80353,522.622188 L913.377812,521.80353 Z"/>
        <path fill="#000" fill-rule="nonzero" d="M913.624116,521.803871 L914.196129,522.624116 L851.037,566.668 L853.325336,569.950078 L843.369077,571.407091 L848.177222,562.567875 L850.465,565.848 L913.624116,521.803871 Z"/>
        <polygon fill="#000" fill-rule="nonzero" points="35 82.1 3.95 51.05 18.1 36.9 35 53.85 84.4 4.4 98.55 18.55" transform="translate(788 583)"/>
        <path fill="#000" fill-rule="nonzero" d="M50,-4.4408921e-16 C63.2608245,-4.4408921e-16 75.9785201,5.26784202 85.3553391,14.6446609 C94.732158,24.0214799 100,36.7391755 100,50 C100,77.6142375 77.6142375,100 50,100 C36.7391755,100 24.0214799,94.732158 14.6446609,85.3553391 C5.26784202,75.9785201 -4.4408921e-16,63.2608245 -4.4408921e-16,50 C-4.4408921e-16,36.7391755 5.26784202,24.0214799 14.6446609,14.6446609 C24.0214799,5.26784202 36.7391755,-4.4408921e-16 50,-4.4408921e-16 L50,-4.4408921e-16 Z M50,10 C27.90861,10 10,27.90861 10,50 C10,59.25 13.15,67.75 18.4,74.55 L74.55,18.4 C67.75,13.15 59.25,10 50,10 L50,10 Z M50,90 C72.09139,90 90,72.09139 90,50 C90,40.75 86.85,32.25 81.6,25.45 L25.45,81.6 C32.25,86.85 40.75,90 50,90 Z" transform="translate(938.647 576)"/>
        <path fill="#000" fill-rule="nonzero" d="M58.75,55 C58.75,51.55 61.55,48.75 65,48.75 C68.45,48.75 71.25,51.55 71.25,55 C71.25,58.45 68.45,61.25 65,61.25 C61.55,61.25 58.75,58.45 58.75,55 L58.75,55 Z M100,50 L100,100 L0,100 L0,50 C0,22.5 22.5,0 50,0 C77.5,0 100,22.5 100,50 L100,50 Z M10,50 C10,72.05 27.95,90 50,90 C72.05,90 90,72.05 90,50 C90,46.05 89.4,42.25 88.35,38.7 C84.75,39.55 81,40 77.1,40 C60.25,40 45.35,31.65 36.3,18.85 C31.4,30.8 22.05,40.45 10.25,45.7 C10,47.1 10,48.55 10,50 L10,50 Z M35,61.25 C38.45,61.25 41.25,58.45 41.25,55 C41.25,51.55 38.45,48.75 35,48.75 C31.55,48.75 28.75,51.55 28.75,55 C28.75,58.45 31.55,61.25 35,61.25 Z" transform="translate(233)"/>
        <path fill="#000" fill-rule="nonzero" d="M35,48.75 C31.5482203,48.75 28.75,51.5482203 28.75,55 C28.75,58.4517797 31.5482203,61.25 35,61.25 C36.6576031,61.25 38.247315,60.5915197 39.4194174,59.4194174 C40.5915197,58.247315 41.25,56.6576031 41.25,55 C41.25,53.3423969 40.5915197,51.752685 39.4194174,50.5805826 C38.247315,49.4084803 36.6576031,48.75 35,48.75 L35,48.75 Z M65,48.75 C61.5482203,48.75 58.75,51.5482203 58.75,55 C58.75,58.4517797 61.5482203,61.25 65,61.25 C68.4517797,61.25 71.25,58.4517797 71.25,55 C71.25,51.5482203 68.4517797,48.75 65,48.75 L65,48.75 Z M50,-4.4408921e-16 C22.3857625,-4.4408921e-16 -4.4408921e-16,22.3857625 -4.4408921e-16,50 C-4.4408921e-16,63.2608245 5.26784202,75.9785201 14.6446609,85.3553391 C24.0214799,94.732158 36.7391755,100 50,100 C63.2608245,100 75.9785201,94.732158 85.3553391,85.3553391 C94.732158,75.9785201 100,63.2608245 100,50 C100,36.7391755 94.732158,24.0214799 85.3553391,14.6446609 C75.9785201,5.26784202 63.2608245,-4.4408921e-16 50,-4.4408921e-16 L50,-4.4408921e-16 Z M50,90 C27.95,90 10,72.05 10,50 C10,48.55 10,47.1 10.25,45.7 C22.05,40.45 31.4,30.8 36.3,18.85 C45.35,31.65 60.25,40 77.1,40 C81,40 84.75,39.55 88.35,38.7 C89.4,42.25 90,46.05 90,50 C90,72.05 72.05,90 50,90 Z" transform="translate(1134)"/>
        <path fill="#000" fill-rule="nonzero" d="M14.4545455,19.1735537 C11.7935371,19.1735537 9.63636364,17.0274806 9.63636364,14.3801653 C9.63636364,11.73285 11.7935371,9.58677686 14.4545455,9.58677686 C17.1155538,9.58677686 19.2727273,11.73285 19.2727273,14.3801653 C19.2727273,17.0274806 17.1155538,19.1735537 14.4545455,19.1735537 L14.4545455,19.1735537 Z M28.0659091,9.58677686 C26.0904545,4.00247934 20.7422727,0 14.4545455,0 C6.47152043,0 4.4408921e-16,6.4382193 4.4408921e-16,14.3801653 C4.4408921e-16,22.3221113 6.47152043,28.7603306 14.4545455,28.7603306 C20.7422727,28.7603306 26.0904545,24.7578512 28.0659091,19.1735537 L38.5454545,19.1735537 L38.5454545,28.7603306 L48.1818182,28.7603306 L48.1818182,19.1735537 L53,19.1735537 L53,9.58677686 L28.0659091,9.58677686 Z" transform="matrix(-1 0 0 1 1287 71)"/>
        <rect width="443" height="571" x=".5" y="131.5" stroke="#979797"/>
        <rect width="716" height="571" x="744.5" y="131.5" stroke="#979797"/>
        <path fill="#000" fill-rule="nonzero" d="M213.5,346.5 L222.5,351 L213.5,355.5 L213.5,351.5 L156.5,351.5 L156.5,350.5 L213.5,350.5 L213.5,346.5 Z"/>
        <text fill="#000" font-family="Helvetica" font-size="36">
            <tspan x="55.485" y="63">Alice</tspan>
        </text>
        <text fill="#000" font-family="Helvetica" font-size="36">
            <tspan x="1019.473" y="63">Bob</tspan>
        </text>
        <text fill="#000" font-family="Helvetica" font-size="36">
            <tspan x="28.457" y="424">Shared</tspan>
            <tspan x="58.489" y="467">key</tspan>
        </text>
        <text fill="#000" font-family="Helvetica" font-size="36">
            <tspan x="1297.457" y="423">Shared</tspan>
            <tspan x="1327.489" y="466">key</tspan>
        </text>
        <text fill="#000" font-family="Helvetica" font-size="36">
            <tspan x="51.463" y="205">Message</tspan>
        </text>
        <text fill="#000" font-family="Helvetica" font-size="36">
            <tspan x="1255.463" y="213">Message</tspan>
        </text>
    </g>
</svg>
