<svg xmlns="http://www.w3.org/2000/svg" width="1508" height="632">
    <g fill="none" fill-rule="evenodd">
        <path fill="#000" fill-rule="nonzero" d="M990.028 1.223h-39.506c-5.455 0-9.877 4.477-9.877 10v80c0 5.523 4.422 10 9.877 10h59.259c5.454 0 9.876-4.477 9.876-10v-60l-29.63-30zm19.753 90h-59.26v-80h34.568v25h24.692v55zM775.676 36.223v-27.5l27.16 27.5h-27.16zm-34.567-35c-5.482 0-9.877 4.45-9.877 10v80c0 5.523 4.422 10 9.877 10h59.259c5.454 0 9.876-4.477 9.876-10v-60l-29.63-30H741.11zM867.05 310.496h-17.937v-9.091h17.936v9.09zm0-18.182h-17.937v-9.091h17.936v9.09zm0-59.091v4.545h-17.937c-4.977 0-8.968 4.046-8.968 9.091v72.728c0 5.02 4.015 9.09 8.968 9.09h17.936v4.546h8.968v-100h-8.968zm44.84 31.818v54.546c0 5.045-3.991 9.09-8.969 9.09h-17.936v-9.09h17.936v-40.91h-17.936v-9.09h20.178l-20.178-20.455v-11.364l26.904 27.273zm-17.937 27.273h-8.968v-9.091h8.968v9.09zm0 18.182h-8.968v-9.091h8.968v9.09zM1463.5 0c-24.282 0-43.95 9.944-43.95 22.222s19.668 22.222 43.95 22.222c24.283 0 43.951-9.944 43.951-22.222S1487.783 0 1463.501 0zm-43.95 33.333V50c0 12.278 19.668 22.222 43.95 22.222 24.283 0 43.951-9.944 43.951-22.222V33.333c0 12.278-19.668 22.223-43.95 22.223-24.283 0-43.951-9.945-43.951-22.223zm0 27.778v16.667c0 12.278 19.668 22.222 43.95 22.222 24.283 0 43.951-9.944 43.951-22.222V61.11c0 12.278-19.668 22.222-43.95 22.222-24.283 0-43.951-9.944-43.951-22.222zM264.527 44.95l8.973 4.553-9.026 4.447.023-4.001-161.5-.952.006-1 161.499.952.025-4zm457.463-.93l9.01 4.479-8.99 4.52-.009-4.001-339 .76-.002-1 338.999-.76-.008-3.999z"/>
        <path stroke="#000" stroke-linecap="square" d="M770.593 109.223v52h210v-52"/>
        <path fill="#000" fill-rule="nonzero" d="M876.007 161.215l1 .015-.882 60 4 .06-4.632 8.933-4.368-9.066 4 .059.882-60z"/>
        <path stroke="#000" stroke-linecap="square" d="M876 339l-1 68"/>
        <path fill="#000" fill-rule="nonzero" d="M607.5 510v4h108v1h-108v4l-9-4.5 9-4.5zm431.497-456.782l.002 3.999 381-.217.001 1-381 .217.003 4-9.003-4.494 8.997-4.505zM1145.5 509.5l9 4.5-9 4.5v-4h-111v-1h111v-4z"/>
        <text fill="#000" font-family="Helvetica" font-size="24" x="37.664" y="129.777">User visits </text>
        <text fill="#000" font-family="Helvetica" font-size="24" x="52.313" y="158.777">website</text>
        <text fill="#000" font-family="Helvetica" font-size="24" x="315.479" y="136">User enters</text>
        <text fill="#000" font-family="Helvetica" font-size="24" x="326.143" y="165">password</text>
        <text fill="#000" font-family="Helvetica" font-size="24" x="514.313" y="37">Password</text>
        <text fill="#000" font-family="Helvetica" font-size="24" x="514.301" y="78">transformation</text>
        <text fill="#000" font-family="Helvetica" font-size="24" x="1106.809" y="43">Retrieval of</text>
        <text fill="#000" font-family="Helvetica" font-size="24" x="1100.457" y="90">stored password</text>
        <text fill="#000" font-family="Helvetica" font-size="24" x="1062.807" y="256">Comparison</text>
        <text fill="#000" font-family="Helvetica" font-size="24" x="980.09" y="285">of both passwords (hashes)</text>
        <text fill="#000" font-family="Helvetica" font-size="24" x="1033.428" y="314">based on equality</text>
        <text fill="#000" font-family="Helvetica" font-size="24" x="461.102" y="602">Password is not equal</text>
        <text fill="#000" font-family="Helvetica" font-size="24" x="478.428" y="631">and access denied</text>
        <text fill="#000" font-family="Helvetica" font-size="24" x="1131.617" y="596">Password is equal</text>
        <text fill="#000" font-family="Helvetica" font-size="24" x="1124.264" y="625">and access granted</text>
        <text fill="#000" font-family="Helvetica" font-size="24" x="1471.164" y="144.777">User</text>
        <text fill="#000" font-family="Helvetica" font-size="24" x="1447.123" y="173.777">database</text>
        <path fill="#000" fill-rule="nonzero" d="M54.32 0c13.67 0 24.752 11.193 24.752 25S67.99 50 54.32 50c-13.67 0-24.753-11.193-24.753-25S40.65 0 54.32 0zm0 62.5c27.351 0 49.505 11.188 49.505 25V100H4.815V87.5c0-13.813 22.153-25 49.505-25zM350.903 25h24.753v50h-24.753v10c0 2.761 2.217 5 4.95 5h9.902v10h-12.376c-2.723 0-7.426-2.25-7.426-5 0 2.75-4.703 5-7.426 5h-12.376V90h9.9c2.735 0 4.951-2.239 4.951-5V15c0-2.761-2.216-5-4.95-5h-9.901V0h12.376c2.723 0 7.426 2.25 7.426 5 0-2.75 4.703-5 7.426-5h12.376v10h-9.901c-2.734 0-4.95 2.239-4.95 5v10zm-74.257 0h54.455v10h-44.554v30h44.554v10h-54.455V25zm89.109 40V35h-14.852v30h14.852zm-56.93-15c0-4.142-3.325-7.5-7.427-7.5-4.1 0-7.425 3.358-7.425 7.5 0 4.142 3.324 7.5 7.425 7.5 4.102 0 7.426-3.358 7.426-7.5zm22.276-5.55c-3.02-2.8-7.722-2.55-10.495.55-2.772 3-2.524 7.75.594 10.55 2.723 2.6 7.08 2.6 9.901 0v-11.1zM948.642 519.779h27.502v11.11h-27.502v-11.11zm38.504 0h27.502v11.11h-27.502v-11.11zm0-22.223h27.502v11.111h-27.502v-11.11zm-38.504 0h27.502v11.111h-27.502v-11.11zm-5.5-33.333c-6.107 0-11.002 5-11.002 11.111v77.778c0 6.136 4.925 11.111 11.001 11.111h77.008c6.076 0 11-4.975 11-11.111v-77.778c0-6.136-4.924-11.111-11-11.111H943.14zM738.148 531.89h11V543h-11v-11.11zm27.502-11.111h38.504v11.11H765.65v-11.11zm0-22.223h38.504v11.111H765.65v-11.11zm-27.502-11.11h11v33.333h-11v-33.334zm-5.5-22.223c-6.107 0-11.002 5-11.002 11.111v77.778c0 6.136 4.925 11.111 11.001 11.111h77.008c6.076 0 11-4.975 11-11.111v-77.778c0-6.136-4.924-11.111-11-11.111h-77.008zM539.145 465c13.13 0 25.721 5.268 35.005 14.645 9.284 9.376 14.5 22.094 14.5 35.355 0 27.614-22.164 50-49.505 50-13.13 0-25.721-5.268-35.005-14.645-9.284-9.376-14.5-22.094-14.5-35.355 0-13.26 5.216-25.979 14.5-35.355 9.284-9.377 21.875-14.645 35.005-14.645zm0 10c-21.873 0-39.604 17.909-39.604 40 0 9.25 3.119 17.75 8.317 24.55l55.594-56.15c-6.733-5.25-15.149-8.4-24.307-8.4zm0 80c21.873 0 39.604-17.909 39.604-40 0-9.25-3.119-17.75-8.317-24.55l-55.594 56.15c6.733 5.25 15.149 8.4 24.307 8.4zM1181 561.1l-31.05-31.05 14.15-14.15 16.9 16.95 49.4-49.45 14.15 14.15z"/>
        <path fill="#000" fill-rule="nonzero" d="M980.5 406.5V455h4l-4.5 9-4.5-9h4v-47.5h-104v-1h105zm-105.093 0v1H770.5v49h4l-4.5 9-4.5-9h4v-50h105.907z"/>
    </g>
</svg>
