<svg width="1582" height="756"
    xmlns="http://www.w3.org/2000/svg">
    <g fill="none" fill-rule="evenodd">
        <path d="M1064.028 1.223h-39.506c-5.455 0-9.877 4.477-9.877 10v80c0 5.523 4.422 10 9.877 10h59.259c5.455 0 9.877-4.477 9.877-10v-60l-29.63-30zm19.753 90h-59.26v-80h34.569v25h24.691v55zM849.676 36.223v-27.5l27.16 27.5h-27.16zm-34.568-35c-5.481 0-9.876 4.45-9.876 10v80c0 5.523 4.422 10 9.876 10h59.26c5.454 0 9.876-4.477 9.876-10v-60l-29.63-30h-39.506zM941.05 370.273h-17.937v-9.091h17.936v9.09zm0-18.182h-17.937V343h17.936v9.09zm0-59.091v4.545h-17.937c-4.977 0-8.968 4.046-8.968 9.091v72.728c0 5.02 4.015 9.09 8.968 9.09h17.936V393h8.968V293h-8.968zm44.84 31.818v54.546c0 5.045-3.991 9.09-8.969 9.09h-17.936v-9.09h17.936v-40.91h-17.936v-9.09h20.178l-20.178-20.455v-11.364l26.905 27.273zm-17.937 27.273h-8.968V343h8.968v9.09zm0 18.182h-8.968v-9.091h8.968v9.09zM1537.5 0c-24.283 0-43.95 9.944-43.95 22.222s19.667 22.222 43.95 22.222 43.95-9.944 43.95-22.222S1561.784 0 1537.5 0zm-43.95 33.333V50c0 12.278 19.667 22.222 43.95 22.222s43.95-9.944 43.95-22.222V33.333c0 12.278-19.667 22.223-43.95 22.223s-43.95-9.945-43.95-22.223zm0 27.778v16.667c0 12.278 19.667 22.222 43.95 22.222s43.95-9.944 43.95-22.222V61.11c0 12.278-19.667 22.222-43.95 22.222s-43.95-9.944-43.95-22.222zM338.527 44.95l8.973 4.553-9.026 4.447.023-4.001-161.5-.952.006-1 161.499.952.025-4zM786.99 44.02l9.01 4.479-8.99 4.52-.009-4-330 .76-.002-1 329.999-.76-.008-4z" fill-rule="nonzero" fill="#000"/>
        <path d="M844.593 109.223v52h210v-52" stroke="#000" stroke-linecap="square"/>
        <path d="M950 161v117h4l-4.5 9-4.5-9h4V161h1z" fill="#000" fill-rule="nonzero"/>
        <path d="M949 396v125" stroke="#000" stroke-linecap="square"/>
        <path d="M681.5 624.5v4h108v1h-108v4l-9-4.5 9-4.5zM1114.012 44.022l-.011 4 380 .98-.002 1-380.001-.98-.01 4-8.988-4.523 9.012-4.477zM1219.5 624l9 4.5-9 4.5v-4h-111v-1h111v-4z" fill="#000" fill-rule="nonzero"/>
        <text font-family="Helvetica" font-size="24" fill="#000" x="37.664" y="137">User visits </text>
        <text font-family="Helvetica" font-size="24" fill="#000" x="52.313" y="166">website</text>
        <text font-family="Helvetica" font-size="24" fill="#000" x="323.479" y="137">User enters</text>
        <text font-family="Helvetica" font-size="24" fill="#000" x="334.143" y="166">password</text>
        <text font-family="Helvetica" font-size="24" fill="#000" x="535.313" y="37">Password</text>
        <text font-family="Helvetica" font-size="24" fill="#000" x="535.301" y="78">transformation</text>
        <text font-family="Helvetica" font-size="24" fill="#000" x="1179.309" y="37">Retrieval of</text>
        <text font-family="Helvetica" font-size="24" fill="#000" x="1174.457" y="78">stored password</text>
        <text font-family="Helvetica" font-size="24" fill="#000" transform="translate(-39)" x="1127.807" y="316">Comparison</text>
        <text font-family="Helvetica" font-size="24" fill="#000" transform="translate(-39)" x="1045.09" y="345">of both passwords (hashes)</text>
        <text font-family="Helvetica" font-size="24" fill="#000" transform="translate(-39)" x="1098.428" y="374">based on equality</text>
        <text font-family="Helvetica" font-size="24" fill="#000" x="454.102" y="725">Password is not equal</text>
        <text font-family="Helvetica" font-size="24" fill="#000" x="471.428" y="754">and access denied</text>
        <text font-family="Helvetica" font-size="24" fill="#000" x="1135.617" y="721">Password is equal</text>
        <text font-family="Helvetica" font-size="24" fill="#000" x="1128.264" y="750">and access granted</text>
        <text font-family="Helvetica" font-size="24" fill="#000" x="1507.164" y="145">User</text>
        <text font-family="Helvetica" font-size="24" fill="#000" x="1483.123" y="174">database</text>
        <path d="M128.32 0c13.67 0 24.753 11.193 24.753 25S141.99 50 128.32 50c-13.67 0-24.752-11.193-24.752-25S114.65 0 128.32 0zm0 62.5c27.352 0 49.505 11.188 49.505 25V100h-99.01V87.5c0-13.813 22.154-25 49.505-25zM424.903 25h24.753v50h-24.753v10c0 2.761 2.216 5 4.95 5h9.902v10h-12.377c-2.722 0-7.425-2.25-7.425-5 0 2.75-4.703 5-7.426 5H400.15V90h9.9c2.735 0 4.951-2.239 4.951-5V15c0-2.761-2.216-5-4.95-5h-9.901V0h12.376c2.723 0 7.426 2.25 7.426 5 0-2.75 4.703-5 7.425-5h12.377v10h-9.901c-2.735 0-4.951 2.239-4.951 5v10zm-74.257 0H405.1v10h-44.554v30H405.1v10h-54.455V25zm89.109 40V35h-14.852v30h14.852zm-56.931-15c0-4.142-3.325-7.5-7.426-7.5s-7.426 3.358-7.426 7.5c0 4.142 3.325 7.5 7.426 7.5s7.426-3.358 7.426-7.5zm22.277-5.55c-3.02-2.8-7.723-2.55-10.495.55-2.772 3-2.525 7.75.594 10.55 2.723 2.6 7.08 2.6 9.901 0v-11.1zM1022.642 634.278h27.503v11.111h-27.503v-11.11zm38.504 0h27.503v11.111h-27.503v-11.11zm0-22.222h27.503v11.111h-27.503v-11.111zm-38.504 0h27.503v11.111h-27.503v-11.111zm-5.5-33.333c-6.106 0-11.001 5-11.001 11.11v77.779c0 6.136 4.925 11.11 11 11.11h77.008c6.076 0 11.002-4.974 11.002-11.11v-77.778c0-6.137-4.926-11.111-11.002-11.111h-77.007zM812.147 646.39h11.001v11.11h-11v-11.11zm27.503-11.112h38.504v11.111H839.65v-11.11zm0-22.222h38.504v11.111H839.65v-11.111zm-27.503-11.111h11.001v33.333h-11v-33.333zm-5.5-22.222c-6.106 0-11.001 5-11.001 11.11v77.779c0 6.136 4.925 11.11 11 11.11h77.008c6.076 0 11.002-4.974 11.002-11.11v-77.778c0-6.137-4.926-11.111-11.002-11.111h-77.007zM613.146 579.5c13.13 0 25.72 5.268 35.005 14.645 9.284 9.376 14.5 22.094 14.5 35.355 0 27.614-22.165 50-49.505 50-13.13 0-25.722-5.268-35.006-14.645-9.284-9.376-14.5-22.094-14.5-35.355 0-13.26 5.216-25.979 14.5-35.355 9.284-9.377 21.876-14.645 35.006-14.645zm0 10c-21.873 0-39.604 17.909-39.604 40 0 9.25 3.118 17.75 8.316 24.55l55.595-56.15c-6.733-5.25-15.149-8.4-24.307-8.4zm0 80c21.872 0 39.604-17.909 39.604-40 0-9.25-3.12-17.75-8.317-24.55l-55.594 56.15c6.732 5.25 15.148 8.4 24.307 8.4zM1255 675.6l-31.05-31.05 14.15-14.15 16.9 16.95 49.4-49.45 14.15 14.15zM1054.5 521v48.5h4l-4.5 9-4.5-9h4V522h-104v-1h105z" fill-rule="nonzero" fill="#000"/>
        <path d="M949.407 521v1H844.5v49h4l-4.5 9-4.5-9h4v-50h105.907z" fill="#000" fill-rule="nonzero"/>
    </g>
</svg>
