<svg width="1127" height="596"
    xmlns="http://www.w3.org/2000/svg">
    <g fill="none" fill-rule="evenodd">
        <path d="M795.593.223h-40c-5.523 0-10 4.477-10 10v80c0 5.523 4.477 10 10 10h60c5.522 0 10-4.477 10-10v-60l-30-30zm20 90h-60v-80h35v25h25v55zM580.593 35.223v-27.5l27.5 27.5h-27.5zm-35-35c-5.55 0-10 4.45-10 10v80c0 5.523 4.477 10 10 10h60c5.522 0 10-4.477 10-10v-60l-30-30h-40zM672.273 309.495H654.09v-9.09h18.182v9.09zm0-18.181H654.09v-9.091h18.182v9.09zm0-59.091v4.545H654.09A9.06 9.06 0 0 0 645 245.86v72.727a9.09 9.09 0 0 0 9.09 9.091h18.183v4.546h9.09v-100h-9.09zm45.454 31.818v54.545a9.06 9.06 0 0 1-9.09 9.091h-18.182v-9.09h18.181v-40.91h-18.181v-9.09h20.454l-20.454-20.455v-11.364l27.272 27.273zm-18.182 27.273h-9.09v-9.091h9.09v9.09zm0 18.181h-9.09v-9.09h9.09v9.09zM1082.444.223C1057.89.223 1038 10.167 1038 22.445s19.889 22.222 44.444 22.222c24.556 0 44.445-9.944 44.445-22.222S1107 .223 1082.444.223zM1038 33.556v16.667c0 12.277 19.889 22.222 44.444 22.222 24.556 0 44.445-9.945 44.445-22.222V33.556c0 12.278-19.889 22.222-44.445 22.222-24.555 0-44.444-9.944-44.444-22.222zm0 27.778V78c0 12.278 19.889 22.223 44.444 22.223 24.556 0 44.445-9.945 44.445-22.223V61.334c0 12.278-19.889 22.222-44.445 22.222-24.555 0-44.444-9.944-44.444-22.222zM217.5 46.223l9 4.5-9 4.5v-4H100v-1h117.5v-4zM520.982 45.257L530 49.72l-8.982 4.536-.016-4-185 .745-.004-1 184.999-.745-.015-4z" fill-rule="nonzero" fill="#000"/>
        <path d="M575.593 108.223v52h210v-52" stroke="#000" stroke-linecap="square"/>
        <path d="M681.007 160.215l1 .015-.882 60 4 .06-4.632 8.933-4.368-9.066 4 .059.882-60z" fill="#000" fill-rule="nonzero"/>
        <path d="M681 338l-1 68" stroke="#000" stroke-linecap="square"/>
        <path d="M412.5 509v4h108v1h-108v4l-9-4.5 9-4.5zM844 52.223v4h187v1H844v4l-9-4.5 9-4.5zM950.5 508.5l9 4.5-9 4.5v-4h-111v-1h111v-4z" fill="#000" fill-rule="nonzero"/>
        <text font-family="Helvetica" font-size="12" fill="#000" x="23.332" y="124">User visits </text>
        <text font-family="Helvetica" font-size="12" fill="#000" x="30.656" y="138">website</text>
        <text font-family="Helvetica" font-size="12" fill="#000" x="247.989" y="120.777">User enters</text>
        <text font-family="Helvetica" font-size="12" fill="#000" x="253.321" y="134.777">password</text>
        <text font-family="Helvetica" font-size="12" fill="#000" x="399.656" y="42">Password</text>
        <text font-family="Helvetica" font-size="12" fill="#000" x="387.65" y="66">transformation</text>
        <text font-family="Helvetica" font-size="12" fill="#000" x="883.651" y="49">Retrieval of</text>
        <text font-family="Helvetica" font-size="12" fill="#000" x="872.979" y="72">stored password</text>
        <text font-family="Helvetica" font-size="12" fill="#000" x="769.653" y="265">Comparison</text>
        <text font-family="Helvetica" font-size="12" fill="#000" x="731.295" y="279">of both password (hashes)</text>
        <text font-family="Helvetica" font-size="12" fill="#000" x="754.964" y="293">based on equality</text>
        <text font-family="Helvetica" font-size="12" fill="#000" x="285.301" y="580.777">Password is not equal</text>
        <text font-family="Helvetica" font-size="12" fill="#000" x="293.964" y="594.777">and access denied</text>
        <text font-family="Helvetica" font-size="12" fill="#000" x="954.307" y="574.777">Passwod is equal</text>
        <text font-family="Helvetica" font-size="12" fill="#000" x="948.632" y="588.777">and access granted</text>
        <text font-family="Helvetica" font-size="12" fill="#000" x="1069.832" y="116">User</text>
        <text font-family="Helvetica" font-size="12" fill="#000" x="1057.812" y="130">database</text>
        <path d="M50.5.723c13.807 0 25 11.193 25 25s-11.193 25-25 25-25-11.193-25-25 11.193-25 25-25zm0 62.5c27.625 0 50 11.187 50 25v12.5H.5v-12.5c0-13.813 22.375-25 50-25zM305 25.723h25v50h-25v10a5 5 0 0 0 5 5h10v10h-12.5c-2.75 0-7.5-2.25-7.5-5 0 2.75-4.75 5-7.5 5H280v-10h10a5 5 0 0 0 5-5v-70a5 5 0 0 0-5-5h-10v-10h12.5c2.75 0 7.5 2.25 7.5 5 0-2.75 4.75-5 7.5-5H320v10h-10a5 5 0 0 0-5 5v10zm-75 0h55v10h-45v30h45v10h-55v-50zm90 40v-30h-15v30h15zm-57.5-15a7.5 7.5 0 1 0-15 0 7.5 7.5 0 0 0 15 0zm22.5-5.55c-3.05-2.8-7.8-2.55-10.6.55-2.8 3-2.55 7.75.6 10.55 2.75 2.6 7.15 2.6 10 0v-11.1zM752.667 518.556h27.777v11.11h-27.777v-11.11zm38.889 0h27.777v11.11h-27.777v-11.11zm0-22.223h27.777v11.111h-27.777v-11.11zm-38.89 0h27.778v11.111h-27.777v-11.11zM747.112 463c-6.167 0-11.111 5-11.111 11.111v77.778c0 6.136 4.975 11.111 11.111 11.111h77.778c6.136 0 11.111-4.975 11.111-11.111V474.11c0-6.136-4.975-11.111-11.111-11.111H747.11zM542.667 530.667h11.11v11.11h-11.11v-11.11zm27.777-11.111h38.89v11.11h-38.89v-11.11zm0-22.223h38.89v11.111h-38.89v-11.11zm-27.777-11.11h11.11v33.333h-11.11v-33.334zM537.11 464c-6.167 0-11.111 5-11.111 11.111v77.778c0 6.136 4.975 11.111 11.111 11.111h77.778c6.136 0 11.111-4.975 11.111-11.111V475.11c0-6.136-4.975-11.111-11.111-11.111H537.11zM344 464a50 50 0 0 1 50 50c0 27.614-22.386 50-50 50a50 50 0 0 1 0-100zm0 10c-22.091 0-40 17.909-40 40 0 9.25 3.15 17.75 8.4 24.55l56.15-56.15c-6.8-5.25-15.3-8.4-24.55-8.4zm0 80c22.091 0 40-17.909 40-40 0-9.25-3.15-17.75-8.4-24.55l-56.15 56.15c6.8 5.25 15.3 8.4 24.55 8.4zM986 560.1l-31.05-31.05 14.15-14.15 16.9 16.95 49.4-49.45 14.15 14.15z" fill-rule="nonzero" fill="#000"/>
        <path d="M785.5 405.5V454h4l-4.5 9-4.5-9h4v-47.5h-104v-1h105zM680.407 405.5v1H575.5v49h4l-4.5 9-4.5-9h4v-50h105.907z" fill="#000" fill-rule="nonzero"/>
    </g>
</svg>
