<svg xmlns="http://www.w3.org/2000/svg" width="1461" height="703">
    <g fill="none" fill-rule="evenodd">
        <path fill="#000" fill-rule="nonzero" d="M634 342l-40 25-40-25v-10l40 25 40-25v10zm0-20h-80c-5.55 0-10 4.45-10 10v60c0 5.523 4.477 10 10 10h80c5.523 0 10-4.477 10-10v-60c0-5.55-4.5-10-10-10zM662.294 357.68l.318.949-10.427 3.504-.318-.948 10.427-3.504zm18.957-6.37l.32.947-10.428 3.505-.318-.948 10.426-3.505zm18.958-6.373l.319.948-10.427 3.505-.318-.948 10.426-3.505zm18.958-6.371l.319.948-10.427 3.504-.319-.948 10.427-3.504zm18.958-6.372l.319.948-10.427 3.504-.319-.948 10.427-3.504zm18.958-6.372l.319.948-10.427 3.505-.319-.948 10.427-3.505zm18.958-6.372l.318.948-10.426 3.505-.319-.948 10.427-3.505zm18.958-6.371l.318.948-10.427 3.504-.318-.948 10.427-3.504zm18.958-6.372l.318.948-10.427 3.504-.318-.948 10.427-3.504zm18.957-6.372l.319.948-10.427 3.505-.318-.948 10.426-3.505zm18.958-6.371l.319.947-10.427 3.505-.318-.948 10.426-3.504zm18.958-6.372l.319.948-10.427 3.504-.319-.948 10.427-3.504zm18.958-6.372l.319.948-10.427 3.504-.319-.947 10.427-3.505zm18.958-6.372l.319.948-10.427 3.505-.319-.948 10.427-3.505zm18.958-6.371l.318.948-10.426 3.504-.319-.948 10.427-3.504zm18.958-6.372l.318.948-10.427 3.504-.318-.948 10.427-3.504zm18.958-6.372l.318.948-10.427 3.505-.318-.948 10.427-3.505zm18.957-6.372l.319.948-10.427 3.505-.318-.948 10.426-3.505zm18.958-6.371l.319.948-10.427 3.504-.318-.948 10.426-3.504zm18.958-6.372l.319.948-10.427 3.504-.319-.948 10.427-3.504zm18.958-6.372l.319.948-10.427 3.505-.319-.948 10.427-3.505zm18.958-6.372l.319.948-10.427 3.505-.319-.948 10.427-3.505zm18.958-6.371l.318.948-10.426 3.504-.319-.948 10.427-3.504zm18.958-6.372l.318.948-10.427 3.504-.318-.948 10.427-3.504zm18.958-6.372l.318.948-10.427 3.505-.318-.948 10.427-3.505zm7.726-6.817l9.965 1.399-7.097 7.133-1.275-3.793-.47.159-.318-.948.469-.158-1.274-3.792z"/>
        <path fill="#000" fill-rule="nonzero" d="M1224 180l-40 25-40-25v-10l40 25 40-25v10zm0-20h-80c-5.55 0-10 4.45-10 10v60c0 5.523 4.477 10 10 10h80c5.523 0 10-4.477 10-10v-60c0-5.55-4.5-10-10-10zM315 180l-40 25-40-25v-10l40 25 40-25v10zm0-20h-80c-5.55 0-10 4.45-10 10v60c0 5.523 4.477 10 10 10h80c5.523 0 10-4.477 10-10v-60c0-5.55-4.5-10-10-10z"/>
        <path fill="#000" fill-rule="nonzero" d="M539.498 352.754l4.399 9.05-9.88-1.911 5.481-7.139zm-16.726-7.799l8.725 6.699-.61.793-8.724-6.699.609-.793zm-15.864-12.18l8.725 6.7-.609.792-8.725-6.698.61-.794zm-15.864-12.18l8.725 6.7-.609.793-8.725-6.7.61-.792zm-15.863-12.179l8.725 6.699-.61.793-8.724-6.699.609-.793zm-15.864-12.18l8.725 6.7-.609.792-8.725-6.698.61-.794zm-15.864-12.18l8.725 6.7-.609.793-8.725-6.7.61-.792zm-15.863-12.179l8.725 6.699-.61.793-8.724-6.699.609-.793zm-15.864-12.18l8.725 6.7-.609.792-8.725-6.699.61-.793zm-15.863-12.18l8.725 6.7-.61.793-8.724-6.7.609-.792zm-15.864-12.18l8.725 6.7-.61.793-8.724-6.699.609-.793zm-15.864-12.179l8.725 6.7-.609.792-8.725-6.699.61-.793zm-15.863-12.18l8.725 6.7-.61.793-8.724-6.7.609-.792zm-15.864-12.18l8.725 6.7-.61.793-8.724-6.699.609-.793zM275 239v74h4l-4.5 9-4.5-9h4v-74h1zm909.5.5v74h4l-4.5 9-4.5-9h4v-74h1zM243 503v-40h-10v-10h20v50h-10zm90-10c0 5.55-4.5 10-10 10h-20v-10h20v-10h-10v-10h10v-10h-20v-10h20c5.523 0 10 4.477 10 10v7.5a7.5 7.5 0 0 1-7.5 7.5 7.5 7.5 0 0 1 7.5 7.5v7.5zm-40 0v10h-30v-20c0-5.55 4.5-10 10-10h10v-10h-20v-10h20c5.523 0 10 4.477 10 10v10c0 5.55-4.5 10-10 10h-10v10h20z"/>
        <path fill="#000" fill-rule="nonzero" d="M535 473l9 4.5-9 4.5v-4h-3v-1h3v-4zm-192 4v1h-11v-1h11zm20 0v1h-11v-1h11zm20 0v1h-11v-1h11zm20 0v1h-11v-1h11zm20 0v1h-11v-1h11zm20 0v1h-11v-1h11zm20 0v1h-11v-1h11zm20 0v1h-11v-1h11zm20 0v1h-11v-1h11zm20 0v1h-11v-1h11zM554 503v-40h-10v-10h20v50h-10zm90-10c0 5.55-4.5 10-10 10h-20v-10h20v-10h-10v-10h10v-10h-20v-10h20c5.523 0 10 4.477 10 10v7.5a7.5 7.5 0 0 1-7.5 7.5 7.5 7.5 0 0 1 7.5 7.5v7.5zm-40 0v10h-30v-20c0-5.55 4.5-10 10-10h10v-10h-20v-10h20c5.523 0 10 4.477 10 10v10c0 5.55-4.5 10-10 10h-10v10h20z"/>
        <path fill="#000" fill-rule="nonzero" d="M879 473l9 4.5-9 4.5v-9zm-225 4v1h-11v-1h11zm20 0v1h-11v-1h11zm20 0v1h-11v-1h11zm20 0v1h-11v-1h11zm20 0v1h-11v-1h11zm20 0v1h-11v-1h11zm20 0v1h-11v-1h11zm20 0v1h-11v-1h11zm20 0v1h-11v-1h11zm20 0v1h-11v-1h11zm20 0v1h-11v-1h11zm20 0v1h-11v-1h11zM1144 503v-40h-10v-10h20v50h-10zm90-10c0 5.55-4.5 10-10 10h-20v-10h20v-10h-10v-10h10v-10h-20v-10h20c5.523 0 10 4.477 10 10v7.5a7.5 7.5 0 0 1-7.5 7.5 7.5 7.5 0 0 1 7.5 7.5v7.5zm-40 0v10h-30v-20c0-5.55 4.5-10 10-10h10v-10h-20v-10h20c5.523 0 10 4.477 10 10v10c0 5.55-4.5 10-10 10h-10v10h20zM947 477v4h180v1H947v4l-9-4.5 9-4.5zM288 374l23-23-23-23 7-7 30 30-30 30-7-7zm-26 0l-23-23 23-23-7-7-30 30 30 30 7-7zM1197 374l23-23-23-23 7-7 30 30-30 30-7-7zm-26 0l-23-23 23-23-7-7-30 30 30 30 7-7zM1185 380v64h4l-4.5 9-4.5-9h4v-64h1zm-909.5.5v64h4l-4.5 9-4.5-9h4v-64h1zM72.273 357.364a9.09 9.09 0 1 1 0-18.182 9.09 9.09 0 0 1 0 18.182zm25.682-18.182C94.227 328.59 84.136 321 72.273 321 57.21 321 45 333.21 45 348.273c0 15.062 12.21 27.272 27.273 27.272 11.863 0 21.954-7.59 25.682-18.181h19.772v18.181h18.182v-18.181H145v-18.182H97.955zM186.455 90.174c-2.661 0-4.819-2.147-4.819-4.794s2.158-4.793 4.819-4.793c2.66 0 4.818 2.146 4.818 4.793 0 2.647-2.157 4.794-4.818 4.794zm13.61-9.587A14.427 14.427 0 0 0 186.456 71C178.472 71 172 77.438 172 85.38c0 7.942 6.472 14.38 14.455 14.38a14.427 14.427 0 0 0 13.61-9.586h10.48v9.586h9.637v-9.586H225v-9.587h-24.934zM1386.727 356.364a9.09 9.09 0 1 0 0-18.182 9.09 9.09 0 0 0 0 18.182zm-25.682-18.182c3.728-10.591 13.819-18.182 25.682-18.182 15.063 0 27.273 12.21 27.273 27.273 0 15.062-12.21 27.272-27.273 27.272-11.863 0-21.954-7.59-25.682-18.181h-19.772v18.181h-18.182v-18.181H1314v-18.182h47.045zM1243 343v4h64v1h-64v4l-9-4.5 9-4.5zM908 474.5h7.5v7.5H908v-7.5zm5-42.5c13.375.55 19.2 14.05 11.25 24.175-2.075 2.5-5.425 4.15-7.075 6.25C915.5 464.5 915.5 467 915.5 469.5H908c0-4.175 0-7.7 1.675-10.2 1.65-2.5 5-3.975 7.075-5.625 6.05-5.6 4.55-13.525-3.75-14.175a7.5 7.5 0 0 0-7.5 7.5H898c0-8.284 6.716-15 15-15zM938 501.143h-50V494h50v7.143zm0 21.428h-50v-7.142h50v7.142z"/>
        <path fill="#000" fill-rule="nonzero" d="M913.378 521.804l63.036 44.219 2.298-3.274 4.783 8.852-9.952-1.484 2.297-3.275-63.036-44.22.574-.818z"/>
        <path fill="#000" fill-rule="nonzero" d="M913.624 521.804l.572.82-63.159 44.044 2.288 3.282-9.956 1.457 4.808-8.84 2.288 3.281 63.16-44.044zM823 665.1l-31.05-31.05 14.15-14.15 16.9 16.95 49.4-49.45 14.15 14.15zM988.647 576a50 50 0 0 1 50 50c0 27.614-22.386 50-50 50a50 50 0 0 1 0-100zm0 10c-22.091 0-40 17.909-40 40 0 9.25 3.15 17.75 8.4 24.55l56.15-56.15c-6.8-5.25-15.3-8.4-24.55-8.4zm0 80c22.091 0 40-17.909 40-40 0-9.25-3.15-17.75-8.4-24.55l-56.15 56.15c6.8 5.25 15.3 8.4 24.55 8.4zM291.75 55c0-3.45 2.8-6.25 6.25-6.25s6.25 2.8 6.25 6.25-2.8 6.25-6.25 6.25-6.25-2.8-6.25-6.25zM333 50v50H233V50c0-27.5 22.5-50 50-50s50 22.5 50 50zm-90 0c0 22.05 17.95 40 40 40s40-17.95 40-40c0-3.95-.6-7.75-1.65-11.3-3.6.85-7.35 1.3-11.25 1.3-16.85 0-31.75-8.35-40.8-21.15-4.9 11.95-14.25 21.6-26.05 26.85-.25 1.4-.25 2.85-.25 4.3zm25 11.25c3.45 0 6.25-2.8 6.25-6.25s-2.8-6.25-6.25-6.25-6.25 2.8-6.25 6.25 2.8 6.25 6.25 6.25zM1169 48.75a6.25 6.25 0 1 0 0 12.5 6.25 6.25 0 0 0 0-12.5zm30 0a6.25 6.25 0 1 0 0 12.5 6.25 6.25 0 0 0 0-12.5zM1184 0c-27.614 0-50 22.386-50 50a50 50 0 1 0 50-50zm0 90c-22.05 0-40-17.95-40-40 0-1.45 0-2.9.25-4.3 11.8-5.25 21.15-14.9 26.05-26.85 9.05 12.8 23.95 21.15 40.8 21.15 3.9 0 7.65-.45 11.25-1.3A39.83 39.83 0 0 1 1224 50c0 22.05-17.95 40-40 40zM1272.545 90.174c2.661 0 4.819-2.147 4.819-4.794s-2.158-4.793-4.819-4.793c-2.66 0-4.818 2.146-4.818 4.793 0 2.647 2.157 4.794 4.818 4.794zm-13.61-9.587a14.427 14.427 0 0 1 13.61-9.587c7.983 0 14.455 6.438 14.455 14.38 0 7.942-6.472 14.38-14.455 14.38a14.427 14.427 0 0 1-13.61-9.586h-10.48v9.586h-9.637v-9.586H1234v-9.587h24.934z"/>
        <path stroke="#979797" d="M.5 131.5h443v571H.5zM744.5 131.5h716v571h-716z"/>
        <path fill="#000" fill-rule="nonzero" d="M213.5 346.5l9 4.5-9 4.5v-4h-57v-1h57v-4z"/>
        <text fill="#000" font-family="Helvetica" font-size="36" x="55.485" y="63">Alice</text>
        <text fill="#000" font-family="Helvetica" font-size="36" x="1019.473" y="63">Bob</text>
        <text fill="#000" font-family="Helvetica" font-size="36" x="28.457" y="417">Shared</text>
        <text fill="#000" font-family="Helvetica" font-size="36" x="58.489" y="460">key</text>
        <text fill="#000" font-family="Helvetica" font-size="36" x="1297.457" y="423">Shared</text>
        <text fill="#000" font-family="Helvetica" font-size="36" x="1327.489" y="466">key</text>
        <text fill="#000" font-family="Helvetica" font-size="36" x="51.463" y="205">Message</text>
        <text fill="#000" font-family="Helvetica" font-size="36" x="1255.463" y="213">Message</text>
    </g>
</svg>
