<svg xmlns="http://www.w3.org/2000/svg" width="1333" height="677" viewBox="0 0 1333 677">
  <g fill-rule="evenodd">
    <path fill-rule="nonzero" d="M45.8333333,25 L45.8333333,33.3333333 L41.6666667,33.3333333 L41.6666667,41.6666667 L33.3333333,41.6666667 L33.3333333,33.3333333 L24.2916667,33.3333333 C22.5833333,38.2083333 17.9583333,41.6666667 12.5,41.6666667 C5.59644063,41.6666667 0,36.070226 0,29.1666667 C0,22.2631073 5.59644063,16.6666667 12.5,16.6666667 C17.9583333,16.6666667 22.5833333,20.125 24.2916667,25 L45.8333333,25 L45.8333333,25 Z M12.5,25 C10.1988135,25 8.33333333,26.8654802 8.33333333,29.1666667 C8.33333333,31.4678531 10.1988135,33.3333333 12.5,33.3333333 C14.8011865,33.3333333 16.6666667,31.4678531 16.6666667,29.1666667 C16.6666667,26.8654802 14.8011865,25 12.5,25 L12.5,25 Z M66.6666667,41.6666667 C77.7916667,41.6666667 100,47.25 100,58.3333333 L100,66.6666667 L33.3333333,66.6666667 L33.3333333,58.3333333 C33.3333333,47.25 55.5416667,41.6666667 66.6666667,41.6666667 L66.6666667,41.6666667 Z M66.6666667,33.3333333 C57.4619208,33.3333333 50,25.8714125 50,16.6666667 C50,7.46192084 57.4619208,0 66.6666667,0 C75.8714125,0 83.3333333,7.46192084 83.3333333,16.6666667 C83.3333333,25.8714125 75.8714125,33.3333333 66.6666667,33.3333333 Z" transform="translate(180)"/>
    <path fill-rule="nonzero" d="M24.2916667,25 C22.5833333,20.125 17.9583333,16.6666667 12.5,16.6666667 C5.59644063,16.6666667 0,22.2631073 0,29.1666667 C0,36.070226 5.59644063,41.6666667 12.5,41.6666667 C17.9583333,41.6666667 22.5833333,38.2083333 24.2916667,33.3333333 L33.3333333,33.3333333 L33.3333333,41.6666667 L41.6666667,41.6666667 L41.6666667,33.3333333 L45.8333333,33.3333333 L45.8333333,25 L24.2916667,25 L24.2916667,25 Z M12.5,33.3333333 C10.1988135,33.3333333 8.33333333,31.4678531 8.33333333,29.1666667 C8.33333333,26.8654802 10.1988135,25 12.5,25 C14.8011865,25 16.6666667,26.8654802 16.6666667,29.1666667 C16.6666667,31.4678531 14.8011865,33.3333333 12.5,33.3333333 L12.5,33.3333333 Z M66.6666667,0 C57.4619208,0 50,7.46192084 50,16.6666667 C50,25.8714125 57.4619208,33.3333333 66.6666667,33.3333333 C75.8714125,33.3333333 83.3333333,25.8714125 83.3333333,16.6666667 C83.3333333,7.46192084 75.8714125,0 66.6666667,0 L66.6666667,0 Z M66.6666667,25.4166667 C61.8341751,25.4166667 57.9166667,21.4991582 57.9166667,16.6666667 C57.9166667,11.8341751 61.8341751,7.91666667 66.6666667,7.91666667 C71.5,7.91666667 75.4166667,11.8333333 75.4166667,16.6666667 C75.4166667,21.5 71.5,25.4166667 66.6666667,25.4166667 L66.6666667,25.4166667 Z M66.6666667,37.5 C55.5416667,37.5 33.3333333,43.0416667 33.3333333,54.1666667 L33.3333333,66.6666667 L100,66.6666667 L100,54.1666667 C100,43.0416667 77.7916667,37.5 66.6666667,37.5 L66.6666667,37.5 Z M92.0833333,58.75 L41.25,58.75 L41.25,54.1666667 C41.25,51.5 54.1666667,45.4166667 66.6666667,45.4166667 C79.0416667,45.4166667 92.0833333,51.5 92.0833333,54.1666667 L92.0833333,58.75 Z" transform="translate(1039)"/>
    <path fill-rule="nonzero" d="M90,20 L50,45 L10,20 L10,10 L50,35 L90,10 L90,20 Z M90,0 L10,0 C4.45,0 0,4.45 0,10 L0,70 C0,75.5228475 4.4771525,80 10,80 L90,80 C95.5228475,80 100,75.5228475 100,70 L100,10 C100,4.45 95.5,0 90,0 Z" transform="translate(504 226)"/>
    <path fill-rule="nonzero" d="M90,20 L50,45 L10,20 L10,10 L50,35 L90,10 L90,20 Z M90,0 L10,0 C4.45,0 0,4.45 0,10 L0,70 C0,75.5228475 4.4771525,80 10,80 L90,80 C95.5228475,80 100,75.5228475 100,70 L100,10 C100,4.45 95.5,0 90,0 Z" transform="translate(1053 146)"/>
    <path fill-rule="nonzero" d="M90,20 L50,45 L10,20 L10,10 L50,35 L90,10 L90,20 Z M90,0 L10,0 C4.45,0 0,4.45 0,10 L0,70 C0,75.5228475 4.4771525,80 10,80 L90,80 C95.5228475,80 100,75.5228475 100,70 L100,10 C100,4.45 95.5,0 90,0 Z" transform="translate(188 146)"/>
    <path fill-rule="nonzero" d="M10,50 L10,10 L0,10 L0,0 L20,0 L20,50 L10,50 L10,50 Z M100,40 C100,45.55 95.5,50 90,50 L70,50 L70,40 L90,40 L90,30 L80,30 L80,20 L90,20 L90,10 L70,10 L70,0 L90,0 C95.5228475,0 100,4.4771525 100,10 L100,17.5 C100,21.6421356 96.6421356,25 92.5,25 C96.6421356,25 100,28.3578644 100,32.5 L100,40 L100,40 Z M60,40 L60,50 L30,50 L30,30 C30,24.45 34.5,20 40,20 L50,20 L50,10 L30,10 L30,0 L50,0 C55.5228475,0 60,4.4771525 60,10 L60,20 C60,25.55 55.5,30 50,30 L40,30 L40,40 L60,40 Z" transform="translate(504 448)"/>
    <path fill-rule="nonzero" d="M10,50 L10,10 L0,10 L0,0 L20,0 L20,50 L10,50 L10,50 Z M100,40 C100,45.55 95.5,50 90,50 L70,50 L70,40 L90,40 L90,30 L80,30 L80,20 L90,20 L90,10 L70,10 L70,0 L90,0 C95.5228475,0 100,4.4771525 100,10 L100,17.5 C100,21.6421356 96.6421356,25 92.5,25 C96.6421356,25 100,28.3578644 100,32.5 L100,40 L100,40 Z M60,40 L60,50 L30,50 L30,30 C30,24.45 34.5,20 40,20 L50,20 L50,10 L30,10 L30,0 L50,0 C55.5228475,0 60,4.4771525 60,10 L60,20 C60,25.55 55.5,30 50,30 L40,30 L40,40 L60,40 Z" transform="translate(1053 448)"/>
    <path fill-rule="nonzero" d="M63,53 L86,30 L63,7 L70,0 L100,30 L70,60 L63,53 L63,53 Z M37,53 L14,30 L37,7 L30,0 L0,30 L30,60 L37,53 Z" transform="translate(180 307)"/>
    <path fill-rule="nonzero" d="M63,53 L86,30 L63,7 L70,0 L100,30 L70,60 L63,53 L63,53 Z M37,53 L14,30 L37,7 L30,0 L0,30 L30,60 L37,53 Z" transform="translate(1053 307)"/>
    <path fill-rule="nonzero" d="M27.2727273,36.3636364 C22.2519568,36.3636364 18.1818182,32.2934977 18.1818182,27.2727273 C18.1818182,22.2519568 22.2519568,18.1818182 27.2727273,18.1818182 C32.2934977,18.1818182 36.3636364,22.2519568 36.3636364,27.2727273 C36.3636364,32.2934977 32.2934977,36.3636364 27.2727273,36.3636364 L27.2727273,36.3636364 Z M52.9545455,18.1818182 C49.2272727,7.59090909 39.1363636,0 27.2727273,0 C12.2104159,0 4.4408921e-16,12.2104159 4.4408921e-16,27.2727273 C4.4408921e-16,42.3350386 12.2104159,54.5454545 27.2727273,54.5454545 C39.1363636,54.5454545 49.2272727,46.9545455 52.9545455,36.3636364 L72.7272727,36.3636364 L72.7272727,54.5454545 L90.9090909,54.5454545 L90.9090909,36.3636364 L100,36.3636364 L100,18.1818182 L52.9545455,18.1818182 Z" transform="translate(0 307)"/>
    <path fill-rule="nonzero" d="M27.2727273,36.3636364 C22.2519568,36.3636364 18.1818182,32.2934977 18.1818182,27.2727273 C18.1818182,22.2519568 22.2519568,18.1818182 27.2727273,18.1818182 C32.2934977,18.1818182 36.3636364,22.2519568 36.3636364,27.2727273 C36.3636364,32.2934977 32.2934977,36.3636364 27.2727273,36.3636364 L27.2727273,36.3636364 Z M52.9545455,18.1818182 C49.2272727,7.59090909 39.1363636,0 27.2727273,0 C12.2104159,0 4.4408921e-16,12.2104159 4.4408921e-16,27.2727273 C4.4408921e-16,42.3350386 12.2104159,54.5454545 27.2727273,54.5454545 C39.1363636,54.5454545 49.2272727,46.9545455 52.9545455,36.3636364 L72.7272727,36.3636364 L72.7272727,54.5454545 L90.9090909,54.5454545 L90.9090909,36.3636364 L100,36.3636364 L100,18.1818182 L52.9545455,18.1818182 Z" transform="matrix(-1 0 0 1 1333 306)"/>
    <path fill-rule="nonzero" d="M10,42.5 L17.5,42.5 L17.5,50 L10,50 L10,42.5 L10,42.5 Z M15,-4.4408921e-16 C28.375,0.55 34.2,14.05 26.25,24.175 C24.175,26.675 20.825,28.325 19.175,30.425 C17.5,32.5 17.5,35 17.5,37.5 L10,37.5 C10,33.325 10,29.8 11.675,27.3 C13.325,24.8 16.675,23.325 18.75,21.675 C24.8,16.075 23.3,8.15 15,7.5 C10.8578644,7.5 7.5,10.8578644 7.5,15 L0,15 C0,6.71572875 6.71572875,-4.4408921e-16 15,-4.4408921e-16 Z" transform="translate(818 427)"/>
    <path fill-rule="nonzero" d="M50,7.14285714 L0,7.14285714 L0,0 L50,0 L50,7.14285714 L50,7.14285714 Z M50,28.5714286 L0,28.5714286 L0,21.4285714 L50,21.4285714 L50,28.5714286 Z" transform="translate(808 489)"/>
    <polygon fill-rule="nonzero" points="35 82.1 3.95 51.05 18.1 36.9 35 53.85 84.4 4.4 98.55 18.55" transform="translate(707 585)"/>
    <path fill-rule="nonzero" d="M50,-4.4408921e-16 C63.2608245,-4.4408921e-16 75.9785201,5.26784202 85.3553391,14.6446609 C94.732158,24.0214799 100,36.7391755 100,50 C100,77.6142375 77.6142375,100 50,100 C36.7391755,100 24.0214799,94.732158 14.6446609,85.3553391 C5.26784202,75.9785201 -4.4408921e-16,63.2608245 -4.4408921e-16,50 C-4.4408921e-16,36.7391755 5.26784202,24.0214799 14.6446609,14.6446609 C24.0214799,5.26784202 36.7391755,-4.4408921e-16 50,-4.4408921e-16 L50,-4.4408921e-16 Z M50,10 C27.90861,10 10,27.90861 10,50 C10,59.25 13.15,67.75 18.4,74.55 L74.55,18.4 C67.75,13.15 59.25,10 50,10 L50,10 Z M50,90 C72.09139,90 90,72.09139 90,50 C90,40.75 86.85,32.25 81.6,25.45 L25.45,81.6 C32.25,86.85 40.75,90 50,90 Z" transform="translate(857.647 577)"/>
  </g>
</svg>
