<svg width="1498" height="633"
    xmlns="http://www.w3.org/2000/svg">
    <g fill="none" fill-rule="evenodd">
        <path d="M979.12.223h-39.506c-5.454 0-9.876 4.477-9.876 10v80c0 5.523 4.422 10 9.876 10h59.26c5.454 0 9.876-4.477 9.876-10v-60l-29.63-30zm19.754 90h-59.26v-80h34.568v25h24.692v55zM765.084 35.223v-27.5l27.16 27.5h-27.16zm-34.568-35c-5.482 0-9.877 4.45-9.877 10v80c0 5.523 4.422 10 9.877 10h59.259c5.455 0 9.876-4.477 9.876-10v-60l-29.63-30h-39.505zM856.05 309.495h-17.937v-9.09h17.936v9.09zm0-18.181h-17.937v-9.091h17.936v9.09zm0-59.091v4.545h-17.937c-4.977 0-8.968 4.046-8.968 9.091v72.727c0 5.021 4.015 9.091 8.968 9.091h17.936v4.546h8.968v-100h-8.968zm44.84 31.818v54.545c0 5.046-3.991 9.091-8.969 9.091h-17.936v-9.09h17.936v-40.91h-17.936v-9.09h20.178l-20.178-20.455v-11.364l26.905 27.273zm-17.937 27.273h-8.968v-9.091h8.968v9.09zm0 18.181h-8.968v-9.09h8.968v9.09zM1453.5 7c-24.283 0-43.95 9.944-43.95 22.222s19.667 22.222 43.95 22.222 43.95-9.944 43.95-22.222S1477.784 7 1453.5 7zm-43.95 33.333V57c0 12.278 19.667 22.222 43.95 22.222s43.95-9.944 43.95-22.222V40.333c0 12.278-19.667 22.223-43.95 22.223s-43.95-9.945-43.95-22.223zm0 27.778v16.667c0 12.278 19.667 22.222 43.95 22.222s43.95-9.944 43.95-22.222V68.11c0 12.278-19.667 22.222-43.95 22.222s-43.95-9.944-43.95-22.222zM294.506 46.211l8.994 4.512-9.006 4.488.005-4-158.5-.212.002-1 158.499.212.006-4zM705.018 45.189L714 49.725l-9.018 4.464.016-4-299-1.191.004-1 298.999 1.19.017-4z" fill-rule="nonzero" fill="#000"/>
        <path d="M759.593 108.223v52h210v-52" stroke="#000" stroke-linecap="square"/>
        <path d="M865.007 160.215l1 .015-.882 60 4 .06-4.632 8.933-4.368-9.066 4 .059.882-60z" fill="#000" fill-rule="nonzero"/>
        <path d="M865 338l-1 68" stroke="#000" stroke-linecap="square"/>
        <path d="M596.5 509v4h108v1h-108v4l-9-4.5 9-4.5zM1028 52.223v4h187v1h-187v4l-9-4.5 9-4.5zM1134.5 508.5l9 4.5-9 4.5v-4h-111v-1h111v-4z" fill="#000" fill-rule="nonzero"/>
        <text font-family="Helvetica" font-size="24" fill="#000" transform="translate(-18 .223)" x="17.482" y="122.777">User uses </text>
        <text font-family="Helvetica" font-size="24" fill="#000" transform="translate(-18 .223)" x="21.479" y="151.777">computer</text>
        <text font-family="Helvetica" font-size="24" fill="#000" x="256.486" y="125.777">User inserts</text>
        <text font-family="Helvetica" font-size="24" fill="#000" x="263.822" y="154.777">smart card</text>
        <text font-family="Helvetica" font-size="24" fill="#000" x="483.152" y="42.777">Data</text>
        <text font-family="Helvetica" font-size="24" fill="#000" x="484.469" y="70.777">reading</text>
        <text font-family="Helvetica" font-size="24" fill="#000" x="1074.309" y="48.777">Retrieval of</text>
        <text font-family="Helvetica" font-size="24" fill="#000" x="1074.459" y="82.777">stored data</text>
        <text font-family="Helvetica" font-size="24" fill="#000" transform="translate(-18 .223)" x="960.807" y="254.777">Comparison</text>
        <text font-family="Helvetica" font-size="24" fill="#000" transform="translate(-18 .223)" x="988.803" y="283.777">of data</text>
        <text font-family="Helvetica" font-size="24" fill="#000" transform="translate(-18 .223)" x="931.428" y="312.777">based on equality</text>
        <text font-family="Helvetica" font-size="24" fill="#000" transform="translate(-18 .223)" x="415.441" y="597.777">Data is not equal</text>
        <text font-family="Helvetica" font-size="24" fill="#000" transform="translate(-18 .223)" x="405.428" y="626.777">and access denied</text>
        <text font-family="Helvetica" font-size="24" fill="#000" transform="translate(-18 .223)" x="1064.957" y="597.777">Data is equal</text>
        <text font-family="Helvetica" font-size="24" fill="#000" transform="translate(-18 .223)" x="1030.264" y="626.777">and access granted</text>
        <text font-family="Helvetica" font-size="24" fill="#000" transform="translate(-18 .223)" x="1369.131" y="139.777">Database</text>
        <path d="M937.142 518.556h27.503v11.11h-27.503v-11.11zm38.504 0h27.503v11.11h-27.503v-11.11zm0-22.223h27.503v11.111h-27.503v-11.11zm-38.504 0h27.503v11.111h-27.503v-11.11zm-5.5-33.333c-6.106 0-11.001 5-11.001 11.111v77.778c0 6.136 4.925 11.111 11 11.111h77.008c6.076 0 11.002-4.975 11.002-11.111V474.11c0-6.136-4.926-11.111-11.002-11.111h-77.007zM726.647 530.667h11.001v11.11h-11v-11.11zm27.503-11.111h38.504v11.11H754.15v-11.11zm0-22.223h38.504v11.111H754.15v-11.11zm-27.503-11.11h11.001v33.333h-11v-33.334zm-5.5-22.223c-6.106 0-11.001 5-11.001 11.111v77.778c0 6.136 4.925 11.111 11 11.111h77.008c6.076 0 11.002-4.975 11.002-11.111V475.11c0-6.136-4.926-11.111-11.002-11.111h-77.007zM528.146 464c13.13 0 25.72 5.268 35.005 14.645 9.284 9.376 14.5 22.094 14.5 35.355 0 27.614-22.165 50-49.505 50-13.13 0-25.722-5.268-35.006-14.645-9.284-9.376-14.5-22.094-14.5-35.355 0-13.26 5.216-25.979 14.5-35.355 9.284-9.377 21.876-14.645 35.006-14.645zm0 10c-21.873 0-39.604 17.909-39.604 40 0 9.25 3.118 17.75 8.316 24.55l55.595-56.15c-6.733-5.25-15.149-8.4-24.307-8.4zm0 80c21.872 0 39.604-17.909 39.604-40 0-9.25-3.12-17.75-8.317-24.55l-55.594 56.15c6.732 5.25 15.148 8.4 24.307 8.4zM1170 560.1l-31.05-31.05 14.15-14.15 16.9 16.95 49.4-49.45 14.15 14.15z" fill-rule="nonzero" fill="#000"/>
        <path d="M969.5 405.5V454h4l-4.5 9-4.5-9h4v-47.5h-104v-1h105zM864.407 405.5v1H759.5v49h4l-4.5 9-4.5-9h4v-50h105.907zM396.5 5.223h-80c-5.523 0-10 4.477-10 10v60c0 5.523 4.477 10 10 10h80c5.523 0 10-4.477 10-10v-60c0-5.523-4.477-10-10-10zm0 35h-80v-15h80v15zM54.142 20.695h66.007v41.054H54.142V20.695zm66.007 49.264c4.557 0 8.25-3.676 8.25-8.21V20.695c0-4.557-3.712-8.211-8.25-8.211H54.142c-4.579 0-8.25 3.654-8.25 8.21V61.75c0 4.534 3.693 8.21 8.25 8.21H37.641v8.211h99.01v-8.21h-16.502zM1027.997 52.218l.002 3.999 381-.217.001 1-381 .217.003 4-9.003-4.494 8.997-4.505z" fill="#000" fill-rule="nonzero"/>
    </g>
</svg>
