<svg xmlns="http://www.w3.org/2000/svg" width="1498" height="633">
    <g fill="none" fill-rule="evenodd">
        <path fill="#000" fill-rule="nonzero" d="M979.12.223h-39.505c-5.455 0-9.877 4.477-9.877 10v80c0 5.523 4.422 10 9.877 10h59.259c5.454 0 9.876-4.477 9.876-10v-60l-29.63-30zm19.754 90h-59.26v-80h34.568v25h24.692v55zM765.084 35.223v-27.5l27.16 27.5h-27.16zm-34.567-35c-5.482 0-9.877 4.45-9.877 10v80c0 5.523 4.422 10 9.877 10h59.259c5.454 0 9.876-4.477 9.876-10v-60l-29.63-30h-39.505zM856.05 309.496h-17.937v-9.091h17.936v9.09zm0-18.182h-17.937v-9.091h17.936v9.09zm0-59.091v4.545h-17.937c-4.977 0-8.968 4.046-8.968 9.091v72.728c0 5.02 4.015 9.09 8.968 9.09h17.936v4.546h8.968v-100h-8.968zm44.84 31.818v54.546c0 5.045-3.991 9.09-8.969 9.09h-17.936v-9.09h17.936v-40.91h-17.936v-9.09h20.178l-20.178-20.455v-11.364l26.904 27.273zm-17.937 27.273h-8.968v-9.091h8.968v9.09zm0 18.182h-8.968v-9.091h8.968v9.09zM1453.5 7c-24.282 0-43.95 9.944-43.95 22.222s19.668 22.222 43.95 22.222c24.283 0 43.951-9.944 43.951-22.222S1477.783 7 1453.501 7zm-43.95 33.333V57c0 12.278 19.668 22.222 43.95 22.222 24.283 0 43.951-9.944 43.951-22.222V40.333c0 12.278-19.668 22.223-43.95 22.223-24.283 0-43.951-9.945-43.951-22.223zm0 27.778v16.667c0 12.278 19.668 22.222 43.95 22.222 24.283 0 43.951-9.944 43.951-22.222V68.11c0 12.278-19.668 22.222-43.95 22.222-24.283 0-43.951-9.944-43.951-22.222zM294.506 46.212l8.994 4.512-9.006 4.488.005-4.001-158.5-.211.002-1 158.499.211.006-4zm410.512-1.023L714 49.725l-9.018 4.464.016-4-299-1.19.004-1 298.999 1.19.017-4z"/>
        <path stroke="#000" stroke-linecap="square" d="M759.593 108.223v52h210v-52"/>
        <path fill="#000" fill-rule="nonzero" d="M865.007 160.216l1 .014-.882 60.001 4 .06-4.632 8.932-4.368-9.065 4 .058.882-60z"/>
        <path stroke="#000" stroke-linecap="square" d="M865 338l-1 68"/>
        <path fill="#000" fill-rule="nonzero" d="M596.5 509v4h108v1h-108v4l-9-4.5 9-4.5zM1028 52.223v4h187v1h-187v4l-9-4.5 9-4.5zM1134.5 508.5l9 4.5-9 4.5v-4h-111v-1h111v-4z"/>
        <text fill="#000" font-family="Helvetica" font-size="24" x="17.482" y="122.777">User uses </text>
        <text fill="#000" font-family="Helvetica" font-size="24" x="21.479" y="151.777">computer</text>
        <text fill="#000" font-family="Helvetica" font-size="24" x="256.486" y="125.777">User inserts</text>
        <text fill="#000" font-family="Helvetica" font-size="24" x="267.156" y="154.777">smartcard</text>
        <text fill="#000" font-family="Helvetica" font-size="24" x="454.152" y="42.777">Data</text>
        <text fill="#000" font-family="Helvetica" font-size="24" x="455.469" y="70.777">reading</text>
        <text fill="#000" font-family="Helvetica" font-size="24" x="1074.309" y="48.777">Retrieval of</text>
        <text fill="#000" font-family="Helvetica" font-size="24" x="1074.459" y="82.777">stored data</text>
        <text fill="#000" font-family="Helvetica" font-size="24" x="960.807" y="254.777">Comparison</text>
        <text fill="#000" font-family="Helvetica" font-size="24" x="988.803" y="283.777">of data</text>
        <text fill="#000" font-family="Helvetica" font-size="24" x="931.428" y="312.777">based on equality</text>
        <text fill="#000" font-family="Helvetica" font-size="24" x="415.441" y="597.777">Data is not equal</text>
        <text fill="#000" font-family="Helvetica" font-size="24" x="405.428" y="626.777">and access denied</text>
        <text fill="#000" font-family="Helvetica" font-size="24" x="1064.957" y="597.777">Data is equal</text>
        <text fill="#000" font-family="Helvetica" font-size="24" x="1030.264" y="626.777">and access granted</text>
        <text fill="#000" font-family="Helvetica" font-size="24" x="1369.131" y="139.777">Database</text>
        <path fill="#000" fill-rule="nonzero" d="M937.142 518.556h27.502v11.11h-27.502v-11.11zm38.504 0h27.502v11.11h-27.502v-11.11zm0-22.223h27.502v11.111h-27.502v-11.11zm-38.504 0h27.502v11.111h-27.502v-11.11zm-5.5-33.333c-6.107 0-11.002 5-11.002 11.111v77.778c0 6.136 4.925 11.111 11.001 11.111h77.008c6.076 0 11-4.975 11-11.111V474.11c0-6.136-4.924-11.111-11-11.111H931.64zM726.648 530.667h11v11.11h-11v-11.11zm27.502-11.111h38.504v11.11H754.15v-11.11zm0-22.223h38.504v11.111H754.15v-11.11zm-27.502-11.11h11v33.333h-11v-33.334zm-5.5-22.223c-6.107 0-11.002 5-11.002 11.111v77.778c0 6.136 4.925 11.111 11.001 11.111h77.008c6.076 0 11-4.975 11-11.111V475.11c0-6.136-4.924-11.111-11-11.111h-77.008zM528.145 464c13.13 0 25.721 5.268 35.005 14.645 9.284 9.376 14.5 22.094 14.5 35.355 0 27.614-22.164 50-49.505 50-13.13 0-25.721-5.268-35.005-14.645-9.284-9.376-14.5-22.094-14.5-35.355 0-13.26 5.216-25.979 14.5-35.355 9.284-9.377 21.875-14.645 35.005-14.645zm0 10c-21.873 0-39.604 17.909-39.604 40 0 9.25 3.119 17.75 8.317 24.55l55.594-56.15c-6.733-5.25-15.149-8.4-24.307-8.4zm0 80c21.873 0 39.604-17.909 39.604-40 0-9.25-3.119-17.75-8.317-24.55l-55.594 56.15c6.733 5.25 15.149 8.4 24.307 8.4zM1170 560.1l-31.05-31.05 14.15-14.15 16.9 16.95 49.4-49.45 14.15 14.15z"/>
        <path fill="#000" fill-rule="nonzero" d="M969.5 405.5V454h4l-4.5 9-4.5-9h4v-47.5h-104v-1h105zm-105.093 0v1H759.5v49h4l-4.5 9-4.5-9h4v-50h105.907zM396.5 5.223h-80c-5.523 0-10 4.477-10 10v60c0 5.523 4.477 10 10 10h80c5.523 0 10-4.477 10-10v-60c0-5.523-4.477-10-10-10zm0 35h-80v-15h80v15zM54.142 20.695h66.006v41.054H54.142V20.695zm66.006 49.264c4.557 0 8.251-3.676 8.251-8.21V20.695c0-4.557-3.713-8.211-8.25-8.211H54.141c-4.58 0-8.251 3.654-8.251 8.21V61.75c0 4.534 3.694 8.21 8.25 8.21H37.64v8.211h99.01v-8.21h-16.502zM1027.997 52.218l.002 3.999 381-.217.001 1-381 .217.003 4.001-9.003-4.495 8.997-4.505z"/>
    </g>
</svg>
