<svg width="1127" height="596"
    xmlns="http://www.w3.org/2000/svg">
    <g fill="none" fill-rule="evenodd">
        <path d="M795.593.223h-40c-5.523 0-10 4.477-10 10v80c0 5.523 4.477 10 10 10h60c5.522 0 10-4.477 10-10v-60l-30-30zm20 90h-60v-80h35v25h25v55zM580.593 35.223v-27.5l27.5 27.5h-27.5zm-35-35c-5.55 0-10 4.45-10 10v80c0 5.523 4.477 10 10 10h60c5.522 0 10-4.477 10-10v-60l-30-30h-40zM672.273 309.495H654.09v-9.09h18.182v9.09zm0-18.181H654.09v-9.091h18.182v9.09zm0-59.091v4.545H654.09A9.06 9.06 0 0 0 645 245.86v72.727a9.09 9.09 0 0 0 9.09 9.091h18.183v4.546h9.09v-100h-9.09zm45.454 31.818v54.545a9.06 9.06 0 0 1-9.09 9.091h-18.182v-9.09h18.181v-40.91h-18.181v-9.09h20.454l-20.454-20.455v-11.364l27.272 27.273zm-18.182 27.273h-9.09v-9.091h9.09v9.09zm0 18.181h-9.09v-9.09h9.09v9.09zM1082.444.223C1057.89.223 1038 10.167 1038 22.445s19.889 22.222 44.444 22.222c24.556 0 44.445-9.944 44.445-22.222S1107 .223 1082.444.223zM1038 33.556v16.667c0 12.277 19.889 22.222 44.444 22.222 24.556 0 44.445-9.945 44.445-22.222V33.556c0 12.278-19.889 22.222-44.445 22.222-24.555 0-44.444-9.944-44.444-22.222zm0 27.778V78c0 12.278 19.889 22.223 44.444 22.223 24.556 0 44.445-9.945 44.445-22.223V61.334c0 12.278-19.889 22.222-44.445 22.222-24.555 0-44.444-9.944-44.444-22.222zM217.5 46.223l9 4.5-9 4.5v-4H100v-1h117.5v-4zM520.982 45.257L530 49.72l-8.982 4.536-.016-4-185 .745-.004-1 184.999-.745-.015-4z" fill-rule="nonzero" fill="#000"/>
        <path d="M575.593 108.223v52h210v-52" stroke="#000" stroke-linecap="square"/>
        <path d="M681.007 160.215l1 .015-.882 60 4 .06-4.632 8.933-4.368-9.066 4 .059.882-60z" fill="#000" fill-rule="nonzero"/>
        <path d="M681 338l-1 68" stroke="#000" stroke-linecap="square"/>
        <path d="M412.5 509v4h108v1h-108v4l-9-4.5 9-4.5zM844 52.223v4h187v1H844v4l-9-4.5 9-4.5zM950.5 508.5l9 4.5-9 4.5v-4h-111v-1h111v-4z" fill="#000" fill-rule="nonzero"/>
        <text font-family="Helvetica" font-size="12" fill="#000" x="22.491" y="102">User uses </text>
        <text font-family="Helvetica" font-size="12" fill="#000" x="24.489" y="116">computer</text>
        <text font-family="Helvetica" font-size="12" fill="#000" x="247.493" y="101.777">User inserts</text>
        <text font-family="Helvetica" font-size="12" fill="#000" x="251.161" y="115.777">smart card</text>
        <text font-family="Helvetica" font-size="12" fill="#000" x="413.826" y="42">Data</text>
        <text font-family="Helvetica" font-size="12" fill="#000" x="406.484" y="66">reading</text>
        <text font-family="Helvetica" font-size="12" fill="#000" x="887.154" y="49">Retrieval of</text>
        <text font-family="Helvetica" font-size="12" fill="#000" x="887.479" y="72">stored data</text>
        <text font-family="Helvetica" font-size="12" fill="#000" x="748.153" y="274.777">Comparison</text>
        <text font-family="Helvetica" font-size="12" fill="#000" x="762.151" y="288.777">of data</text>
        <text font-family="Helvetica" font-size="12" fill="#000" x="733.464" y="302.777">based on equality</text>
        <text font-family="Helvetica" font-size="12" fill="#000" x="290.793" y="580.777">Data does not equal</text>
        <text font-family="Helvetica" font-size="12" fill="#000" x="294.464" y="594.777">and access denied</text>
        <text font-family="Helvetica" font-size="12" fill="#000" x="966.479" y="574.777">Data is equal</text>
        <text font-family="Helvetica" font-size="12" fill="#000" x="949.132" y="588.777">and access granted</text>
        <text font-family="Helvetica" font-size="12" fill="#000" x="1057.315" y="116">Database</text>
        <path d="M752.667 518.556h27.777v11.11h-27.777v-11.11zm38.889 0h27.777v11.11h-27.777v-11.11zm0-22.223h27.777v11.111h-27.777v-11.11zm-38.89 0h27.778v11.111h-27.777v-11.11zM747.112 463c-6.167 0-11.111 5-11.111 11.111v77.778c0 6.136 4.975 11.111 11.111 11.111h77.778c6.136 0 11.111-4.975 11.111-11.111V474.11c0-6.136-4.975-11.111-11.111-11.111H747.11zM542.667 530.667h11.11v11.11h-11.11v-11.11zm27.777-11.111h38.89v11.11h-38.89v-11.11zm0-22.223h38.89v11.111h-38.89v-11.11zm-27.777-11.11h11.11v33.333h-11.11v-33.334zM537.11 464c-6.167 0-11.111 5-11.111 11.111v77.778c0 6.136 4.975 11.111 11.111 11.111h77.778c6.136 0 11.111-4.975 11.111-11.111V475.11c0-6.136-4.975-11.111-11.111-11.111H537.11zM344 464a50 50 0 0 1 50 50c0 27.614-22.386 50-50 50a50 50 0 0 1 0-100zm0 10c-22.091 0-40 17.909-40 40 0 9.25 3.15 17.75 8.4 24.55l56.15-56.15c-6.8-5.25-15.3-8.4-24.55-8.4zm0 80c22.091 0 40-17.909 40-40 0-9.25-3.15-17.75-8.4-24.55l-56.15 56.15c6.8 5.25 15.3 8.4 24.55 8.4zM986 560.1l-31.05-31.05 14.15-14.15 16.9 16.95 49.4-49.45 14.15 14.15z" fill-rule="nonzero" fill="#000"/>
        <path d="M785.5 405.5V454h4l-4.5 9-4.5-9h4v-47.5h-104v-1h105zM680.407 405.5v1H575.5v49h4l-4.5 9-4.5-9h4v-50h105.907zM319.5 5.223h-80c-5.523 0-10 4.477-10 10v60c0 5.523 4.477 10 10 10h80c5.523 0 10-4.477 10-10v-60c0-5.523-4.477-10-10-10zm0 35h-80v-15h80v15zM17.167 20.056h66.666v41.667H17.167V20.056zm66.666 50a8.333 8.333 0 0 0 8.334-8.333V20.056c0-4.625-3.75-8.333-8.334-8.333H17.167a8.305 8.305 0 0 0-8.334 8.333v41.667a8.333 8.333 0 0 0 8.334 8.333H.5v8.333h100v-8.333H83.833z" fill="#000" fill-rule="nonzero"/>
    </g>
</svg>
