<svg xmlns="http://www.w3.org/2000/svg" width="1660" height="699">
    <g fill="none" fill-rule="evenodd">
        <path fill="#000" fill-rule="nonzero" d="M120 285c0-8.284-6.716-15-15-15H45L0 315v90c0 8.284 6.716 15 15 15h90c8.325 0 15-6.75 15-15V285zM37.5 397.5h-15v-15h15v15zm60 0h-15v-15h15v15zm-60-30h-15v-30h15v30zm30 30h-15v-30h15v30zm0-45h-15v-15h15v15zm30 15h-15v-30h15v30z"/>
        <path stroke="#979797" stroke-dasharray="10" stroke-linecap="square" d="M60.5 391.5l267 293"/>
        <path fill="#D8D8D8" stroke="#979797" d="M798.5 292.5h149v299h-149z"/>
        <path stroke="#979797" stroke-linecap="square" d="M948.5 566.5h204m-204-245l204.5-.5"/>
        <path fill="#D8D8D8" stroke="#979797" d="M1545 392v99h-392v-99zM1548 272v99h-392v-99zM998.5 70.5v149h-249v-149z"/>
        <text fill="#000" font-family="Helvetica" font-size="36" x="835.496" y="456">CPU</text>
        <text fill="#000" font-family="Helvetica" font-size="36" x="1290.001" y="444">RAM</text>
        <text fill="#000" font-family="Helvetica" font-size="36" x="1297.006" y="314">ROM</text>
        <text fill="#000" font-family="Helvetica" font-size="24" x="1205.623" y="473.5">temporary storage</text>
        <path fill="#D8D8D8" stroke="#979797" d="M1545 513v99h-392v-99z"/>
        <text fill="#000" font-family="Helvetica" font-size="36" x="1261.488" y="552">EEPROM</text>
        <text fill="#000" font-family="Helvetica" font-size="24" x="1201.766" y="586.5">application storage</text>
        <text fill="#000" font-family="Helvetica" font-size="24" x="1211.623" y="344.5">operating system</text>
        <text fill="#000" font-family="Helvetica" font-size="24" x="766.143" y="168">co-processor</text>
        <path stroke="#979797" stroke-linecap="square" d="M1152.5 443.5l-204-2"/>
        <text fill="#000" font-family="Helvetica" font-size="36" x="820.984" y="136.5">Crypto</text>
        <path fill="#D8D8D8" stroke="#979797" d="M692.5 369.5v149h-249v-149z"/>
        <path stroke="#979797" stroke-linecap="square" d="M693.5 444.5h105"/>
        <text fill="#000" font-family="Helvetica" font-size="24" x="516.496" y="470">system</text>
        <text fill="#000" font-family="Helvetica" font-size="36" x="544.497" y="442">I/O</text>
        <path stroke="#979797" stroke-linecap="square" d="M873.5 222.5v70M999 144.5h313v127"/>
        <rect width="1332" height="698" x="327.5" y=".5" stroke="#979797" rx="8"/>
        <path stroke="#979797" stroke-dasharray="10" stroke-linecap="square" d="M60.5 345.5l267-331"/>
    </g>
</svg>
