<svg width="1182" height="740"
    xmlns="http://www.w3.org/2000/svg">
    <g fill="none" fill-rule="evenodd">
        <rect stroke="#979797" fill="#D8D8D8" x=".5" y=".5" width="539" height="739" rx="8"/>
        <text font-family="Helvetica" font-size="24" fill="#000" x="36.301" y="130">verify AppID</text>
        <text transform="rotate(-90 332 380)" font-family="Helvetica" font-size="24" fill="#000" x="253.268" y="369">hashed AppID,</text>
        <text transform="rotate(-90 332 380)" font-family="Helvetica" font-size="24" fill="#000" x="216.6" y="403">challenge parameters</text>
        <text font-family="Helvetica" font-size="24" fill="#000" x="20.797" y="615">verify presence,</text>
        <text font-family="Helvetica" font-size="24" fill="#000" x="38.117" y="644">load keypair,</text>
        <text font-family="Helvetica" font-size="24" fill="#000" x="5.428" y="673">generate signature</text>
        <path d="M525 94v8h389v3H525v8l-19-9.5 19-9.5zM485.148 130.408L900.3 426.046l4.641-6.516 9.966 18.76-20.987-3.283 4.64-6.517-415.152-295.638 1.74-2.444z" fill="#000" fill-rule="nonzero"/>
        <rect stroke="#000" fill="#D8D8D8" x="299.5" y="67.5" width="206" height="119" rx="8"/>
        <path d="M328 187v370h4l-4.5 9-4.5-9h4V187h1zM460.5 187l4.489 9.006-4-.006-.49 370.5h-1l.49-370.501-4-.005L460.5 187z" fill="#000" fill-rule="nonzero"/>
        <text font-family="Helvetica" font-size="24" fill="#000" x="356.49" y="130">Browser</text>
        <rect stroke="#979797" fill="#FFF" x="299.5" y="565.5" width="206" height="141" rx="8"/>
        <path d="M228.64 636c0-26.71 23.74-38.35 70.895-34.999l.5.036-.072.997-.498-.035c-46.657-3.316-69.824 8.044-69.824 34.001 0 24.437 20.366 36.026 61.395 34.729l-.551.015-.198-3.983 9.212 4.047-8.765 4.942-.2-4.008-.706.022c-40.288 1.027-60.776-10.635-61.181-35.021zM219.5 120.385c0-23.23 26.273-33.3 78.528-30.397l.499.027-.056.999-2.043-.11c-50.713-2.594-75.928 7.293-75.928 29.481 0 21.227 22.896 31.28 68.974 30.008l-.542.013-.16-3.988 9.173 4.135-8.811 4.858-.162-4.006-.86.023c-45.193 1.033-68.15-9.051-68.605-30.393zM422.833 680.167h-12.5v-8.334h-5.583c-2.375 5.042-7.5 8.334-13.167 8.334-8.041 0-14.583-6.542-14.583-14.584 0-8.041 6.542-14.583 14.583-14.583 5.667 0 10.771 3.292 13.167 8.333H427v12.5h-4.167v8.334zM414.5 676h4.167v-8.333h4.166V663.5h-20.958l-.48-1.396c-1.478-4.146-5.416-6.937-9.812-6.937-5.753 0-10.416 4.663-10.416 10.416S385.83 676 391.583 676c4.396 0 8.334-2.792 9.813-6.938l.479-1.395H414.5V676zm-22.917-4.167a6.25 6.25 0 1 1 0-12.5 6.25 6.25 0 0 1 0 12.5zm0-8.333a2.083 2.083 0 1 0 0 4.167 2.083 2.083 0 0 0 0-4.167z" fill="#000" fill-rule="nonzero"/>
        <text font-family="Helvetica" font-size="24" fill="#000" x="386.33" y="606">U2F</text>
        <text font-family="Helvetica" font-size="24" fill="#000" x="379.645" y="635">token</text>
        <text font-family="Helvetica-Bold, Helvetica" font-size="24" font-weight="bold" fill="#000" x="200.787" y="39">User Device</text>
        <rect stroke="#979797" fill="#D8D8D8" x="915" y=".5" width="266" height="530" rx="8"/>
        <text transform="rotate(-90 997.5 357.5)" font-family="Helvetica" font-size="24" fill="#000" x="916.131" y="330">verify signature</text>
        <text transform="rotate(-90 997.5 357.5)" font-family="Helvetica" font-size="24" fill="#000" x="919.465" y="363">with public key</text>
        <text font-family="Helvetica-Bold, Helvetica" font-size="24" font-weight="bold" fill="#000" x="943.639" y="32">Relying Party /</text>
        <text font-family="Helvetica-Bold, Helvetica" font-size="24" font-weight="bold" fill="#000" x="961.182" y="61">Web Server</text>
        <rect stroke="#979797" fill="#FFF" x="915.5" y="635.5" width="266" height="104" rx="8"/>
        <text font-family="Helvetica" font-size="24" fill="#000" x="966.469" y="677">FIDO metadata</text>
        <text font-family="Helvetica" font-size="24" fill="#000" x="1010.49" y="706">service</text>
        <path d="M1093 139c-2.775 0-5 2.225-5 5v25a5 5 0 0 0 5 5h20v12.5l7.5-7.5 7.5 7.5V174h5a5 5 0 0 0 5-5v-25a5 5 0 0 0-5-5h-40zm20 5l7.5 5 7.5-5v8.75l7.5 3.75-7.5 3.75V169l-7.5-5-7.5 5v-8.75l-7.5-3.75 7.5-3.75V144zm-20 0h12.5v5H1093v-5zm0 10h7.5v5h-7.5v-5zm0 10h12.5v5H1093v-5zM1121.5 194l4.5 9h-4v432h-1V203h-4l4.5-9zM979.222 133C966.944 133 957 137.972 957 144.111s9.944 11.111 22.222 11.111 22.222-4.972 22.222-11.11c0-6.14-9.944-11.112-22.222-11.112zM957 149.667V158c0 6.139 9.944 11.111 22.222 11.111s22.222-4.972 22.222-11.111v-8.333c0 6.139-9.944 11.11-22.222 11.11S957 155.807 957 149.668zm0 13.889v8.333c0 6.139 9.944 11.111 22.222 11.111s22.222-4.972 22.222-11.111v-8.333c0 6.138-9.944 11.11-22.222 11.11S957 169.695 957 163.557zM966.636 108.182a4.545 4.545 0 1 1 0-9.091 4.545 4.545 0 0 1 0 9.09zm12.841-9.091c-1.863-5.296-6.909-9.091-12.84-9.091C959.104 90 953 96.105 953 103.636c0 7.532 6.105 13.637 13.636 13.637 5.932 0 10.978-3.796 12.841-9.091h9.887v9.09h9.09v-9.09H1003V99.09h-23.523zM970.636 473.182a4.545 4.545 0 1 1 0-9.091 4.545 4.545 0 0 1 0 9.09zm12.841-9.091c-1.863-5.296-6.909-9.091-12.84-9.091-7.532 0-13.637 6.105-13.637 13.636 0 7.532 6.105 13.637 13.636 13.637 5.932 0 10.978-3.796 12.841-9.091h9.887v9.09h9.09v-9.09H1007v-9.091h-23.523zM978.498 194l4.535 8.983-4.001.015.97 253-1 .004-.97-253.001-4 .016 4.466-9.017zM490.833 680.167h-12.5v-8.334h-5.583c-2.375 5.042-7.5 8.334-13.167 8.334-8.041 0-14.583-6.542-14.583-14.584 0-8.041 6.542-14.583 14.583-14.583 5.667 0 10.771 3.292 13.167 8.333H495v12.5h-4.167v8.334zM482.5 676h4.167v-8.333h4.166V663.5h-20.958l-.48-1.396c-1.478-4.146-5.416-6.937-9.812-6.937-5.753 0-10.416 4.663-10.416 10.416S453.83 676 459.583 676c4.396 0 8.334-2.792 9.813-6.938l.479-1.395H482.5V676zm-22.917-4.167a6.25 6.25 0 1 1 0-12.5 6.25 6.25 0 0 1 0 12.5zm0-8.333a2.083 2.083 0 1 0 0 4.167 2.083 2.083 0 0 0 0-4.167zM352.833 679.167h-12.5v-8.334h-5.583c-2.375 5.042-7.5 8.334-13.167 8.334-8.041 0-14.583-6.542-14.583-14.584 0-8.041 6.542-14.583 14.583-14.583 5.667 0 10.771 3.292 13.167 8.333H357v12.5h-4.167v8.334zM344.5 675h4.167v-8.333h4.166V662.5h-20.958l-.48-1.396c-1.478-4.146-5.416-6.937-9.812-6.937-5.753 0-10.416 4.663-10.416 10.416S315.83 675 321.583 675c4.396 0 8.334-2.792 9.813-6.938l.479-1.395H344.5V675zm-22.917-4.167a6.25 6.25 0 1 1 0-12.5 6.25 6.25 0 0 1 0 12.5zm0-8.333a2.083 2.083 0 1 0 0 4.167 2.083 2.083 0 0 0 0-4.167z" fill="#000" fill-rule="nonzero"/>
        <text transform="rotate(-90 1102 592.5)" font-family="Helvetica" font-size="24" fill="#000" x="1063.305" y="601">Update</text>
        <text font-family="Helvetica" font-size="24" fill="#000" x="614.428" y="91">challenge, AppID,</text>
        <text font-family="Helvetica" font-size="24" fill="#000" x="650.457" y="126">key handle</text>
        <text transform="rotate(36 717 296)" font-family="Helvetica" font-size="24" fill="#000" x="594.252" y="285">client data, key handle,</text>
        <text transform="rotate(36 717 296)" font-family="Helvetica" font-size="24" fill="#000" x="667.635" y="319">signature</text>
        <text transform="rotate(-90 439 380)" font-family="Helvetica" font-size="24" fill="#000" x="343.598" y="386">counter, signature</text>
    </g>
</svg>
