<svg xmlns="http://www.w3.org/2000/svg" width="819" height="637">
    <g fill="none" fill-rule="evenodd">
        <rect width="266" height="530" x=".5" y=".5" fill="#D8D8D8" stroke="#979797" rx="8"/>
        <path fill="#000" fill-rule="nonzero" d="M534 94l19 9.5-19 9.5v-8H286v8l-19-9.5 19-9.5v8h248v-8z"/>
        <rect width="206" height="64" x="26.5" y="67.5" fill="#D8D8D8" stroke="#979797" rx="8"/>
        <path fill="#000" fill-rule="nonzero" d="M131 132v28h4l-4.5 9-4.5-9h4v-28h1z"/>
        <text fill="#000" font-family="Helvetica" font-size="24" x="55.293" y="108">Browser / App</text>
        <rect width="206" height="64" x="26.5" y="168.5" fill="#FFF" stroke="#979797" rx="8"/>
        <path fill="#000" fill-rule="nonzero" d="M130 235v26h4l-4.5 9-4.5-9h4v-26h1z"/>
        <text fill="#000" font-family="Helvetica" font-size="24" x="69.988" y="209">FIDO client</text>
        <rect width="206" height="64" x="26.5" y="269.5" fill="#FFF" stroke="#979797" rx="8"/>
        <path fill="#000" fill-rule="nonzero" d="M130 334v28h4l-4.5 9-4.5-9h4v-28h1z"/>
        <rect width="206" height="141" x="26.5" y="370.5" fill="#FFF" stroke="#979797" rx="8"/>
        <path fill="#000" fill-rule="nonzero" d="M149.833 485.167h-12.5v-8.334h-5.583c-2.375 5.042-7.5 8.334-13.167 8.334-8.041 0-14.583-6.542-14.583-14.584 0-8.041 6.542-14.583 14.583-14.583 5.667 0 10.771 3.292 13.167 8.333H154v12.5h-4.167v8.334zM141.5 481h4.167v-8.333h4.166V468.5h-20.958l-.48-1.396c-1.478-4.146-5.416-6.937-9.812-6.937-5.753 0-10.416 4.663-10.416 10.416S112.83 481 118.583 481c4.396 0 8.334-2.792 9.813-6.938l.479-1.395H141.5V481zm-22.917-4.167a6.25 6.25 0 1 1 0-12.5 6.25 6.25 0 0 1 0 12.5zm0-8.333a2.083 2.083 0 1 0 0 4.167 2.083 2.083 0 0 0 0-4.167z"/>
        <text fill="#000" font-family="Helvetica" font-size="24" x="101.336" y="411">FIDO</text>
        <text fill="#000" font-family="Helvetica" font-size="24" x="59.289" y="440">Authenticator</text>
        <text fill="#000" font-family="Helvetica" font-size="24" x="103.996" y="310">ASM</text>
        <text fill="#000" font-family="Helvetica" font-size="24" x="12.143" y="36">User device</text>
        <rect width="266" height="427" x="552.5" y=".5" fill="#D8D8D8" stroke="#979797" rx="8"/>
        <text fill="#000" font-family="Helvetica" font-size="24" x="568.469" y="30">Relying party</text>
        <rect width="266" height="104" x="552.5" y="532.5" fill="#FFF" stroke="#979797" rx="8"/>
        <text fill="#000" font-family="Helvetica" font-size="24" x="603.469" y="585">FIDO metadata</text>
        <text fill="#000" font-family="Helvetica" font-size="24" x="647.49" y="614">service</text>
        <rect width="224" height="236" x="573.5" y="173.5" fill="#FFF" stroke="#979797" rx="8"/>
        <text fill="#000" font-family="Helvetica" font-size="24" x="616.162" y="220">FIDO server</text>
        <path fill="#000" fill-rule="nonzero" d="M730 266c-2.775 0-5 2.225-5 5v25a5 5 0 0 0 5 5h20v12.5l7.5-7.5 7.5 7.5V301h5a5 5 0 0 0 5-5v-25a5 5 0 0 0-5-5h-40zm20 5l7.5 5 7.5-5v8.75l7.5 3.75-7.5 3.75V296l-7.5-5-7.5 5v-8.75l-7.5-3.75 7.5-3.75V271zm-20 0h12.5v5H730v-5zm0 10h7.5v5H730v-5zm0 10h12.5v5H730v-5zM758.5 316l4.5 9h-4v207h-1V325h-4l4.5-9z"/>
        <rect width="224" height="64" x="573.5" y="67.5" fill="#D8D8D8" stroke="#979797" rx="8"/>
        <path fill="#000" fill-rule="nonzero" d="M686 132v33h4l-4.5 9-4.5-9h4v-33h1z"/>
        <text fill="#000" font-family="Helvetica" font-size="24" x="624.363" y="108">Web server</text>
        <path fill="#000" fill-rule="nonzero" d="M616.222 260C603.944 260 594 264.972 594 271.111s9.944 11.111 22.222 11.111 22.222-4.972 22.222-11.11c0-6.14-9.944-11.112-22.222-11.112zM594 276.667V285c0 6.139 9.944 11.111 22.222 11.111s22.222-4.972 22.222-11.111v-8.333c0 6.139-9.944 11.11-22.222 11.11S594 282.807 594 276.668zm0 13.889v8.333c0 6.139 9.944 11.111 22.222 11.111s22.222-4.972 22.222-11.111v-8.333c0 6.138-9.944 11.11-22.222 11.11S594 296.695 594 290.557zM604.636 339.182a4.545 4.545 0 1 1 0-9.091 4.545 4.545 0 0 1 0 9.09zm12.841-9.091c-1.863-5.296-6.909-9.091-12.84-9.091-7.532 0-13.637 6.105-13.637 13.636 0 7.532 6.105 13.637 13.636 13.637 5.932 0 10.978-3.796 12.841-9.091h9.887v9.09h9.09v-9.09H641v-9.091h-23.523zM604.636 377.182a4.545 4.545 0 1 1 0-9.091 4.545 4.545 0 0 1 0 9.09zm12.841-9.091c-1.863-5.296-6.909-9.091-12.84-9.091-7.532 0-13.637 6.105-13.637 13.636 0 7.532 6.105 13.637 13.636 13.637 5.932 0 10.978-3.796 12.841-9.091h9.887v9.09h9.09v-9.09H641v-9.091h-23.523zM217.833 485.167h-12.5v-8.334h-5.583c-2.375 5.042-7.5 8.334-13.167 8.334-8.041 0-14.583-6.542-14.583-14.584 0-8.041 6.542-14.583 14.583-14.583 5.667 0 10.771 3.292 13.167 8.333H222v12.5h-4.167v8.334zM209.5 481h4.167v-8.333h4.166V468.5h-20.958l-.48-1.396c-1.478-4.146-5.416-6.937-9.812-6.937-5.753 0-10.416 4.663-10.416 10.416S180.83 481 186.583 481c4.396 0 8.334-2.792 9.813-6.938l.479-1.395H209.5V481zm-22.917-4.167a6.25 6.25 0 1 1 0-12.5 6.25 6.25 0 0 1 0 12.5zm0-8.333a2.083 2.083 0 1 0 0 4.167 2.083 2.083 0 0 0 0-4.167zM79.833 484.167h-12.5v-8.334H61.75c-2.375 5.042-7.5 8.334-13.167 8.334-8.041 0-14.583-6.542-14.583-14.584C34 461.542 40.542 455 48.583 455c5.667 0 10.771 3.292 13.167 8.333H84v12.5h-4.167v8.334zM71.5 480h4.167v-8.333h4.166V467.5H58.875l-.48-1.396c-1.478-4.146-5.416-6.937-9.812-6.937-5.753 0-10.416 4.663-10.416 10.416S42.83 480 48.583 480c4.396 0 8.334-2.792 9.813-6.938l.479-1.395H71.5V480zm-22.917-4.167a6.25 6.25 0 1 1 0-12.5 6.25 6.25 0 0 1 0 12.5zm0-8.333a2.083 2.083 0 1 0 0 4.167 2.083 2.083 0 0 0 0-4.167z"/>
        <text fill="#000" font-family="Helvetica" font-size="24" transform="rotate(-90 739 484.5)" x="700.305" y="493">Update</text>
    </g>
</svg>
