<?xml version="1.0" encoding="UTF-8"?>
<svg width="633px" height="811px" viewBox="0 0 633 811" version="1.1" xmlns="http://www.w3.org/2000/svg" xmlns:xlink="http://www.w3.org/1999/xlink">
    <!-- Generator: Sketch 52.2 (67145) - http://www.bohemiancoding.com/sketch -->
    <title>hero-mosaic-vector-uncropped</title>
    <desc>Created with Sketch.</desc>
    <defs>
        <polygon id="path-1" points="0.643587166 0.604216216 65.7088826 0.604216216 65.7088826 54 0.643587166 54"></polygon>
        <polygon id="path-3" points="0 81 95 81 95 0 0 0"></polygon>
        <polygon id="path-5" points="0.643587166 0.604216216 65.7088826 0.604216216 65.7088826 54 0.643587166 54"></polygon>
        <polygon id="path-7" points="0 81 95 81 95 0 0 0"></polygon>
        <polygon id="path-9" points="0 88 82 88 82 0 0 0"></polygon>
        <polygon id="path-11" points="0 0 89 0 89 200 0 200"></polygon>
        <polygon id="path-13" points="0 0 89 0 89 200 0 200"></polygon>
        <polygon id="path-15" points="0 0.00116712904 135.140188 0.00116712904 135.140188 314 0 314"></polygon>
        <polygon id="path-17" points="0 0.00116712904 135.140188 0.00116712904 135.140188 314 0 314"></polygon>
        <polygon id="path-19" points="0 0.00116712904 135.140188 0.00116712904 135.140188 314 0 314"></polygon>
        <polygon id="path-21" points="0 0.00121309513 139.156935 0.00121309513 139.156935 327.157649 0 327.157649"></polygon>
    </defs>
    <g id="wireframes" stroke="none" stroke-width="1" fill="none" fill-rule="evenodd" opacity="0.2">
        <g id="Artboard" transform="translate(-56.000000, -13.000000)">
            <g id="hero-mosaic-vector-uncropped" transform="translate(52.000000, -6.000000)">
                <g id="Group-8" transform="translate(62.578950, 321.405832) rotate(-45.000000) translate(-62.578950, -321.405832) translate(15.078950, 280.405832)">
                    <path d="M5.38277221,26 L1,25.9794608 L1.06739382,11.4677775 C1.09420641,5.65958312 5.75380054,0.972976197 11.4735792,1.00011729 L84.6900788,1.34928381 C90.4113068,1.37642491 95.0266964,6.10704442 94.9998838,11.9159723 L94.9346639,26 L5.38277221,26 Z" id="Stroke-1" stroke="#FFFFFF" stroke-width="2.321"></path>
                    <g id="Group-5" transform="translate(15.000000, 28.000000)">
                        <mask id="mask-2" fill="white">
                            <use xlink:href="#path-1"></use>
                        </mask>
                        <g id="Clip-4"></g>
                        <path d="M65.7088826,0.604216216 L65.4922304,48.8327838 C65.4800348,51.6998919 63.2482304,54.0131351 60.5092304,54 L5.58073043,53.73 C2.84029565,53.7168649 0.630730435,51.381 0.643643478,48.5138919 L0.858143478,0.604216216 L65.7088826,0.604216216 Z" id="Fill-3" fill="#FFFFFF" mask="url(#mask-2)"></path>
                    </g>
                    <mask id="mask-4" fill="white">
                        <use xlink:href="#path-3"></use>
                    </mask>
                    <g id="Clip-7"></g>
                    <polygon id="Fill-6" fill="#FFFFFF" mask="url(#mask-4)" points="34 18 61 18 61 14 34 14"></polygon>
                </g>
                <g id="Group-8-Copy" transform="translate(510.578950, 529.405832) rotate(-135.000000) translate(-510.578950, -529.405832) translate(463.078950, 488.405832)">
                    <path d="M5.38277221,26 L1,25.9794608 L1.06739382,11.4677775 C1.09420641,5.65958312 5.75380054,0.972976197 11.4735792,1.00011729 L84.6900788,1.34928381 C90.4113068,1.37642491 95.0266964,6.10704442 94.9998838,11.9159723 L94.9346639,26 L5.38277221,26 Z" id="Stroke-1" stroke="#FFFFFF" stroke-width="2.321"></path>
                    <g id="Group-5" transform="translate(15.000000, 28.000000)">
                        <mask id="mask-6" fill="white">
                            <use xlink:href="#path-5"></use>
                        </mask>
                        <g id="Clip-4"></g>
                        <path d="M65.7088826,0.604216216 L65.4922304,48.8327838 C65.4800348,51.6998919 63.2482304,54.0131351 60.5092304,54 L5.58073043,53.73 C2.84029565,53.7168649 0.630730435,51.381 0.643643478,48.5138919 L0.858143478,0.604216216 L65.7088826,0.604216216 Z" id="Fill-3" fill="#FFFFFF" mask="url(#mask-6)"></path>
                    </g>
                    <mask id="mask-8" fill="white">
                        <use xlink:href="#path-7"></use>
                    </mask>
                    <g id="Clip-7"></g>
                    <polygon id="Fill-6" fill="#FFFFFF" mask="url(#mask-8)" points="34 18 61 18 61 14 34 14"></polygon>
                </g>
                <g id="Group-8" transform="translate(306.131944, 511.884782) rotate(-46.000000) translate(-306.131944, -511.884782) translate(265.131944, 467.884782)">
                    <path d="M36.236501,9.34293587 L35.5187418,9.26275276 C34.5625909,9.15562813 33.8474159,8.35828729 33.8551685,7.40763635 C33.862921,6.45762687 34.5916631,5.6718324 35.5497521,5.58138586 L36.2681573,5.51274911 L44.2785052,5.57946146 L44.2778591,5.62692986 L45.7792744,5.63975916 C46.8110129,5.64745674 47.6431226,6.49290744 47.63537,7.52245856 C47.6263254,8.54367064 46.7871092,9.37500911 45.7650614,9.37500911 L44.275921,9.37500911 L44.2746289,9.40964821 L36.236501,9.34293587 Z M39.9680736,0 C29.0802285,0 13.8838899,1.13667575 6.5137755,10.8067587 L2.2350003,10.8067587 C1.31632019,10.8067587 0.563028348,11.5482921 0.555921821,12.4591722 L0.000320631317,78.5287712 C-0.0410264339,83.4186579 3.92183135,87.4297377 8.83373349,87.4707915 L72.4610525,88 L72.5366401,88 C77.4078412,88 81.4030014,84.0556325 81.4443485,79.2061581 L81.9999497,12.8735585 C82.0070562,11.9543394 81.2608709,11.2006181 80.3363763,11.193562 L73.9204747,11.1403204 C62.1824305,0.0545245142 49.6355343,0.0230927354 40.4435649,0.000641464873 L39.9680736,0 Z M45.7359892,10.9100346 L45.7359892,10.8632076 L45.7650614,10.8632076 C47.6127584,10.8632076 49.11805,9.37949937 49.1342012,7.53528786 C49.1490603,5.68145438 47.6534594,4.16631435 45.7921954,4.15091919 L45.7928415,4.10345079 L35.4076215,4.01685303 L35.4069755,4.09896054 C33.7098077,4.26060968 32.3711964,5.66028604 32.3556913,7.39544852 C32.3421243,9.130611 33.6568318,10.5527386 35.3507693,10.7419708 L35.3501233,10.8240783 L45.7359892,10.9100346 Z M39.9680736,1.4881985 C40.1276475,1.4881985 40.2846371,1.4881985 40.4396886,1.48883997 C50.5270804,1.5138571 62.1998738,1.84934323 73.3106055,12.6233872 L80.3234554,12.6817605 C80.4223007,12.682402 80.5017646,12.7625851 80.5011185,12.8607292 L79.9448713,79.1939702 C79.9112768,83.2480282 76.6002814,86.5118015 72.5366401,86.5118015 L72.4739735,86.5118015 L8.84665445,85.982593 C4.75458709,85.9485953 1.46555726,82.6168268 1.49915175,78.5416005 L2.05539898,12.4713601 C2.05604503,12.3738574 2.13615497,12.2955987 2.2337082,12.2955987 L2.2350003,12.2955987 L7.27805016,12.2955987 C14.3160959,2.23550508 30.6029634,1.4881985 39.9680736,1.4881985 Z" id="Fill-1" fill="#FFFFFF"></path>
                    <mask id="mask-10" fill="white">
                        <use xlink:href="#path-9"></use>
                    </mask>
                    <g id="Clip-4"></g>
                    <polygon id="Fill-3" fill="#FFFFFF" mask="url(#mask-10)" points="57 81 75 81 75 33 57 33"></polygon>
                    <polygon id="Fill-5" fill="#FFFFFF" mask="url(#mask-10)" points="6 81 24 81 24 33 6 33"></polygon>
                    <polygon id="Fill-6" fill="#FFFFFF" mask="url(#mask-10)" points="28 76 39 76 39 33 28 33"></polygon>
                    <polygon id="Fill-7" fill="#FFFFFF" mask="url(#mask-10)" points="43 76 54 76 54 33 43 33"></polygon>
                </g>
                <g id="Group-3" transform="translate(439.176930, 636.003812) rotate(135.000000) translate(-439.176930, -636.003812) translate(394.676930, 536.003812)">
                    <mask id="mask-12" fill="white">
                        <use xlink:href="#path-11"></use>
                    </mask>
                    <g id="Clip-2"></g>
                    <path d="M61.1453216,41.6977232 C61.1453216,32.2704119 53.4978409,24.6274025 44.0635594,24.6274025 C34.6299294,24.6274025 26.9817973,32.2704119 26.9817973,41.6977232 C26.9817973,51.1250346 34.6299294,58.768044 44.0635594,58.768044 C53.4978409,58.768044 61.1453216,51.1250346 61.1453216,41.6977232 M15.650628,197.025729 L15.650628,152.582225 L5.29005036,152.582225 C3.64655854,152.582225 2.31443774,151.250997 2.31443774,149.608606 L2.31443774,89.6115351 C0.990133794,89.3101372 0,88.131235 0,86.7166827 L0,65.9006949 C0,64.4861425 0.990133794,63.3072404 2.31443774,63.0058424 L2.31443774,42.1390792 L2.34896215,42.1390792 C2.34765934,41.9913096 2.33853968,41.8461438 2.33853968,41.6977232 C2.33853968,18.6690969 21.0188468,0 44.0635594,0 C67.1076207,0 85.7892306,18.6690969 85.7892306,41.6977232 C85.7892306,41.8461438 85.7794596,41.9913096 85.7775053,42.1390792 L85.8126811,42.1390792 L85.8126811,62.9264244 L86.023736,62.9264244 C87.6678792,62.9264244 89,64.2576529 89,65.9006949 L89,86.7166827 C89,88.3597246 87.6678792,89.6909532 86.023736,89.6909532 L85.8126811,89.6909532 L85.8126811,149.608606 C85.8126811,151.250997 84.4805604,152.582225 82.8370685,152.582225 L71.7254223,152.582225 L71.7254223,197.025729 C71.7254223,198.668771 70.3933015,200 68.7498097,200 L18.626892,200 C16.9827488,200 15.650628,198.668771 15.650628,197.025729" id="Fill-1" fill="#FFFFFF" mask="url(#mask-12)"></path>
                </g>
                <g id="Group-3-Copy" transform="translate(117.176930, 197.003812) rotate(-45.000000) translate(-117.176930, -197.003812) translate(72.676930, 97.003812)">
                    <mask id="mask-14" fill="white">
                        <use xlink:href="#path-13"></use>
                    </mask>
                    <g id="Clip-2"></g>
                    <path d="M61.1453216,41.6977232 C61.1453216,32.2704119 53.4978409,24.6274025 44.0635594,24.6274025 C34.6299294,24.6274025 26.9817973,32.2704119 26.9817973,41.6977232 C26.9817973,51.1250346 34.6299294,58.768044 44.0635594,58.768044 C53.4978409,58.768044 61.1453216,51.1250346 61.1453216,41.6977232 M15.650628,197.025729 L15.650628,152.582225 L5.29005036,152.582225 C3.64655854,152.582225 2.31443774,151.250997 2.31443774,149.608606 L2.31443774,89.6115351 C0.990133794,89.3101372 0,88.131235 0,86.7166827 L0,65.9006949 C0,64.4861425 0.990133794,63.3072404 2.31443774,63.0058424 L2.31443774,42.1390792 L2.34896215,42.1390792 C2.34765934,41.9913096 2.33853968,41.8461438 2.33853968,41.6977232 C2.33853968,18.6690969 21.0188468,0 44.0635594,0 C67.1076207,0 85.7892306,18.6690969 85.7892306,41.6977232 C85.7892306,41.8461438 85.7794596,41.9913096 85.7775053,42.1390792 L85.8126811,42.1390792 L85.8126811,62.9264244 L86.023736,62.9264244 C87.6678792,62.9264244 89,64.2576529 89,65.9006949 L89,86.7166827 C89,88.3597246 87.6678792,89.6909532 86.023736,89.6909532 L85.8126811,89.6909532 L85.8126811,149.608606 C85.8126811,151.250997 84.4805604,152.582225 82.8370685,152.582225 L71.7254223,152.582225 L71.7254223,197.025729 C71.7254223,198.668771 70.3933015,200 68.7498097,200 L18.626892,200 C16.9827488,200 15.650628,198.668771 15.650628,197.025729" id="Fill-1" fill="#FFFFFF" mask="url(#mask-14)"></path>
                </g>
                <g id="Group-6" transform="translate(481.099026, 337.925908) rotate(-315.000000) translate(-481.099026, -337.925908) translate(413.099026, 180.925908)">
                    <g id="Group-3">
                        <mask id="mask-16" fill="white">
                            <use xlink:href="#path-15"></use>
                        </mask>
                        <g id="Clip-2"></g>
                        <path d="M69.0640859,164.788738 C88.1049987,164.8186 103.567012,149.540283 103.597133,130.662277 C103.628166,111.785176 88.2163544,96.4570899 69.1754416,96.4272282 C50.1336161,96.3964617 34.6725154,111.675684 34.6423946,130.552784 C34.6113611,149.429885 50.0231732,164.758877 69.0640859,164.788738 Z M69.3004886,19.328917 C60.9716295,19.3153435 54.2090523,25.9989285 54.1953611,34.2561331 C54.1816698,42.5124329 60.9232537,49.2168305 69.2521128,49.230404 C77.5800591,49.2439775 84.3426362,42.5612974 84.3563275,34.3040928 C84.3700188,26.0468882 77.6293477,19.3424905 69.3004886,19.328917 Z M0.364005369,7.22860576 C0.371307383,3.24614467 3.66268993,-0.00515792507 7.67879732,0.00117636888 L127.849858,0.192110086 C131.866878,0.19844438 135.146395,3.46151066 135.140918,7.44306686 L134.775817,232.230871 C134.769428,236.212427 131.478046,239.464635 127.461938,239.459205 L112.823227,239.434773 L112.714609,306.771937 C112.707307,310.770686 109.43418,314.005701 105.401643,314.000271 L29.1102067,313.87811 C25.076757,313.871776 21.812757,310.625903 21.8191463,306.627153 L21.9286765,239.289989 L7.2899651,239.267367 C3.27385772,239.261032 -0.00657181208,235.997061 -0.000182550336,232.01641 L0.364005369,7.22860576 Z" id="Fill-1" fill="#FFFFFF" mask="url(#mask-16)"></path>
                    </g>
                    <polygon id="Fill-4" fill="#FFFFFF" points="68.7203704 133.614588 73.662037 121.01147 81 121 68.7888889 147.987647 61.0490741 148 64.5805556 140.519656 56 121.03794 63.4916667 121.02647"></polygon>
                </g>
                <g id="Group-6-Copy" transform="translate(280.099026, 688.925908) rotate(-405.000000) translate(-280.099026, -688.925908) translate(212.099026, 531.925908)">
                    <g id="Group-3">
                        <mask id="mask-18" fill="white">
                            <use xlink:href="#path-17"></use>
                        </mask>
                        <g id="Clip-2"></g>
                        <path d="M69.0640859,164.788738 C88.1049987,164.8186 103.567012,149.540283 103.597133,130.662277 C103.628166,111.785176 88.2163544,96.4570899 69.1754416,96.4272282 C50.1336161,96.3964617 34.6725154,111.675684 34.6423946,130.552784 C34.6113611,149.429885 50.0231732,164.758877 69.0640859,164.788738 Z M69.3004886,19.328917 C60.9716295,19.3153435 54.2090523,25.9989285 54.1953611,34.2561331 C54.1816698,42.5124329 60.9232537,49.2168305 69.2521128,49.230404 C77.5800591,49.2439775 84.3426362,42.5612974 84.3563275,34.3040928 C84.3700188,26.0468882 77.6293477,19.3424905 69.3004886,19.328917 Z M0.364005369,7.22860576 C0.371307383,3.24614467 3.66268993,-0.00515792507 7.67879732,0.00117636888 L127.849858,0.192110086 C131.866878,0.19844438 135.146395,3.46151066 135.140918,7.44306686 L134.775817,232.230871 C134.769428,236.212427 131.478046,239.464635 127.461938,239.459205 L112.823227,239.434773 L112.714609,306.771937 C112.707307,310.770686 109.43418,314.005701 105.401643,314.000271 L29.1102067,313.87811 C25.076757,313.871776 21.812757,310.625903 21.8191463,306.627153 L21.9286765,239.289989 L7.2899651,239.267367 C3.27385772,239.261032 -0.00657181208,235.997061 -0.000182550336,232.01641 L0.364005369,7.22860576 Z" id="Fill-1" fill="#FFFFFF" mask="url(#mask-18)"></path>
                    </g>
                    <polygon id="Fill-4" fill="#FFFFFF" points="68.7203704 133.614588 73.662037 121.01147 81 121 68.7888889 147.987647 61.0490741 148 64.5805556 140.519656 56 121.03794 63.4916667 121.02647"></polygon>
                </g>
                <g id="Group-6-Copy-2" transform="translate(296.976471, 161.000000) rotate(-584.000000) translate(-296.976471, -161.000000) translate(228.976471, 4.000000)">
                    <g id="Group-3">
                        <mask id="mask-20" fill="white">
                            <use xlink:href="#path-19"></use>
                        </mask>
                        <g id="Clip-2"></g>
                        <path d="M69.0640859,164.788738 C88.1049987,164.8186 103.567012,149.540283 103.597133,130.662277 C103.628166,111.785176 88.2163544,96.4570899 69.1754416,96.4272282 C50.1336161,96.3964617 34.6725154,111.675684 34.6423946,130.552784 C34.6113611,149.429885 50.0231732,164.758877 69.0640859,164.788738 Z M69.3004886,19.328917 C60.9716295,19.3153435 54.2090523,25.9989285 54.1953611,34.2561331 C54.1816698,42.5124329 60.9232537,49.2168305 69.2521128,49.230404 C77.5800591,49.2439775 84.3426362,42.5612974 84.3563275,34.3040928 C84.3700188,26.0468882 77.6293477,19.3424905 69.3004886,19.328917 Z M0.364005369,7.22860576 C0.371307383,3.24614467 3.66268993,-0.00515792507 7.67879732,0.00117636888 L127.849858,0.192110086 C131.866878,0.19844438 135.146395,3.46151066 135.140918,7.44306686 L134.775817,232.230871 C134.769428,236.212427 131.478046,239.464635 127.461938,239.459205 L112.823227,239.434773 L112.714609,306.771937 C112.707307,310.770686 109.43418,314.005701 105.401643,314.000271 L29.1102067,313.87811 C25.076757,313.871776 21.812757,310.625903 21.8191463,306.627153 L21.9286765,239.289989 L7.2899651,239.267367 C3.27385772,239.261032 -0.00657181208,235.997061 -0.000182550336,232.01641 L0.364005369,7.22860576 Z" id="Fill-1" fill="#FFFFFF" mask="url(#mask-20)"></path>
                    </g>
                    <polygon id="Fill-4" fill="#FFFFFF" points="68.7203704 133.614588 73.662037 121.01147 81 121 68.7888889 147.987647 61.0490741 148 64.5805556 140.519656 56 121.03794 63.4916667 121.02647"></polygon>
                </g>
                <g id="Group-8" transform="translate(171.462987, 433.289869) rotate(-135.000000) translate(-171.462987, -433.289869) translate(101.462987, 269.289869)">
                    <g id="Group-3">
                        <mask id="mask-22" fill="white">
                            <use xlink:href="#path-21"></use>
                        </mask>
                        <g id="Clip-2"></g>
                        <path d="M68.0402578,171.693937 C48.4324556,171.725993 32.5127474,155.80652 32.4807914,136.138406 C32.4488355,116.469349 48.31873,100.498964 67.9255923,100.467851 C87.5333944,100.435795 103.454043,116.355268 103.485059,136.023382 C103.517015,155.691497 87.6471201,171.661881 68.0402578,171.693937 Z M67.7968285,20.1388632 C76.3732447,20.1256637 83.3368248,27.0883705 83.350923,35.6915795 C83.3650212,44.2947886 76.4230585,51.280123 67.8466422,51.2933224 C59.270226,51.3074647 52.3075859,44.3447579 52.2934877,35.7415489 C52.2793895,27.1383398 59.2213522,20.1530054 67.7968285,20.1388632 Z M138.782298,7.53056567 C138.774779,3.38216897 135.385567,-0.00631687679 131.25103,0.00122566266 L7.50720732,0.200160141 C3.37172992,0.206759863 -0.0062032161,3.60655952 -0.000563928737,7.75495622 L0.375388562,241.96212 C0.381967731,246.110517 3.77117944,249.499003 7.90665684,249.492403 L22.980472,249.46789 L23.0923178,319.627649 C23.098897,323.793016 26.470251,327.164531 30.6235861,327.157932 L109.182619,327.030651 C113.335014,327.024052 116.696029,323.642165 116.68945,319.476798 L116.576664,249.317039 L131.650479,249.293468 C135.785957,249.285926 139.16389,245.886126 139.157311,241.73773 L138.782298,7.53056567 Z" id="Fill-1" fill="#FFFFFF" mask="url(#mask-22)"></path>
                    </g>
                    <path d="M67.1734603,134.020419 L49.4266951,152.046193 L52.0229077,154.682264 L55.482951,151.166864 L59.5925195,155.341042 L62.187788,152.704971 L58.0782195,148.530793 L59.8087132,146.773093 L62.187788,149.189571 L64.7840006,146.553501 L62.4039817,144.137023 L69.7687288,136.657448 C73.5780807,139.353931 78.7638973,139.165024 82.3778252,136.084973 L80.2036152,133.875622 C77.3232354,136.151139 73.1617426,135.950724 70.5154939,133.261913 C67.8683012,130.574061 67.670989,126.347142 69.9112845,123.421478 L67.7361304,121.213086 C64.7037541,124.883831 64.5177708,130.151177 67.1734603,134.020419" id="Fill-4" fill="#FFFFFF"></path>
                    <path d="M70.1398452,119.555447 L72.2393251,121.655031 C75.0185846,119.492569 79.0362092,119.683026 81.5903942,122.237337 C84.1454905,124.79256 84.3359381,128.809472 82.1735831,131.589781 L84.273063,133.688453 C87.5817486,129.744443 87.3867449,123.8585 83.6780281,120.1496 C79.9693114,116.441611 74.0836599,116.246598 70.1398452,119.555447" id="Fill-6" fill="#FFFFFF"></path>
                </g>
            </g>
        </g>
    </g>
</svg>