<?xml version="1.0" encoding="utf-8"?>
<!-- Generator: Adobe Illustrator 16.0.0, SVG Export Plug-In . SVG Version: 6.00 Build 0)  -->
<!DOCTYPE svg PUBLIC "-//W3C//DTD SVG 1.1//EN" "http://www.w3.org/Graphics/SVG/1.1/DTD/svg11.dtd">
<svg version="1.1" id="Layer_1" xmlns="http://www.w3.org/2000/svg" xmlns:xlink="http://www.w3.org/1999/xlink" x="0px" y="0px"
	 width="125.438px" height="20.688px" viewBox="0 0 125.438 20.688" enable-background="new 0 0 125.438 20.688"
	 xml:space="preserve">
<g>
	<g>
		<path fill="#515559" d="M41.549,3.848c-0.187-0.347-0.521-0.545-0.917-0.545c-0.419,0-0.78,0.214-0.942,0.559l-5.579,10.992
			l-0.008,0.016c-0.137,0.304-0.117,0.62,0.056,0.888c0.196,0.303,0.57,0.498,0.954,0.498c0.387,0,0.717-0.2,0.876-0.53l1.394-2.719
			h6.496l1.337,2.656c0.173,0.355,0.527,0.566,0.948,0.566c0.417,0,0.804-0.207,0.985-0.525c0.158-0.281,0.145-0.606-0.039-0.917
			L41.549,3.848z M42.937,11.102h-4.625l2.32-4.625L42.937,11.102z"/>
		<path fill="#515559" d="M65.691,3.416c-0.518,0-1.068,0.369-1.068,1.051v6.062c0,2.498-1.916,3.637-3.696,3.637
			c-1.78,0-3.696-1.139-3.696-3.637V4.467c0-0.653-0.538-0.996-1.069-0.996c-0.612,0-1.057,0.412-1.057,0.977v6.081
			c0,3.749,2.93,5.71,5.822,5.71c2.894,0,5.823-1.961,5.823-5.71V4.448C66.75,3.778,66.205,3.416,65.691,3.416z"/>
		<path fill="#515559" d="M85.545,3.598h-9.572c-0.664,0-1.021,0.52-1.021,1.007c0,0.488,0.357,1.007,1.021,1.007h3.732v9.667
			c0,0.684,0.533,1.053,1.035,1.053c0.527,0,1.072-0.394,1.072-1.053c0-1.664-0.004-3.342-0.01-5.019
			c-0.004-1.553-0.008-3.105-0.008-4.647h3.75c0.684,0,1.051-0.519,1.051-1.007C86.596,4.118,86.229,3.598,85.545,3.598z"/>
		<path fill="#515559" d="M103.982,3.395c-0.506,0-1.043,0.363-1.043,1.035v4.676h-6.062V4.43c0-0.668-0.543-1.028-1.051-1.028
			s-1.02,0.353-1.02,1.028v10.775c0,0.309,0.123,0.586,0.346,0.782c0.195,0.173,0.451,0.267,0.719,0.267
			c0.5,0,1.006-0.359,1.006-1.049V11.01h6.062v4.195c0,0.406,0.176,0.656,0.324,0.793c0.189,0.174,0.441,0.27,0.709,0.27l0,0
			c0.512,0,1.055-0.372,1.055-1.062V4.43C105.027,3.758,104.488,3.395,103.982,3.395z"/>
		<path fill="#515559" d="M125.057,3.945c-0.176-0.322-0.539-0.531-0.926-0.531c-0.352,0-0.666,0.171-0.867,0.47l-3.928,5.317
			l-3.877-5.299c-0.207-0.302-0.529-0.475-0.889-0.475c-0.418,0-0.818,0.237-0.994,0.589c-0.16,0.322-0.117,0.688,0.121,1.005
			l4.602,6.093v4.016c0,0.621,0.432,1.055,1.053,1.055c0.512,0,1.055-0.371,1.055-1.055v-4.018l4.564-6.13l0.016-0.021
			C125.201,4.628,125.227,4.257,125.057,3.945z"/>
	</g>
	<g>
		<path fill="#C4161C" d="M11.769,6.543l4.344,4.344c0.628,0.628,1.646,0.627,2.273,0c0.628-0.628,0.629-1.646,0-2.274l-4.344-4.344
			C10.934,1.16,5.91,1.109,2.736,4.111C2.707,4.136,2.678,4.161,2.65,4.188C2.637,4.202,2.625,4.216,2.611,4.23
			C2.598,4.243,2.583,4.255,2.57,4.269C2.542,4.296,2.518,4.325,2.493,4.354C-0.509,7.529-0.458,12.553,2.65,15.66l4.344,4.344
			c0.628,0.629,1.645,0.629,2.273,0c0.628-0.627,0.628-1.646,0-2.273l-4.344-4.344c-1.896-1.896-1.908-4.971-0.039-6.883
			C6.797,4.635,9.873,4.647,11.769,6.543z"/>
		<path fill="#EC1C24" d="M17.375,0.758c-0.628,0.628-0.628,1.646,0,2.274l4.344,4.343c1.896,1.896,1.907,4.971,0.039,6.885
			c-1.912,1.867-4.987,1.855-6.883-0.041l-4.344-4.343c-0.628-0.627-1.647-0.627-2.274,0c-0.628,0.628-0.628,1.647,0,2.275
			l4.344,4.344c3.109,3.108,8.133,3.159,11.306,0.156c0.029-0.023,0.059-0.049,0.086-0.076c0.013-0.014,0.026-0.027,0.039-0.041
			c0.014-0.014,0.028-0.026,0.042-0.039c0.027-0.028,0.051-0.057,0.076-0.086c3.002-3.175,2.952-8.198-0.157-11.307L19.65,0.758
			C19.021,0.13,18.003,0.13,17.375,0.758z"/>
	</g>
	<g>
		<path fill="#515559" d="M41.549,3.848c-0.187-0.347-0.521-0.545-0.917-0.545c-0.419,0-0.78,0.214-0.942,0.559l-5.579,10.992
			l-0.008,0.016c-0.137,0.304-0.117,0.62,0.056,0.888c0.196,0.303,0.57,0.498,0.954,0.498c0.387,0,0.717-0.2,0.876-0.53l1.394-2.719
			h6.496l1.337,2.656c0.173,0.355,0.527,0.566,0.948,0.566c0.417,0,0.804-0.207,0.985-0.525c0.158-0.281,0.145-0.606-0.039-0.917
			L41.549,3.848z M42.937,11.102h-4.625l2.32-4.625L42.937,11.102z"/>
		<path fill="#515559" d="M65.691,3.416c-0.518,0-1.068,0.369-1.068,1.051v6.062c0,2.498-1.916,3.637-3.696,3.637
			c-1.78,0-3.696-1.139-3.696-3.637V4.467c0-0.653-0.538-0.996-1.069-0.996c-0.612,0-1.057,0.412-1.057,0.977v6.081
			c0,3.749,2.93,5.71,5.822,5.71c2.894,0,5.823-1.961,5.823-5.71V4.448C66.75,3.778,66.205,3.416,65.691,3.416z"/>
		<path fill="#515559" d="M85.545,3.598h-9.572c-0.664,0-1.021,0.52-1.021,1.007c0,0.488,0.357,1.007,1.021,1.007h3.732v9.667
			c0,0.684,0.533,1.053,1.035,1.053c0.527,0,1.072-0.394,1.072-1.053c0-1.664-0.004-3.342-0.01-5.019
			c-0.004-1.553-0.008-3.105-0.008-4.647h3.75c0.684,0,1.051-0.519,1.051-1.007C86.596,4.118,86.229,3.598,85.545,3.598z"/>
		<path fill="#515559" d="M103.982,3.395c-0.506,0-1.043,0.363-1.043,1.035v4.676h-6.062V4.43c0-0.668-0.543-1.028-1.051-1.028
			s-1.02,0.353-1.02,1.028v10.775c0,0.309,0.123,0.586,0.346,0.782c0.195,0.173,0.451,0.267,0.719,0.267
			c0.5,0,1.006-0.359,1.006-1.049V11.01h6.062v4.195c0,0.406,0.176,0.656,0.324,0.793c0.189,0.174,0.441,0.27,0.709,0.27l0,0
			c0.512,0,1.055-0.372,1.055-1.062V4.43C105.027,3.758,104.488,3.395,103.982,3.395z"/>
		<path fill="#515559" d="M125.057,3.945c-0.176-0.322-0.539-0.531-0.926-0.531c-0.352,0-0.666,0.171-0.867,0.47l-3.928,5.317
			l-3.877-5.299c-0.207-0.302-0.529-0.475-0.889-0.475c-0.418,0-0.818,0.237-0.994,0.589c-0.16,0.322-0.117,0.688,0.121,1.005
			l4.602,6.093v4.016c0,0.621,0.432,1.055,1.053,1.055c0.512,0,1.055-0.371,1.055-1.055v-4.018l4.564-6.13l0.016-0.021
			C125.201,4.628,125.227,4.257,125.057,3.945z"/>
	</g>
</g>
</svg>
