<svg xmlns="http://www.w3.org/2000/svg" width="250" height="54" viewBox="0 0 250 54"><title>PortSwigger Logo</title><path d="M58.57,23.25H52.82V33.39a1.48,1.48,0,0,1-1.47,1.43,1.45,1.45,0,0,1-1.44-1.43V7.47a1.49,1.49,0,0,1,.41-1.12,1.27,1.27,0,0,1,1-.44h7.22a8.67,8.67,0,1,1,0,17.34Zm0-14.44H52.82V20.38h5.75a5.79,5.79,0,0,0,0-11.57Z" fill="#404041"/><path d="M77.91,34.82c-4.37,0-8.66-2.8-8.66-7.23V13.18c0-4.37,4.32-7.24,8.66-7.24s8.66,2.87,8.66,7.24V27.59C86.57,32,82.26,34.82,77.91,34.82Zm5.75-21.7c0-2.81-3-4.34-5.75-4.34s-5.75,1.53-5.75,4.34V27.53c0,2.87,3,4.33,5.75,4.33s5.75-1.46,5.75-4.33Z" fill="#404041"/><path d="M100.44,22.85l5.44,9.76a1.61,1.61,0,0,1-1.25,2.21,1.46,1.46,0,0,1-1.31-.68L97.38,23.25H91.63V33.39a1.48,1.48,0,0,1-1.47,1.43,1.45,1.45,0,0,1-1.44-1.43V7.47a1.53,1.53,0,0,1,.41-1.12,1.2,1.2,0,0,1,1-.44h7.22A8.7,8.7,0,0,1,106,14.58,8.29,8.29,0,0,1,100.44,22.85Zm-3.06-14H91.63V20.35h5.78a5.77,5.77,0,0,0,0-11.54Z" fill="#404041"/><path d="M122.66,8.81h-5.78V33.39a1.44,1.44,0,0,1-2.87,0h0V8.81h-5.85a1.44,1.44,0,0,1-1.43-1.43,1.48,1.48,0,0,1,1.43-1.47h14.5a1.48,1.48,0,0,1,1.44,1.47,1.43,1.43,0,0,1-1.44,1.43Z" fill="#404041"/><path d="M133.85,34.82c-3.09,0-4.9-.65-7.84-1.59a1.22,1.22,0,0,1-.81-1.31,1.45,1.45,0,0,1,1.46-1.43,1.7,1.7,0,0,1,.54.09,24.39,24.39,0,0,0,6.68,1.31c2.82,0,5.79-1.53,5.79-4.33A3.58,3.58,0,0,0,138,24.44l-9.88-5.8a6.08,6.08,0,0,1-2.9-5.52c0-4.37,3.68-7.3,8.65-7.24,2.88,0,5,.34,7.19,1.65a1.4,1.4,0,0,1,.75,1.25,1.54,1.54,0,0,1-2,1.4c-1.9-.74-2.25-1.31-5.94-1.4-2.9-.09-5.78,1.59-5.78,4.34a3.7,3.7,0,0,0,1.6,3.08L139.45,22a6.3,6.3,0,0,1,3.09,5.59C142.51,32.36,138.26,34.79,133.85,34.82Z" fill="#404041"/><path d="M164.29,33.83a1.5,1.5,0,0,1-1.94.87,1.55,1.55,0,0,1-.87-.87L157.1,19.51,152.63,33.8a1.32,1.32,0,0,1-1.31,1,1.4,1.4,0,0,1-1.4-1L144.07,7.53a1.29,1.29,0,0,1,.81-1.46,1.42,1.42,0,0,1,2,.81l4.66,20.43,4.25-13a1.46,1.46,0,0,1,1.34-1.18,1.38,1.38,0,0,1,1.44,1.12l4.1,12.94,4.68-20.27a1.45,1.45,0,0,1,1.82-1,1.47,1.47,0,0,1,1,1.66Z" fill="#404041"/><path d="M173.57,34.82a1.44,1.44,0,0,1-1.43-1.43v-26a1.48,1.48,0,0,1,1.43-1.47A1.51,1.51,0,0,1,175,7.38v26A1.49,1.49,0,0,1,173.57,34.82Z" fill="#404041"/><path d="M194.51,34.29a1.4,1.4,0,0,1-1.12.53h-8.66a7.71,7.71,0,0,1-5.56-2.33,7.82,7.82,0,0,1-1.69-4.9l0-14.41a7.17,7.17,0,0,1,2.87-5.86,7.73,7.73,0,0,1,4.44-1.41h8.69a1.49,1.49,0,0,1,1.44,1.47,1.45,1.45,0,0,1-1.44,1.43h-8.69a3.9,3.9,0,0,0-2.78.91,3.83,3.83,0,0,0-1.56,3.43V27.56a4,4,0,0,0,1.09,3,4.47,4.47,0,0,0,3.25,1.31H192V20.35h-3.16a1.42,1.42,0,0,1-1.43-1.43,1.45,1.45,0,0,1,1.43-1.44h4.66a1.46,1.46,0,0,1,1,.44,1.5,1.5,0,0,1,.41,1V33.39A1.74,1.74,0,0,1,194.51,34.29Z" fill="#404041"/><path d="M213.89,34.29a1.42,1.42,0,0,1-1.13.53h-8.65a7.74,7.74,0,0,1-5.57-2.33,7.87,7.87,0,0,1-1.68-4.9l0-14.41a7.15,7.15,0,0,1,2.87-5.86,7.68,7.68,0,0,1,4.44-1.41h8.66a1.48,1.48,0,0,1,1.43,1.47,1.44,1.44,0,0,1-1.43,1.43h-8.66a3.87,3.87,0,0,0-2.78.91,3.84,3.84,0,0,0-1.57,3.43V27.56a4,4,0,0,0,1.1,3,4.46,4.46,0,0,0,3.25,1.31h7.19V20.35h-3.19a1.43,1.43,0,0,1-1.44-1.43,1.46,1.46,0,0,1,1.44-1.44h4.65a1.43,1.43,0,0,1,1.44,1.44V33.39A2,2,0,0,1,213.89,34.29Z" fill="#404041"/><path d="M229.39,34.82H217.67a1.1,1.1,0,0,1-1-.4,1.29,1.29,0,0,1-.41-1v-26a1.26,1.26,0,0,1,.41-1.13,1.31,1.31,0,0,1,1-.34h11.56a1.49,1.49,0,0,1,1.44,1.47,1.45,1.45,0,0,1-1.44,1.43H219.17v8.67h8.63a1.45,1.45,0,0,1,0,2.9h-8.66V31.92h10.09a1.49,1.49,0,0,1,1.44,1.47A1.36,1.36,0,0,1,229.39,34.82Z" fill="#404041"/><path d="M244.42,22.85l5.44,9.76a1.61,1.61,0,0,1-1.25,2.21,1.46,1.46,0,0,1-1.31-.68l-5.94-10.89h-5.78V33.39a1.48,1.48,0,0,1-1.47,1.43,1.45,1.45,0,0,1-1.44-1.43V7.47a1.53,1.53,0,0,1,.41-1.12,1.18,1.18,0,0,1,1-.44h7.22A8.69,8.69,0,0,1,250,14.58,8.28,8.28,0,0,1,244.42,22.85Zm-3.06-14h-5.78V20.35h5.78a5.77,5.77,0,0,0,0-11.54Z" fill="#404041"/><path d="M61.6,53.07a.55.55,0,0,1-.6.41.64.64,0,0,1-.59-.41L58.5,46.8l-2,6.27a.6.6,0,0,1-.56.44.55.55,0,0,1-.59-.44L52.82,41.56a.54.54,0,0,1,.37-.65.59.59,0,0,1,.81.28s0,.06,0,.09l2,8.95,1.87-5.67a.62.62,0,0,1,.6-.5.56.56,0,0,1,.62.5l1.78,5.67L63,41.34a.58.58,0,0,1,.72-.4h0a.64.64,0,0,1,.5.72Z" fill="#f63"/><path d="M71.29,53.51H66.16a.64.64,0,0,1-.47-.16.67.67,0,0,1-.15-.47V41.5a.56.56,0,0,1,.15-.5.69.69,0,0,1,.47-.16h5.06a.66.66,0,0,1,.63.66.63.63,0,0,1-.63.62H66.79v3.81h3.78a.65.65,0,0,1,.65.62.66.66,0,0,1-.62.66H66.79v5h4.43a.65.65,0,0,1,.63.65.59.59,0,0,1-.53.63h0Z" fill="#f63"/><path d="M77.69,53.51H73.88a.62.62,0,0,1-.47-.13.59.59,0,0,1-.16-.5V41.5a.67.67,0,0,1,.19-.47.65.65,0,0,1,.44-.19h3.81c1.6,0,2.53,1.59,2.53,3.19a3.06,3.06,0,0,1-.9,2.27,3.82,3.82,0,0,1,1.53,3.43C80.79,51.64,79.63,53.51,77.69,53.51Zm0-11.36H74.54V46h3.15c.91,0,1.28-1,1.28-1.9s-.37-1.94-1.28-1.91Zm0,5.06H74.54v5h3.15c1.25,0,1.91-1.28,1.91-2.53s-.66-2.49-1.91-2.49Z" fill="#f63"/><path d="M95.69,53.51a9.29,9.29,0,0,1-3.43-.69.51.51,0,0,1-.38-.56.63.63,0,0,1,.63-.62.82.82,0,0,1,.25.06,9.4,9.4,0,0,0,2.93.56c1.25,0,2.54-.66,2.54-1.9A1.63,1.63,0,0,0,97.51,49l-4.35-2.52a2.73,2.73,0,0,1-1.28-2.4c0-1.91,1.63-3.18,3.81-3.18a6.08,6.08,0,0,1,3.16.71.64.64,0,0,1-.34,1.19.61.61,0,0,1-.22,0,5.28,5.28,0,0,0-2.6-.6c-1.28,0-2.53.69-2.53,1.91a1.63,1.63,0,0,0,.69,1.34l4.28,2.52a2.73,2.73,0,0,1,1.35,2.44C99.48,52.42,97.6,53.48,95.69,53.51Z" fill="#f63"/><path d="M106.6,53.51h-5.12a.56.56,0,0,1-.63-.63V41.5A.56.56,0,0,1,101,41a.67.67,0,0,1,.47-.16h5.09a.66.66,0,0,1,.62.66.62.62,0,0,1-.62.62h-4.44v3.81h3.78a.65.65,0,0,1,.66.62.66.66,0,0,1-.63.66h-3.81v5h4.44a.65.65,0,0,1,.62.65.64.64,0,0,1-.59.63Z" fill="#f63"/><path d="M114,53.51h-2.54a3.2,3.2,0,0,1-2.4-1,3.06,3.06,0,0,1-.78-2.15v-6.3a3.29,3.29,0,0,1,1.12-2.5,3.46,3.46,0,0,1,2.06-.68H114a.65.65,0,0,1,.62.65.62.62,0,0,1-.62.62h-2.54a1.8,1.8,0,0,0-1.28.47,1.77,1.77,0,0,0-.59,1.44v6.3A1.76,1.76,0,0,0,110,51.7a1.91,1.91,0,0,0,1.44.56H114a.65.65,0,0,1,.62.65A.63.63,0,0,1,114,53.51Z" fill="#f63"/><path d="M119.76,53.51a3.86,3.86,0,0,1-3.82-3.81V41.5a.67.67,0,0,1,.63-.66.72.72,0,0,1,.66.66v8.2a2.53,2.53,0,0,0,5.06,0V41.5a.69.69,0,0,1,.66-.66.66.66,0,0,1,.62.66v8.2A3.81,3.81,0,0,1,119.76,53.51Z" fill="#f63"/><path d="M130.2,48.27l2.37,4.27a.68.68,0,0,1-.34.9.41.41,0,0,1-.22.07.55.55,0,0,1-.56-.31l-2.6-4.78h-2.53v4.43a.65.65,0,0,1-.66.63.63.63,0,0,1-.62-.63V41.5a.56.56,0,0,1,.16-.5.64.64,0,0,1,.46-.19h3.19a3.86,3.86,0,0,1,3.81,3.81A3.7,3.7,0,0,1,130.2,48.27Zm-1.35-6.15h-2.53v5.06h2.53a2.53,2.53,0,1,0,0-5.06Z" fill="#f63"/><path d="M134.63,53.51a.63.63,0,0,1-.62-.63V41.5a.66.66,0,0,1,.62-.66.71.71,0,0,1,.66.66V52.88A.65.65,0,0,1,134.63,53.51Z" fill="#f63"/><path d="M143.79,42.12h-2.53V52.88a.63.63,0,1,1-1.25,0V42.12h-2.56a.63.63,0,0,1-.63-.62.66.66,0,0,1,.63-.66h6.31a.66.66,0,0,1,.62.66A.55.55,0,0,1,143.79,42.12Z" fill="#f63"/><path d="M150.92,47.36v5.52a.66.66,0,0,1-.66.63.63.63,0,0,1-.63-.63V47.36l-3.71-5.55a.64.64,0,0,1,.15-.87h0a.66.66,0,0,1,.88.22l3.31,4.89,3.28-4.89a.65.65,0,0,1,.91-.16h0a.6.6,0,0,1,.18.84Z" fill="#f63"/><polygon points="20.81 39.75 0 35.76 0 4.51 20.81 0.48 20.81 39.75" fill="#404041"/><polygon points="21.78 39.75 42.63 35.76 42.63 4.51 21.78 0.48 21.78 39.75" fill="#f63"/><path d="M31.66,5.23c.72.15,1.06.21,1.78.34V11c-2.09,2-3.13,3.12-5.22,5.49,2.09.1,3.13.13,5.22.22V22c2.87-.1,4.31-.13,7.13-.22a85.64,85.64,0,0,0-7.13,8.11v4.21c-.72.15-1.06.22-1.78.34v-4.9c2.09-2.62,3.12-3.86,5.19-6.14l-5.22.28V18.2L24.5,18a91.79,91.79,0,0,1,7.13-7.89V7.91C31.66,6.85,31.66,6.32,31.66,5.23Z" fill="#fff"/></svg>