<?xml version="1.0" encoding="utf-8"?>
<!-- Generator: Adobe Illustrator 22.0.1, SVG Export Plug-In . SVG Version: 6.00 Build 0)  -->
<svg version="1.1" xmlns="http://www.w3.org/2000/svg" xmlns:xlink="http://www.w3.org/1999/xlink" x="0px" y="0px"
	 viewBox="0 0 452 74" enable-background="new 0 0 452 74" xml:space="preserve">
<g id="Layer_2">
</g>
<g id="Layer_1">
	<g>
		<path fill="#FFFFFF" d="M0.2,15v10.9h2.1c0-2,0.3-3.6,0.9-4.7c0.6-1.1,1.3-2,2.3-2.5c0.9-0.5,2-0.9,3.3-1c1.3-0.1,2.7-0.2,4.1-0.2
			c1.2,0,2.2,0,2.9,0.1c0.7,0.1,1.3,0.2,1.7,0.3c0.4,0.2,0.7,0.3,0.8,0.5c0.1,0.2,0.2,0.5,0.2,0.8v30.5c0,1.2-0.1,2.3-0.3,3.1
			c-0.2,0.9-0.5,1.6-1,2.1c-0.5,0.6-1.3,1-2.3,1.3c-1,0.3-2.3,0.4-3.9,0.5v2.2h21.5v-2.2c-1.6,0-2.9-0.2-3.8-0.5
			c-1-0.3-1.7-0.7-2.2-1.3c-0.5-0.6-0.9-1.3-1-2.1c-0.2-0.9-0.3-1.9-0.3-3.1V19.2c0-0.3,0.1-0.6,0.2-0.8c0.1-0.2,0.4-0.4,0.9-0.5
			c0.5-0.2,1.1-0.3,2-0.3c0.9-0.1,2-0.1,3.4-0.1c1.6,0,3,0.1,4.2,0.4c1.2,0.3,2.2,0.7,2.9,1.3c0.8,0.6,1.4,1.5,1.8,2.6
			c0.4,1.1,0.7,2.5,0.8,4.1h2.3L43.3,15H0.2z"/>
		<path fill="#FFFFFF" d="M78.7,55.6c-0.3-0.5-0.5-1.2-0.6-2.1c-0.1-0.9-0.1-2.1-0.1-3.7v-9.1c0-2.4-0.2-4.4-0.5-5.8
			c-0.3-1.4-0.8-2.6-1.4-3.4c-0.8-1-1.9-1.8-3.4-2.5c-1.5-0.6-3.1-0.9-4.8-0.9c-1,0-2.1,0.1-3.2,0.4c-1.1,0.3-2.1,0.6-3.1,1.1
			c-1,0.5-1.9,1-2.8,1.6c-0.9,0.6-1.6,1.3-2.1,2.1h-0.2V11.6L46,13.8v1.9c0.8,0,1.5,0,2.1,0.1c0.6,0.1,1,0.2,1.4,0.4
			c0.3,0.2,0.6,0.4,0.8,0.7s0.3,0.7,0.4,1.1c0.2,0.7,0.3,1.7,0.3,3c0.1,1.3,0.1,3.1,0.1,5.4v23.9c0,1.4,0,2.6-0.1,3.4
			s-0.3,1.5-0.7,2s-0.8,0.8-1.5,0.9c-0.6,0.2-1.5,0.3-2.6,0.3v2h15.2v-2c-1.1-0.1-2-0.2-2.6-0.3c-0.6-0.2-1.1-0.5-1.4-0.9
			c-0.3-0.5-0.5-1.2-0.6-2.1c-0.1-0.9-0.1-2.1-0.1-3.7v-7.3c0-0.9,0-1.6,0-2.2c0-0.6,0.1-1.1,0.1-1.6c0.1-0.5,0.2-0.9,0.3-1.2
			c0.1-0.4,0.3-0.8,0.5-1.2c0.8-1.6,2-2.9,3.4-3.8c1.5-0.9,3.1-1.4,4.9-1.4c2.3,0,4,0.9,5,2.7c1,1.8,1.5,4.8,1.5,9.1v7.2
			c0,1.4,0,2.6-0.1,3.4c-0.1,0.9-0.3,1.5-0.6,2c-0.3,0.5-0.8,0.8-1.5,0.9c-0.6,0.2-1.5,0.3-2.6,0.3v2h15.1v-2
			c-1.1-0.1-2-0.2-2.6-0.3C79.5,56.4,79.1,56.1,78.7,55.6z"/>
		<path fill="#FFFFFF" d="M102.4,28.1c-2.3,0-4.4,0.4-6.3,1.2c-1.9,0.8-3.6,1.9-5,3.3c-1.4,1.4-2.5,3.1-3.2,5.1
			c-0.8,2-1.1,4.1-1.1,6.4c0,2.3,0.4,4.4,1.1,6.2c0.7,1.9,1.7,3.5,3,4.8c1.3,1.3,2.9,2.4,4.7,3.1c1.8,0.7,3.9,1.1,6.1,1.1
			c4.8,0,8.8-2,12-5.9L112,52c-1.4,1.6-2.9,2.7-4.2,3.4c-1.4,0.7-2.9,1.1-4.4,1.1c-1.5,0-2.9-0.3-4.1-0.9c-1.2-0.6-2.3-1.5-3.2-2.7
			c-0.9-1.1-1.6-2.5-2.1-4.1c-0.5-1.6-0.7-3.4-0.7-5.4c0-0.5,0-1,0.1-1.5c0-0.4,0.1-0.8,0.2-1.1h18.8c0.8,0,1.2-0.1,1.5-0.2
			c0.2-0.1,0.3-0.4,0.3-1c0-3.7-1-6.6-3-8.6C109,29.1,106.1,28.1,102.4,28.1z M107.7,37.4c-0.1,0.2-0.2,0.4-0.5,0.5
			c-0.2,0.1-0.6,0.2-1,0.2c-0.5,0-1.1,0.1-1.8,0.1H93.9c1-4.9,3.5-7.4,7.6-7.4c1.9,0,3.5,0.5,4.6,1.6c1.1,1,1.7,2.4,1.7,4.2
			C107.8,37,107.7,37.2,107.7,37.4z"/>
		<path fill="#FFFFFF" d="M173.4,21.5c-2.1-2-4.6-3.6-7.5-4.7c-2.9-1.1-6.1-1.7-9.5-1.7h-20v2.2c1.2,0.1,2.2,0.2,3,0.4
			c0.8,0.2,1.3,0.5,1.7,1c0.4,0.5,0.7,1.1,0.8,1.9c0.1,0.8,0.2,1.9,0.2,3.2v26.6c0,1.4-0.1,2.5-0.3,3.3c-0.2,0.8-0.5,1.5-1,1.9
			c-0.5,0.5-1.2,0.8-2.1,1s-2.1,0.3-3.5,0.3v2.2h22.3c3.3,0,6.3-0.5,9.1-1.6c2.8-1,5.2-2.5,7.2-4.4c2-1.9,3.5-4.1,4.6-6.7
			c1.1-2.6,1.7-5.5,1.7-8.6c0-3.3-0.6-6.3-1.8-9.1C177.1,25.9,175.5,23.5,173.4,21.5z M168.5,51.5c-2.8,3.1-6.8,4.6-12,4.6
			c-5.7,0-8.5-2.2-8.5-6.5V18.8c0-0.6,0.3-1,1-1h7.2c2.5,0,4.8,0.5,6.8,1.4c2,0.9,3.7,2.2,5.2,3.9s2.5,3.8,3.3,6.3
			c0.8,2.5,1.1,5.3,1.1,8.4C172.6,43.8,171.3,48.4,168.5,51.5z"/>
		<path fill="#FFFFFF" d="M212.6,56.1c-0.5,0.1-1,0.2-1.5,0.2c-1.7,0-2.6-2.2-2.6-6.5V37c0-3.2-0.8-5.5-2.4-6.9
			c-1.6-1.3-4.3-2-8.1-2c-3.6,0-6.3,0.5-8.3,1.5c-1.9,1-2.9,2.4-2.9,4.2c0,1.9,0.9,2.8,2.8,2.8c0.8,0,1.3-0.2,1.7-0.5
			c0.4-0.4,0.8-1.1,1.2-2.2c0.2-0.7,0.5-1.3,0.7-1.8c0.2-0.5,0.5-0.9,0.8-1.1c0.3-0.3,0.7-0.5,1.1-0.6s1-0.2,1.7-0.2
			c4,0,5.9,2.3,5.9,7v2.3l-8.2,3.6c-1.7,0.8-3.2,1.5-4.3,2.3c-1.2,0.7-2.1,1.5-2.9,2.3c-0.7,0.8-1.2,1.6-1.6,2.4
			c-0.3,0.8-0.5,1.7-0.5,2.6c0,2.1,0.7,3.7,2.1,4.9c1.4,1.2,3.2,1.8,5.6,1.8c2.1,0,4.1-0.5,5.8-1.6s3.1-2.6,4.1-4.4h0.3
			c0,1.9,0.4,3.4,1.2,4.5c0.8,1.1,2.1,1.6,3.7,1.6c1.3,0,2.6-0.3,3.8-0.9c1.2-0.6,2.1-1.3,2.5-2.2l-0.8-1.4
			C213.5,55.6,213.1,56,212.6,56.1z M202.9,46.5c0,1.3-0.2,2.5-0.6,3.7c-0.4,1.2-0.9,2.2-1.5,3c-0.6,0.9-1.4,1.5-2.3,2
			c-0.9,0.5-1.8,0.7-2.8,0.7c-1.4,0-2.5-0.4-3.3-1.2c-0.8-0.8-1.3-1.8-1.3-3.1c0-0.8,0.2-1.7,0.6-2.5c0.4-0.8,1.1-1.6,2-2.4
			c0.9-0.8,2.1-1.6,3.6-2.4c1.5-0.8,3.3-1.6,5.5-2.5V46.5z"/>
		<path fill="#FFFFFF" d="M228.6,55.5c-0.4-0.5-0.6-1.2-0.8-2.1c-0.1-0.9-0.2-2.1-0.2-3.6V28.1l-11.2,2.2v2c1.9,0,3.2,0.2,3.9,0.5
			c0.7,0.3,1.1,0.9,1.3,1.8c0.2,0.5,0.3,1.5,0.3,2.9s0.1,3.2,0.1,5.4v7.3c0,1.3-0.1,2.4-0.2,3.3c-0.1,0.9-0.4,1.5-0.8,2
			c-0.4,0.5-1,0.8-1.7,1c-0.7,0.2-1.7,0.3-2.8,0.4v2h16.4v-2c-1.1,0-2.1-0.2-2.7-0.3C229.5,56.4,228.9,56,228.6,55.5z"/>
		<path fill="#FFFFFF" d="M224.6,20.1c1,0,1.8-0.3,2.5-1c0.7-0.7,1-1.5,1-2.5c0-1-0.3-1.8-1-2.5c-0.7-0.7-1.5-1-2.5-1
			c-1,0-1.8,0.3-2.5,1c-0.7,0.7-1,1.5-1,2.5c0,1,0.3,1.8,1,2.5S223.6,20.1,224.6,20.1z"/>
		<path fill="#FFFFFF" d="M246.8,55.5c-0.4-0.5-0.6-1.2-0.7-2.1c-0.1-0.9-0.2-2-0.2-3.5V11.6l-10.8,2.1v1.9c1.8,0,3.1,0.2,3.8,0.5
			c0.7,0.3,1.1,0.9,1.3,1.8c0.1,0.5,0.2,1.4,0.3,2.8c0.1,1.4,0.1,3.1,0.1,5.2v24.6c0,1.3-0.1,2.4-0.2,3.2c-0.1,0.8-0.4,1.5-0.8,1.9
			c-0.4,0.5-0.9,0.8-1.6,1c-0.7,0.2-1.6,0.3-2.7,0.4v2H251v-2c-1.1,0-2-0.2-2.7-0.3C247.7,56.4,247.2,56,246.8,55.5z"/>
		<path fill="#FFFFFF" d="M275.5,30.7c1.6,0,2.6,0.2,3.2,0.5c0.6,0.3,0.8,1,0.8,2c0,0.3,0,0.6-0.1,1c-0.1,0.3-0.2,0.8-0.3,1.3
			c-0.2,0.5-0.4,1.2-0.7,2c-0.3,0.8-0.7,1.8-1.2,3.1l-5.2,12.8h-0.3l-6.3-15.2c-0.5-1.1-0.8-2.2-1.1-3.2c-0.3-1.1-0.5-1.8-0.5-2.3
			c0-1.3,1.3-1.9,3.8-1.9v-2h-15.1v2c0.8,0.1,1.4,0.2,1.9,0.3c0.5,0.1,0.9,0.4,1.3,0.7c0.4,0.4,0.8,0.9,1.1,1.5
			c0.4,0.6,0.8,1.5,1.3,2.5L269,59.5l-2,4c-0.3,0.7-0.7,1.3-1.1,1.8c-0.4,0.5-0.8,0.9-1.2,1.2c-0.5,0.3-1,0.6-1.5,0.8
			c-0.6,0.2-1.3,0.4-2.1,0.5c-1.8,0.3-3,0.7-3.7,1.1c-0.7,0.4-1,1.1-1,2.1c0,1.8,1.2,2.7,3.6,2.7c3.7,0,6.4-2,8.2-5.9l12.4-27.6
			c0.9-2.1,1.7-3.8,2.3-5.1s1.2-2.2,1.7-2.9c0.5-0.7,1-1.1,1.5-1.3c0.5-0.2,1.1-0.3,1.8-0.3v-2h-12.5V30.7z"/>
		<path fill="#FFFFFF" d="M346.5,34.6c-1.8-2.2-4.2-4.8-7.2-7.6c-1.7-1.7-3.1-3.2-4.2-4.5c-1.1-1.4-1.9-2.6-2.4-3.8
			c-0.6-1.2-0.9-2.3-0.9-3.5c0-1.1,0.1-2.3,0.5-3.5c0.9-2.6,2.4-4.4,4.6-5.4s4.8-1,7.7,0c3,1,5.3,2.9,6.8,5.7
			c1.5,2.8,2.1,6.5,1.8,11.1l2.6,0.9l4.3-15.6l-1.6-0.5l-3,2.9c-1.3-2.2-2.8-4-4.3-5.3c-1.6-1.3-3.4-2.3-5.5-3
			c-2.3-0.8-4.6-1.1-6.8-0.9c-2.2,0.2-4.3,0.7-6.2,1.7c-1.9,1-3.6,2.4-5,4.1c-1.4,1.8-2.6,3.8-3.3,6.2c-0.7,2-1,3.9-1,5.6
			c0,1.7,0.3,3.5,1.1,5.3c0.7,1.8,1.9,3.6,3.4,5.6c1.6,1.9,3.6,4.1,6.1,6.5c2,1.9,3.7,3.6,5,5.1c1.3,1.5,2.2,2.9,2.8,4.2
			c0.6,1.3,0.9,2.6,1,3.8c0,1.2-0.1,2.5-0.6,3.8c-1,3.1-2.8,5.2-5.5,6.3c-2.6,1.1-5.7,1.1-9.2,0c-2.1-0.7-4-1.7-5.6-3
			s-2.9-2.8-3.8-4.6c-1-1.7-1.6-3.7-1.9-5.9s-0.2-4.5,0.2-6.9l-2.6-0.9l-4.7,17.7l1.6,0.5l3.2-3.1c1.6,2.7,3.3,4.8,5.2,6.3
			c1.9,1.5,4.2,2.7,6.9,3.6c2.8,0.9,5.6,1.4,8.2,1.3c2.6-0.1,5.1-0.6,7.3-1.6c2.2-1,4.2-2.4,5.8-4.3c1.7-1.9,2.9-4.1,3.8-6.6
			c0.7-2,1-3.9,0.9-5.7c0-1.8-0.5-3.7-1.4-5.6C349.6,38.9,348.3,36.8,346.5,34.6z"/>
		<path fill="#FFFFFF" d="M385.4,28.6c1.6,0,2.6,0.1,3.1,0.4c0.5,0.3,0.7,0.8,0.7,1.7c0,0.3,0,0.7-0.1,1.1c-0.1,0.4-0.2,0.9-0.4,1.5
			c-0.2,0.6-0.4,1.3-0.7,2.2c-0.3,0.9-0.7,1.9-1.1,3.2l-3.4,9.2h-0.2l-7.6-21.1h-1.8l-8.4,21.1h-0.2l-3.9-13.6
			c-0.2-0.8-0.3-1.4-0.5-1.9c-0.1-0.5-0.2-1-0.2-1.3c0-0.8,0.3-1.4,0.9-1.8c0.6-0.3,1.7-0.5,3.1-0.5v-2h-15.1v2
			c0.8,0,1.5,0.1,2.1,0.2c0.6,0.1,1.1,0.4,1.5,0.8c0.4,0.4,0.8,0.9,1.1,1.5c0.3,0.6,0.6,1.5,1,2.6l7.4,23.7h2.1l8.4-21h0.2l7,21h2.1
			l8.8-21.8c0.6-1.5,1.1-2.7,1.5-3.6c0.4-0.9,0.8-1.6,1.2-2.1c0.4-0.5,0.8-0.8,1.2-1c0.4-0.2,0.9-0.3,1.5-0.3v-2h-11.4V28.6z"/>
		<path fill="#FFFFFF" d="M411.6,55.5c-0.4-0.5-0.6-1.2-0.8-2.1c-0.1-0.9-0.2-2.1-0.2-3.6V28.1l-11.2,2.2v2c1.9,0,3.2,0.2,3.9,0.5
			c0.7,0.3,1.1,0.9,1.3,1.8c0.2,0.5,0.3,1.5,0.3,2.9s0.1,3.2,0.1,5.4v7.3c0,1.3-0.1,2.4-0.2,3.3c-0.1,0.9-0.4,1.5-0.8,2
			c-0.4,0.5-1,0.8-1.7,1c-0.7,0.2-1.7,0.3-2.8,0.4v2h16.4v-2c-1.1,0-2.1-0.2-2.7-0.3C412.5,56.4,412,56,411.6,55.5z"/>
		<path fill="#FFFFFF" d="M407.6,20.1c1,0,1.8-0.3,2.5-1c0.7-0.7,1-1.5,1-2.5c0-1-0.3-1.8-1-2.5c-0.7-0.7-1.5-1-2.5-1
			c-1,0-1.8,0.3-2.5,1c-0.7,0.7-1,1.5-1,2.5c0,1,0.3,1.8,1,2.5S406.6,20.1,407.6,20.1z"/>
		<path fill="#FFFFFF" d="M450.6,29.1c-0.8-0.6-1.9-0.9-3.3-0.9c-0.9,0-1.8,0.2-2.8,0.7c-1,0.5-2.1,1.2-3.4,2.3
			c-1.1-1-2.3-1.7-3.8-2.3c-1.5-0.5-3.1-0.8-4.7-0.8c-1.6,0-3.1,0.3-4.5,0.8c-1.4,0.5-2.6,1.2-3.6,2.1c-1,0.9-1.8,1.9-2.3,3.2
			c-0.6,1.2-0.8,2.5-0.8,4c0,1,0.2,1.9,0.5,2.9c0.3,0.9,0.7,1.8,1.2,2.6c0.5,0.8,1.1,1.5,1.9,2.1c0.7,0.6,1.5,1.1,2.3,1.5v0.2
			c-1.7,0.3-3.1,0.9-4.2,1.9c-1.1,1-1.7,2.2-1.7,3.5c0,1.6,0.6,2.9,1.7,3.8c1.1,0.9,2.7,1.5,4.8,1.7c0.5,0.1,1.1,0.2,1.9,0.2
			c0.8,0.1,1.7,0.2,2.6,0.3c0.9,0.1,1.9,0.2,2.8,0.4c1,0.1,1.9,0.3,2.8,0.4c1.4,0.2,2.6,0.8,3.6,1.8c1,1,1.5,2.3,1.5,3.8
			c0,4-3.2,6-9.7,6c-3,0-5.4-0.5-7-1.4S424,67.6,424,66c0-1.1,0.3-2.2,1-3c0.6-0.9,1.5-1.5,2.5-1.7c-1-0.8-2.2-1.2-3.5-1.2
			c-0.7,0-1.3,0.2-2,0.5c-0.6,0.3-1.2,0.7-1.6,1.2c-0.5,0.5-0.8,1.1-1.1,1.8c-0.3,0.7-0.4,1.4-0.4,2.2c0,1.2,0.4,2.3,1.1,3.2
			c0.7,1,1.7,1.8,2.9,2.5c1.3,0.7,2.8,1.2,4.5,1.6c1.8,0.4,3.7,0.6,5.8,0.6c4.8,0,8.4-0.8,11-2.5c2.5-1.7,3.8-4.1,3.8-7.3
			c0-2.5-0.8-4.7-2.5-6.4c-1.7-1.7-3.8-2.7-6.6-3.2c-0.9-0.1-1.7-0.2-2.4-0.3c-0.7-0.1-1.5-0.2-2.2-0.3c-0.7-0.1-1.5-0.2-2.3-0.2
			c-0.8-0.1-1.6-0.2-2.5-0.2c-1.3-0.1-2.3-0.3-3-0.5c-0.7-0.3-1-0.7-1-1.3c0-0.8,0.5-1.3,1.4-1.7c0.9-0.3,2.5-0.5,4.8-0.7
			c4-0.3,7-1.4,9.1-3.2c2-1.8,3-4.4,3-7.6c0-2.1-0.5-3.9-1.4-5.3c0.9-0.6,1.9-1,2.8-1c0.5,0,0.8,0.1,1.1,0.3
			c0.3,0.2,0.6,0.4,0.9,0.6c0.3,0.2,0.6,0.4,0.9,0.6c0.3,0.2,0.8,0.3,1.3,0.3c0.6,0,1.2-0.2,1.6-0.6c0.4-0.4,0.7-0.9,0.7-1.5
			C451.8,30.5,451.4,29.7,450.6,29.1z M436.4,44.5c-0.9,1.4-2.1,2.2-3.7,2.2c-1.6,0-2.9-0.8-3.9-2.3c-1-1.5-1.5-3.5-1.5-6
			c0-2.5,0.5-4.5,1.5-5.9c1-1.4,2.3-2.2,3.9-2.2c1.6,0,2.9,0.7,3.8,2.1c0.9,1.4,1.3,3.4,1.3,6C437.8,41,437.3,43,436.4,44.5z"/>
	</g>
</g>
</svg>
